<?xml version="1.0" encoding="UTF-8" standalone="no"?>
<!-- Generator: Adobe Illustrator 22.0.0, SVG Export Plug-In . SVG Version: 6.00 Build 0)  -->

<svg
   xmlns:dc="http://purl.org/dc/elements/1.1/"
   xmlns:cc="http://creativecommons.org/ns#"
   xmlns:rdf="http://www.w3.org/1999/02/22-rdf-syntax-ns#"
   xmlns:svg="http://www.w3.org/2000/svg"
   xmlns="http://www.w3.org/2000/svg"
   xmlns:sodipodi="http://sodipodi.sourceforge.net/DTD/sodipodi-0.dtd"
   xmlns:inkscape="http://www.inkscape.org/namespaces/inkscape"
   version="1.1"
   id="Layer_1"
   x="0px"
   y="0px"
   viewBox="0 0 564.87024 176.69999"
   xml:space="preserve"
   sodipodi:docname="coinberry.svg"
   width="564.87024"
   height="176.7"
   inkscape:version="0.92.3 (2405546, 2018-03-11)"><metadata
   id="metadata2458"><rdf:RDF><cc:Work
       rdf:about=""><dc:format>image/svg+xml</dc:format><dc:type
         rdf:resource="http://purl.org/dc/dcmitype/StillImage" /><dc:title></dc:title></cc:Work></rdf:RDF></metadata><defs
   id="defs2456" /><sodipodi:namedview
   pagecolor="#ffffff"
   bordercolor="#666666"
   borderopacity="1"
   objecttolerance="10"
   gridtolerance="10"
   guidetolerance="10"
   inkscape:pageopacity="0"
   inkscape:pageshadow="2"
   inkscape:window-width="2560"
   inkscape:window-height="1412"
   id="namedview2454"
   showgrid="false"
   fit-margin-top="0"
   fit-margin-left="0"
   fit-margin-right="0"
   fit-margin-bottom="0"
   inkscape:zoom="0.51470588"
   inkscape:cx="45.171429"
   inkscape:cy="89.249997"
   inkscape:window-x="0"
   inkscape:window-y="0"
   inkscape:window-maximized="1"
   inkscape:current-layer="Layer_1" />
<style
   type="text/css"
   id="style2419">
	.st0{fill:#FFFFFF;}
</style>
<path
   class="st0"
   d="m 122.5,86.7 c 5.2,0 9.4,-4 9.4,-9.4 0,-5.2 -4.1,-9.5 -9.4,-9.5 -5.5,0 -9.5,4.4 -9.5,9.5 0,5.3 3.9,9.4 9.5,9.4"
   id="path2421"
   inkscape:connector-curvature="0"
   style="fill:#ffffff" />
<path
   class="st0"
   d="m 78.5,149.6 c 8.4,0 9.4,-10.3 9.4,-25.7 0,-18.7 -2,-25.8 -9.5,-25.8 -8.9,0 -9.6,12.1 -9.6,25.8 0,13.1 0,25.7 9.7,25.7 M 78.4,94.3 c 15.9,0 27.3,12.7 27.3,29.6 0,16.1 -10.8,29.5 -27.3,29.5 C 61.5,153.4 51,139.7 51,123.9 51,108.3 61.6,94.3 78.4,94.3"
   id="path2423"
   inkscape:connector-curvature="0"
   style="fill:#ffffff" />
<path
   class="st0"
   d="m 222.4,139.9 c 0,3.4 1.6,9.6 8.3,9.6 7.3,0 11.5,-6.1 11.5,-25.2 0,-7.1 -0.8,-23.3 -11.3,-23.3 -5.6,0 -7.4,4.5 -8.5,7.1 z M 198.8,69.8 h 23.6 v 31.4 c 2,-2.2 6.5,-6.8 14.7,-6.8 14,0 22.8,12.3 22.8,28.1 0,15.4 -8.3,30.9 -28.3,30.9 -2.8,0 -6.8,-0.9 -11,-3.5 -2.8,-1.8 -6.3,-1.8 -9,0.1 l -4.7,3.3 h -1.4 V 79.7 c 0,-5.7 -2.3,-6.1 -6.7,-7 z"
   id="path2425"
   inkscape:connector-curvature="0"
   style="fill:#ffffff" />
<path
   class="st0"
   d="m 54,122.2 h -1.8 c -0.2,6.7 -2.4,12.8 -5.9,16.9 -0.6,0.8 -2.6,2.6 -3.5,3.4 -2,1.7 -4.8,2.8 -8.8,2.8 -9.5,0 -16.9,-9.8 -16.9,-26.8 0,-5.5 0.9,-20.3 10.3,-20.3 1.8,0 4.9,1.1 4.9,4.7 0,6.6 0,12.5 6.8,12.5 1,0 8.3,0 8.3,-7.7 C 47.4,99 37.2,94.5 28.6,94.5 17.2,94.5 0,101.9 0,125.8 c 0,15 10.4,27.8 25.9,27.8 7.6,0 14.3,-3 19.5,-8.3 1,-1.2 8.6,-8.1 8.6,-23.1"
   id="path2427"
   inkscape:connector-curvature="0"
   style="fill:#ffffff" />
<path
   class="st0"
   d="M 346.3,151.6 H 314 v -2.9 c 3.9,-0.8 6.6,-1.2 6.6,-7.3 v -35.5 c 0,-6 -2.9,-6.7 -6.6,-7.1 v -3 h 22.9 l 0.1,4.4 c 0,1.6 2,2.4 3.2,1.1 3,-3.4 7.3,-7 12.8,-7 8.3,0 10.1,6.6 10.1,9.5 0,3.1 -1.7,8.1 -7.7,8.1 -7,0 -6.9,-7.1 -10.8,-7.1 -1.8,0 -7.1,2.7 -7.1,11.5 v 22.9 c 0,7.4 1.5,9.3 8.8,9.6 v 2.9 0 z"
   id="path2429"
   inkscape:connector-curvature="0"
   style="fill:#ffffff" />
<path
   class="st0"
   d="m 194.3,141.9 v -30.4 c 0,-13.3 -9.6,-17.1 -16.2,-17.1 -6.6,0 -11.9,4.2 -14.8,7.2 -1,1 -2.6,0.3 -2.6,-1.1 v -4.6 h -23.1 v 2.9 c 4.8,0.8 6.5,1.7 6.5,7.1 v 35.6 0.3 1.8 c 0,2.8 -2.3,5.1 -5.1,5.1 h -2.8 c -2.8,0 -5.1,-2.3 -5.1,-5.1 V 118.7 95.8 h -23.2 v 2.9 c 4.6,0.9 6.5,1.7 6.5,7.1 v 35.6 c 0,5.8 -2,6.1 -6.5,7.3 v 2.9 h 27.4 3.6 28 v -2.9 c -5.6,-0.6 -5.9,-4.1 -5.9,-6.9 v -32.4 c 0,-1.1 5.2,-7 10.1,-7 6.6,0 6.7,6.7 6.7,10.1 v 29.4 c 0,4.5 -1.7,6.6 -5.7,6.9 v 2.9 h 28.5 v -2.8 c -6.3,-0.4 -6.3,-4.1 -6.3,-7"
   id="path2431"
   inkscape:connector-curvature="0"
   style="fill:#ffffff" />
<path
   class="st0"
   d="m 451.4,95.8 v 2.9 c 3,0.1 6.7,0.1 6.7,4 0,1.8 -0.6,3.4 -1.3,5.5 l -8.3,23.2 -8.7,-22.4 c -1.1,-2.7 -2.5,-5.8 -2.5,-7 0,-2.9 3.2,-3 6.5,-3.2 v -3 h -21.6 c -3,0 -5,3.1 -3.8,5.8 l 7.2,15.9 14.5,35.7 -2.2,6.5 c -0.9,2.7 -3.9,9.9 -8,9.9 -1.5,0 -2,-1.5 -2,-2 0,-0.5 0.3,-1.1 0.3,-2.2 0,-2.2 -1.3,-6.1 -6.8,-6.1 -7.3,0 -8,6.1 -8,7.9 0,3.9 3.2,9.5 11.2,9.5 11.4,0 14,-6.9 20,-23 l 18.1,-48.1 c 2.3,-6 4.4,-6.3 7,-6.7 v -3 h -18.3 z"
   id="path2433"
   inkscape:connector-curvature="0"
   style="fill:#ffffff" />
<path
   class="st0"
   d="m 397.1,151.6 h -32.3 v -2.9 c 3.9,-0.8 6.6,-1.2 6.6,-7.3 v -35.5 c 0,-6 -2.9,-6.7 -6.6,-7.1 v -3 h 22.9 l 0.1,4.4 c 0,1.6 2,2.4 3.2,1.1 3,-3.4 7.3,-7 12.8,-7 8.3,0 10.1,6.6 10.1,9.5 0,3.1 -1.7,8.1 -7.7,8.1 -7,0 -6.9,-7.1 -10.8,-7.1 -1.8,0 -7.1,2.7 -7.1,11.5 v 22.9 c 0,7.4 1.5,9.3 8.8,9.6 v 2.9 0 z"
   id="path2435"
   inkscape:connector-curvature="0"
   style="fill:#ffffff" />
<path
   class="st0"
   d="m 463.7,144.4 h 0.9 c 1,0 1.4,-0.8 1.4,-1.8 0,-1.2 -0.6,-1.5 -1.4,-1.5 h -0.9 z m -2.3,-3.7 h 3.5 c 1.2,0 2.4,0.5 2.4,1.8 0,1.1 -0.6,1.8 -1.6,2.2 l 1.2,1.6 c 0.5,0.8 1.2,1.4 1.5,1.7 v 0.2 h -1.3 c -0.6,0 -1.2,-1.4 -2.5,-3.2 h -1 v 2 c 0,0.9 0,0.9 1,1 v 0.3 h -3.2 V 148 c 1,-0.1 1,-0.1 1,-1 v -4.8 c 0,-0.9 0,-0.9 -1,-1 z m 3.4,-2.4 c -3.3,0 -5.8,2.9 -5.8,6.1 0,3.2 2.6,6.1 5.8,6.1 3.2,0 5.8,-2.9 5.8,-6.1 -0.1,-3.2 -2.6,-6.1 -5.8,-6.1 m 0,13.1 c -3.9,0 -7,-3.1 -7,-7 0,-3.9 3,-7 7,-7 3.9,0 6.9,3.1 6.9,7 0,3.9 -3.1,7 -6.9,7"
   id="path2437"
   inkscape:connector-curvature="0"
   style="fill:#ffffff" />
<path
   class="st0"
   d="m 298,117.5 c -0.1,-3.8 -0.1,-10.1 -1.1,-13.7 -0.8,-2.7 -2.3,-5.7 -6.6,-5.7 -4.5,0 -8.6,2.7 -8.6,19.4 z m 15.5,20.7 c -7.4,11.3 -14.3,15.2 -24,15.2 -12.3,0 -24.6,-8.9 -24.6,-29.7 0,-18 11.1,-29.4 25,-29.4 21.1,0 22.7,21.1 23,27.7 h -30.6 c 0.3,10.3 3,22.7 14.5,22.7 7.1,0 11.4,-5.4 13.7,-8.1 z"
   id="path2439"
   inkscape:connector-curvature="0"
   style="fill:#ffffff" />
<path
   class="st0"
   d="m 555.2,27.9 c -7.2,0 -9.7,6.1 -18.8,3.3 -0.8,-0.3 -1.5,0.7 -0.8,1.3 5.5,4.6 14.1,11.2 24,10.6 7.9,-0.6 7.3,-15.2 -4.4,-15.2"
   id="path2441"
   inkscape:connector-curvature="0"
   style="fill:#ffffff" />
<path
   class="st0"
   d="m 564.5,48.7 c -0.5,2.5 -1.3,5.5 -2,7.4 -0.2,0.4 -0.7,0.6 -1.1,0.4 -18.2,-8.8 -38.9,11.7 -60.7,5.1 -17.7,-5.3 -18.7,-40 3.9,-40.5 18.3,-0.4 32.8,30.4 59,26.6 0.5,-0.1 1,0.2 0.9,1"
   id="path2443"
   inkscape:connector-curvature="0"
   style="fill:#ffffff" />
<path
   class="st0"
   d="m 509.2,79.3 c 9.5,1.2 22.8,8.9 30.8,9.3 0.7,0 0.9,0.9 0.4,1.4 -4.7,3.9 -9.5,6.3 -13.8,6.3 -6.8,0 -15,-6.1 -22.3,-15.2 -1.2,-1.7 2.9,-2 4.9,-1.8"
   id="path2445"
   inkscape:connector-curvature="0"
   style="fill:#ffffff" />
<path
   class="st0"
   d="m 501.4,75.3 c 5.4,-3.4 16.5,0.4 27.6,4.9 10.6,4.3 16.1,4.5 20.3,0.3 4.8,-4.8 14.5,-18.8 7.5,-20.6 -16.1,-4.1 -38.2,15.1 -60.6,5.3 -0.7,-0.3 -1.3,0.3 -1,1 0.4,1.1 2.8,6.1 4.9,8.9 0.4,0.4 0.7,0.6 1.3,0.2"
   id="path2447"
   inkscape:connector-curvature="0"
   style="fill:#ffffff" />
<path
   class="st0"
   d="m 518,0 c 6,0 6.8,8.1 13.1,15.4 v 0 c 0.5,0.7 -0.1,1.3 -0.5,1.3 C 510.6,15.9 509.6,0 518,0"
   id="path2449"
   inkscape:connector-curvature="0"
   style="fill:#ffffff" />
<path
   class="st0"
   d="m 536.6,13.8 c -1.1,-0.7 -2.3,-1.8 -3.2,-3.2 -0.2,-0.2 -0.2,-0.5 0,-0.8 1.8,-2.9 3.4,-6.7 5.8,-8.3 3.7,-2.8 10.6,0.6 7.8,6.2 -1.1,2.2 -3.6,4.5 -6.2,6.1 -1.8,1.1 -3.4,0.6 -4.2,0"
   id="path2451"
   inkscape:connector-curvature="0"
   style="fill:#ffffff" />
</svg>