<svg width="459.29" height="154.67" xmlns="http://www.w3.org/2000/svg"><g fill="#fff"><path d="M378.51 129.219h-.207c-1.94 4.082-6.831 8.06-14.377 8.06-13.156 0-17.85-9.276-17.85-19.273V87.102h12.24v24.781c0 5.405.408 14.384 8.975 14.384 8.056 0 11.22-5.917 11.22-12.444V87.101h12.233v50.089H378.51v-7.972m-172.248-22.625c-.1-7.142-4.791-11.625-12.439-11.625-7.242 0-11.729 4.587-12.646 11.625zm-25.085 9.18c.814 7.238 6.321 11.625 13.154 11.625 6.119 0 10.097-2.854 13.154-6.627l8.77 6.627c-5.71 7.036-12.95 9.792-20.703 9.792-14.785 0-26.615-10.3-26.615-25.701 0-15.402 11.83-25.702 26.615-25.702 13.67 0 22.95 9.588 22.95 26.622v3.365h-37.325m119.029-21.926h.204c1.938-4.077 6.836-8.06 14.383-8.06 13.155 0 17.845 9.28 17.845 19.275v30.898h-12.237v-24.778c0-5.406-.409-14.38-8.971-14.38-8.059 0-11.224 5.915-11.224 12.443v26.714H287.97V58.865h12.236v34.98m132.464 2.957c-8.973 0-14.375 7.038-14.375 14.686 0 7.65 5.402 14.685 14.374 14.685 8.976 0 14.385-7.035 14.385-14.685 0-7.648-5.409-14.686-14.385-14.686zm-26.205-37.936h12.234v34.366h.31c2.548-3.16 7.442-7.445 16.621-7.445 13.972 0 23.657 11.22 23.657 25.702s-9.076 25.701-24.166 25.701c-6.833 0-13.26-2.657-16.826-8.571h-.208v7.342h-11.622V58.866M278.66 154.67h-52v-10.666h51.999v10.666m179.996 0H285.326v-10.666h173.33v10.666M226.008 87.01h13.354l13.054 34.269h.207L265.78 87.01h12.541l-19.271 48.951h-13.055l-19.987-48.95m-110.77 10.756c-8.761 0-14.04 6.866-14.04 14.336 0 7.462 5.28 14.336 14.04 14.336 8.76 0 14.043-6.874 14.043-14.336 0-7.47-5.282-14.336-14.043-14.336"/><path d="M140.823 135.99h-11.352v-7.167h-.194c-3.488 5.782-9.763 8.367-16.434 8.367-14.733 0-23.598-10.95-23.598-25.089 0-14.14 9.463-25.091 23.102-25.091 8.96 0 13.744 4.18 16.23 7.268h.3V60.724h11.947zM119.918.005H-.002V120.75l38.064 33.919h121.931V34.993L119.918.006"/></g></svg>