<svg xmlns="http://www.w3.org/2000/svg" id="Layer_1" data-name="Layer 1" width="693.239" height="212.381"><defs id="defs4"><style id="style2">.cls-9{fill:#fefefe}.cls-10{fill:#fcfcfc}</style></defs><path d="M692.369 88.219c-1.7 6.52-.69 13.22-1.32 19.77-.54 5.7-2.35 11.29-3.78 16.88-3.16 12.31-6.43 24.6-11.75 36.2-2.54 5.51-4.66 11.45-11.29 13.73-.9.31-1.38 1.78-2.1 2.68-3.64 4.54-6.92 9.44-11 13.52-8.43 8.38-16.94 15.69-30.7 14.94-9.77-.53-19.91 1.06-29.7-.18-13.83-1.75-23.84-10.17-31.45-21.51-8.91-13.27-13.4-28.28-17-43.62-.54-2.29-.09-5-2.57-6.58a1.88 1.88 0 0 1-.43-1.76c3.57-4 1.13-8.62.55-12.52-2-13.5 1.55-26.44 2.68-39.61.49-5.72 3.79-11.62-1.09-17.06-.83-.93-.27-2.1.68-3.07 8.54-8.68 13.46-19.66 18.61-30.37 7.77-16.17 20.86-25.35 37.9-28.21 22.25-3.72 43.29.43 61.8 14 13.33 9.79 22.36 23.08 28.59 38.17 2.27 5.48 1.6 11.79 2.21 17.73.35 3.35.3 6.77 2 9.84v1c-1.22 1.85.15 4.1-.84 6.03z" id="path8"/><path d="M692.369 88.219c.66-2-1.53-4.34.87-6.06v6a6.36 6.36 0 0 1-.87.06z" id="path12" fill="#a3a3a3"/><path d="M455.279 212.189c-7.68.64-15.27-.87-22.92-1.06-3.4-.08-5.32-1.53-6.35-5-3.47-11.64-5.08-23.62-6.71-35.59-2.08-15.29-3.8-30.63-5.79-45.94-.38-2.88.1-5.63.37-8.43.75-7.71.15-15.37-2.83-22.48-3.19-7.64-7.19-11.1-15.8-9a60.73 60.73 0 0 1-10.88 1.23c-3.69.21-5.06-2.57-6.19-5.44-3.08-7.86-3.81-16.2-3.78-24.45.07-18.07 9.53-32.25 20.4-45.6 3.06-3.76 7.76-4.11 12.33-4.29 25.59-1 51.17-2.16 76.77-2.87 6.26-.18 12.56 1.08 18.83 1.8 2.61.3 4.1 2.28 4.84 4.5 4.64 13.85 9.3 27.66 1.72 42.1-5.54 10.57-10 21.77-18.71 30.35a4.61 4.61 0 0 0-1.22 4.09c1.12 13.42 2.2 26.83 3.35 40.25.81 9.44 2.35 18.87 2.34 28.3 0 7.22-2.78 14.23-4.75 21.23-2.68 9.56-5.82 18.95-11.13 27.46-3.79 6.09-8.73 9.85-16.4 8.88a60.33 60.33 0 0 0-7.49-.04zM.069 107.019c-.54-15.53 4.36-28 9.16-40.54 6.57-17.12 14.47-33.37 28.3-46.13 16.36-15.1 34.92-21.69 57.08-16.37 2.18.53 4.6-.06 6.91 0 10.51.43 16.56 8.49 13.94 18.66a17.93 17.93 0 0 0 .13 9.35c1.07 3.73-.17 6.31-2.15 9.13-4.77 6.81-9.53 13.61-15.48 19.48-3.83 3.77-8.2 5.86-13.82 5.61-4.27-.19-8.61-.62-12.9.54-11.62 3.12-17.88 10.72-18.88 23.19-.17 2.14-.26 4.28-.4 6.43 3.29-.14 2.56-3.41 3.84-5.1 5.26-7 11.94-12.47 18.41-18.2a5 5 0 0 1 4.66-1c15.56 3.07 31.23 5.69 46.25 11 8.45 3 9.81 5.56 8.85 14.51-1.18 10.89-4.78 21.47-5.73 32.15a114 114 0 0 1-5.75 26.08c-6.2 18.67-16.59 34.58-31.81 47.15-3.49 2.88-8.26 3.52-12.31 2.92-17.61-2.63-34.73-7.81-47.48-20.66-16.89-17-29-37-29.67-62.11-.15-5.92-1.54-11.82-1.15-16.09zM229.279.149c38.43.66 62.56 19.34 77.72 52.89 2.09 4.64 1.23 9.84 2 14.76 2.06 12.47.63 24.93-.43 37.44-1.67 19.89-8.19 38.35-15.45 56.62-2.1 5.28-4.49 10.81-10.82 12.87-.9.29-1.46 1.72-2.13 2.65-3.79 5.27-7.6 10.55-12.36 15-8.24 7.71-16.45 14.11-29.33 13.5-10-.48-20.26 1.28-30.17-.23-17.67-2.69-28.27-14.86-36.07-29.9-5.81-11.22-9.3-23.26-12.11-35.54-.48-2.1-.07-4.65-2.46-6.1a1.9 1.9 0 0 1-.39-1.82c3.54-3.64 1.19-8 .66-11.53-2.44-16.36 2.1-32 3.74-48 .33-3.12.67-5.82-1.46-8.41-1.06-1.28-1.81-2.72-.17-4.39 8.77-8.92 13.62-20.29 19.08-31.23 8-16 21.33-24.44 38.4-27.57 4.09-.68 8.23-1.5 11.75-1.01z" id="path14"/><path class="cls-9" d="M547.279 108.509c-.12-9.15.38-18.24 2.91-27.12 1.08-3.77 2.64-7.25 6.54-8.83 2-.83 1.74-2.24 1.23-3.61-1.74-4.69-.19-8.58 2.31-12.58 4.51-7.19 9.17-14.22 15.33-20.17 6.16-5.95 13.08-9.46 21.85-8.9 12.29.78 24.33 2.54 35.55 8 17.53 8.54 25.89 23.45 29.18 41.88 1.68 9.45 3.46 18.89 4.83 28.38 1 6.83-1.18 13.52-1.83 20.28q-1.53 15.85-3.44 31.67c-2.61 21.53-16.68 33.22-36.3 39.56-13.91 4.5-27.79 3.66-41.63 0a22.07 22.07 0 0 1-12.32-8.66c-13.92-18.93-21.32-40.13-23.35-63.43-.48-5.52-.86-10.98-.86-16.47z" id="path32" fill="#fefefe"/><path class="cls-9" d="M671.909 146.829a370.9 370.9 0 0 0 1.22-55.26c-1.11-22-8-41.77-26.52-55.46-13.06-9.65-28.44-14.43-44.26-16.06-8-.83-16.53 2.4-25.86 4a37.15 37.15 0 0 1 17-12.85c9.08-3.51 18.56-3.47 28-2.67 7.07.6 14.38 1.15 20.85 4.24 21.39 10.23 35.15 27 40.76 50.07 1.16 4.8 2.85 10.26 1.64 14.69-3 10.82-.57 21.71-2.06 32.49-1.31 9.51-2.09 19.09-5.59 28.14a22.69 22.69 0 0 1-5.18 8.67zm-224.18 57.32c-9.85.06-10.15.15-12.84-9a248.68 248.68 0 0 1-9.7-52.14c-1.49-20-2-40.13-5.84-59.93-1-4.92-2.6-7.59-8.34-7.16-6.1.46-12.29-.39-18.44-.36-3.37 0-5.42-1.3-6.24-4.43-2.09-8-1.54-16.16-1-24.29.13-2 1.74-1.58 3-1.8a308.68 308.68 0 0 1 45-4.73c13.79-.44 27.62-.81 41.43.69 3.67.4 6 1.89 7.33 4.94 2.76 6.52 3.43 13.46 3.15 20.48-.11 2.67-2.17 3.3-4.46 3.7-6.85 1.22-13.63 2.89-20.51 3.74-3.2.39-3.29 1.71-3 4.12 1.17 11.74 2.22 23.48 3.39 35.22 1.5 15.05 3.1 30.08 4.59 45.13 1.2 12.06 2 24.18 3.57 36.2.56 4.39-1.18 6.35-4.68 7.33a54 54 0 0 1-16.41 2.29zm15.05-189.95c8.18 0 15.33.11 22.48 0 3.89-.07 4.7.47 3.57 4.92-1.93 7.6-6.73 9.34-13.5 10.08-25.6 2.81-51.3 3.58-77 4.43-4.38.14-4.77-1.94-3.65-5.15 1.29-3.71 4.36-5.72 7.77-7.24 8.75-3.89 18.14-4.94 27.5-5.93a248.53 248.53 0 0 1 32.83-1.11z" id="path34" fill="#fefefe"/><path class="cls-9" d="M485.509 152.769c1.89 7.51-4.16 15.24-6.67 23.84-.21.69-.63 1.64-1.73 1.42-1.1-.22-.78-1.27-.86-2-1.67-15.52-3.36-31-5-46.58-1.4-13.55-2.59-27.12-4.1-40.65-.41-3.75.77-6.44 4.23-7.22 3.81-.87 5.65 2 6.63 5.23 3 9.9 3.8 20.19 4.89 30.39 1.21 11.09 1.68 22.21 2.61 35.57z" id="path36" fill="#fefefe"/><path class="cls-10" d="M502.389 37.649c.61 4.56-.91 8.69-3.1 12.66a3.6 3.6 0 0 1-3.74 1.89c-2-.14-1.84-1.87-1.83-3 0-6.56-3-13.09-.35-19.65a32.83 32.83 0 0 1 2.91-5.16 3 3 0 0 1 3.55-1.13c1.4.4 1.25 1.77 1.37 2.91.37 3.79.78 7.59 1.19 11.48z" id="path38" fill="#fcfcfc"/><path class="cls-9" d="M68.279 31.379c4.38-.26 8.35.25 12.31-.93 2.76-.81 7.85 4.68 8 8.52.17 5 .1 10 0 15-.05 3.38-1.76 5.43-5.26 5.16-6.45-.5-13 1.23-19.4-.92a5.57 5.57 0 0 0-6.6 2.26 88 88 0 0 0-5.44 7.71c-1.43 2.58-3.1 3.89-5.89 2.56-2.45-1.16-3.45.67-4.36 2.07-.91 1.4-.49 2.41 1.49 3.22 2.46 1 0 2.5-.53 3.46-5.52 10.55-10.16 21.64-9.21 33.58 1.78 22.33 8.29 36.55 31.92 46.39 2.51 1 4.13.74 5.55-1.3 4.72-6.76 6.8-14.64 9.23-22.34.69-2.2-1.46-3.52-3.11-4.63-5.14-3.46-10.94-5.45-16.85-7-3.28-.86-4.26-2.55-3.64-5.69.94-4.7.71-9.6 2.76-14.1 2.52-5.55 6-7.54 11.94-6.09 11.07 2.71 22.08 5.72 33.18 8.33 3.19.75 3.33 1.93 3.14 5-.68 11.23-2.11 22.49-3.5 33.53-1.9 15.15-4.88 30.64-12.41 44.52-4.92 9.07-9.75 11.16-19.59 8.34-7-2-14-4-20.86-6.23-6-2-10.26-6.63-14.82-10.68-14-12.43-24.22-27.08-27.78-45.93-1-5.29 1.24-10.38-.21-15.6-2.06-7.41-.79-14.85-.31-22.41 1-15.9 7.65-29.33 16-42.17 10.48-16 24.9-25 44.25-23.63z" id="path40" fill="#fefefe"/><path class="cls-9" d="M110.279 102.119c-1.18 0-2.41.11-3.18-1-2.59-3.68-6-3.31-9.75-2.28-3.31.91-6.52 0-9.7-1.11-5.61-2-11.25-3.88-17-5.54-2.51-.74-3-2-2.4-4.3 1.69-7 6.59-10.17 13.52-8.7 12.26 2.59 24.2 6.67 36.74 8a3.56 3.56 0 0 1 3.49 4.05c-.21 4.26-7.46 10.89-11.72 10.88zm-31.95-76.23c-3.5.53-6.8-.12-10-.78-8.24-1.68-15.5 1.88-23.1 3.79-1.06.27-2.76 2.17-3.79 0-.71-1.52.76-2.32 1.74-3.21 7.27-6.6 14.63-13.31 24.5-15.5 9.28-2.06 18.81-1.64 28.15.12 4.16.79 4.73 3.5 1.89 6.89-5.11 6.09-11.25 9.81-19.39 8.69z" id="path42" fill="#fefefe"/><path d="M105.069 173.759c-2.14-9.7 3.16-18.12 4.7-27.19 1.13-6.62 3-12.89 2.91-20-.15-8.4 3.54-16.67 8.07-24.08 1-1.64 2.72-4 4.6-3 1.88 1 2.17 3.8 1.61 6.24-2.2 9.65-5.81 19.26-6.13 29-.48 14.58-6.64 26.7-12.82 39.08a15.94 15.94 0 0 1-1.75 2.33c-2.04.03-1.4-1.28-1.19-2.38zm-65.39-64.61c.84-2.32-1.28-6.12 1.41-6.56 2.46-.4 2.74 3.49 3.32 5.8 1.44 5.75 1.43 12.43 4.53 17 3.1 4.57 9.2 6.72 13.88 10.11a55.59 55.59 0 0 1 5.11 4.74c3 2.8 2.61 5.56.4 8.78-2.21 3.22-4.37 3.22-8 2.12-6.16-1.87-9.78-5.87-12.38-11.29-4.67-9.73-7.76-19.9-8.27-30.7z" id="path44" fill="#fdfdfd"/><path class="cls-10" d="M107.589 17.369c2.29 12.58-.31 23.76-9.62 32.92-8.55-9.53-3.55-26.72 9.62-32.92z" id="path46" fill="#fcfcfc"/><path d="M105.069 173.759c.23.88.24 1.88 1.19 2.41-.27 1-1.32 2.27-1.77 1.63a3.29 3.29 0 0 1 .58-4.04z" id="path48" fill="#ebebeb"/><path class="cls-9" d="M165.279 109.369c-.12-10.21.37-19.3 2.94-28.17 1-3.57 2.53-7 6.23-8.5 2.21-.9 2-2.29 1.46-4-1.49-4.27-.42-7.93 1.94-11.69 4.59-7.34 9.29-14.53 15.52-20.65 6.23-6.12 13.64-9.77 22.77-9.11 12.11.87 24 2.69 35 8.09 17.36 8.47 25.59 23.31 29 41.5 1.78 9.6 3.5 19.21 4.88 28.88 1 6.83-1.18 13.52-1.85 20.28-1.09 11.05-2.23 22.11-3.77 33.11-2.35 16.78-12.35 27.77-27.36 34.62-16.21 7.41-32.91 8.12-49.93 3.33a23 23 0 0 1-12.73-8.9c-13.81-18.79-21.13-39.86-23.22-63a152.07 152.07 0 0 1-.88-15.79z" id="path50" fill="#fefefe"/><path class="cls-9" d="M195.349 23.799a32.5 32.5 0 0 1 21.83-14.33c15.46-3 31.38-2.56 45.39 4.35 20.15 9.94 33.5 26.59 38.57 49 1.09 4.82 2.84 10.26 1.63 14.69-3 10.82-.57 21.71-2.06 32.49-1.31 9.51-2.09 19.09-5.59 28.13-1 2.69-2.08 5.47-4.65 8.13-.48-5 .38-9.38.49-13.75.42-16 1.29-31.91-.55-47.85-3.64-31.57-20.76-51.22-51.14-60.79-14.99-4.73-29.16-3.58-43.92-.07z" id="path52" fill="#fefefe"/><path d="M582.279 115.839c0-12.75-1.06-25.61 4-37.83 1-2.44 2.06-4.86 3.15-7.26 6.21-13.67 26.11-11.86 32.77-2.91 5.28 7.11 8.9 15.19 9.43 23.71 1 16 .81 32.15.55 48.21-.1 6.26-2.58 12.22-5 18-6.82 16.19-25.84 13.9-33.7 4.55-6.86-8.17-11-17.61-11.11-28.52-.17-5.95-.09-11.95-.09-17.95zm-382 .45c0-12.92-1.1-26 4-38.33 1-2.44 2.08-4.85 3.17-7.25 6.15-13.49 25.83-11.72 32.46-3.13 5.53 7.16 9.16 15.43 9.73 24.1 1 15.85.91 31.82.5 47.72-.2 7.93-3.18 15.42-7.28 22.39-6.55 11.11-24.2 9.57-31.51.55-6.72-8.29-11-17.63-11-28.56-.07-5.87-.07-11.7-.07-17.49z" id="path56"/><path class="cls-9" d="M600.209 91.189a335.3 335.3 0 0 0 2.15 38.29c1 9.51 6.34 17.24 12.34 24.48.85 1 3.61 1.91 1.85 3.83-1.76 1.92-2.81 4.73-6.73 3.92-6.67-1.39-11.53-4.7-14.65-10.71a44.64 44.64 0 0 1-4.76-19.06c-.49-11.59.61-23.19-1-34.83-.91-6.53 1.76-13 4.56-19.06.88-1.91 2.43-3.3 4.75-2.8 2.82.6 1.36 3 1.44 4.46.2 3.82.05 7.65.05 11.48z" id="path60" fill="#fefefe"/><path class="cls-9" d="M625.409 117.799a76.05 76.05 0 0 1-3 24.71c-1.14 4.11-3.53 3.82-5.62 1.56-5.51-6-7.51-13.1-7.93-21.39-.29-5.88.85-11.65 0-17.57a81.72 81.72 0 0 1 1.22-30.64c.41-1.68.91-3.48 2.79-3.66 2-.19 3.31 1.44 4.18 3.09 3.77 7.15 4.8 15.07 6 22.88 1.23 7.36 1.7 14.82 2.36 21.02zm-416.95.75c-.4-6.77 0-13.52-1-20.35-1.08-7.14 1.63-14 4.69-20.49.94-2 2.75-3.1 4.92-2.39s1.09 2.86 1.07 4.29c-.21 15.47.7 30.88 1.82 46.3.81 11.24 6.19 20 13 28.36.78.94 3.28 1.76 1.65 3.45-1.63 1.69-2.6 4.64-6.2 4.09-8.88-1.37-14-6.75-17.1-14.75-3.54-9.24-2.97-18.89-2.85-28.51z" id="path62" fill="#fefefe"/><path class="cls-9" d="M243.439 125.409a75.67 75.67 0 0 1-2.72 16.13c-1.37 5-3.44 5.41-7.06 1.56-3-3.22-4.29-7.33-5.61-11.46-2.11-6.66-1.79-13.37-.85-20.08.44-3.1-.82-5.89-.88-8.82-.16-8.63-.57-17.3 1.09-25.84.45-2.31.5-5.67 3.44-6 3.12-.36 4.26 2.79 5.25 5.2 3.87 9.45 4.87 19.53 6.06 29.53.77 6.55 1.64 13.13 1.28 19.78z" id="path64" fill="#fefefe"/></svg>