<svg xmlns="http://www.w3.org/2000/svg" width="693.239" height="212.381"><path d="M226.533.004c-2.84.056-5.936.644-9.004 1.154-17.07 3.13-30.4 11.57-38.4 27.57-5.46 10.94-10.31 22.311-19.08 31.231-1.64 1.67-.89 3.11.17 4.39 2.13 2.59 1.79 5.29 1.46 8.41-1.64 16-6.18 31.64-3.74 48 .53 3.53 2.88 7.89-.66 11.53a1.9 1.9 0 0 0 .39 1.82c2.39 1.45 1.98 4 2.46 6.1 2.81 12.28 6.3 24.32 12.11 35.54 7.8 15.04 18.4 27.21 36.07 29.9 9.91 1.51 20.17-.25 30.17.23 12.88.61 21.09-5.79 29.33-13.5 4.76-4.45 8.57-9.73 12.36-15 .67-.93 1.23-2.36 2.13-2.65 6.33-2.06 8.72-7.59 10.82-12.87 7.26-18.27 13.78-36.73 15.45-56.62 1.06-12.51 2.489-24.97.429-37.44-.77-4.92.09-10.12-2-14.76C291.838 19.49 267.71.81 229.279.15a17.365 17.365 0 0 0-2.746-.144V.004zM615.05.158c-5.39-.078-10.877.361-16.44 1.291-17.04 2.86-30.13 12.04-37.9 28.21-5.15 10.71-10.07 21.69-18.61 30.37-.95.97-1.51 2.14-.68 3.07 4.88 5.44 1.58 11.34 1.09 17.06-1.13 13.17-4.68 26.11-2.68 39.61.58 3.9 3.02 8.52-.55 12.52a1.88 1.88 0 0 0 .43 1.76c2.48 1.58 2.03 4.29 2.57 6.58 3.6 15.34 8.09 30.35 17 43.62 7.61 11.34 17.62 19.76 31.45 21.51 9.79 1.24 19.93-.35 29.7.18 13.76.75 22.27-6.56 30.7-14.94 4.08-4.082 7.36-8.98 11-13.52.72-.9 1.2-2.37 2.1-2.68 6.63-2.28 8.75-8.22 11.29-13.73 5.32-11.6 8.59-23.89 11.75-36.2 1.43-5.59 3.24-11.18 3.78-16.88.63-6.55-.38-13.25 1.32-19.77.99-1.93-.38-4.18.84-6.03v-1c-1.7-3.07-1.65-6.49-2-9.84-.61-5.94.06-12.25-2.21-17.73-6.232-15.09-15.26-28.38-28.59-38.17C646.523 5.272 631.22.392 615.048.16V.158zM80.569 2.162C64.433 1.95 50.31 8.552 37.528 20.35 23.7 33.11 15.8 49.359 9.23 66.479c-4.8 12.54-9.7 25.01-9.16 40.54-.39 4.27 1 10.17 1.15 16.09.67 25.11 12.78 45.11 29.67 62.11 12.75 12.85 29.87 18.03 47.48 20.66 4.05.6 8.82-.04 12.31-2.92 15.22-12.57 25.61-28.48 31.81-47.15a114 114 0 0 0 5.75-26.08c.95-10.68 4.55-21.26 5.73-32.15.96-8.95-.4-11.51-8.85-14.51-15.02-5.31-30.69-7.93-46.25-11a5 5 0 0 0-4.66 1c-6.47 5.73-13.15 11.2-18.41 18.2-1.28 1.69-.55 4.96-3.84 5.1.14-2.15.23-4.29.4-6.43 1-12.47 7.26-20.071 18.88-23.191 4.29-1.16 8.63-.729 12.9-.539 5.62.25 9.99-1.84 13.82-5.61 5.95-5.87 10.71-12.67 15.48-19.48 1.98-2.82 3.22-5.4 2.15-9.13a17.93 17.93 0 0 1-.13-9.35c2.62-10.17-3.43-18.23-13.94-18.66-2.31-.06-4.73.53-6.91 0-4.848-1.164-9.523-1.757-14.04-1.817h-.002zm405.679 1.104a44.745 44.745 0 0 0-2.35.004c-25.6.71-51.18 1.869-76.77 2.869-4.57.18-9.27.53-12.33 4.29-10.87 13.35-20.33 27.53-20.4 45.6-.03 8.25.702 16.59 3.782 24.45 1.13 2.87 2.5 5.65 6.19 5.44a60.73 60.73 0 0 0 10.878-1.23c8.61-2.1 12.61 1.36 15.8 9 2.98 7.11 3.58 14.77 2.83 22.48-.27 2.8-.748 5.55-.368 8.43 1.99 15.31 3.709 30.65 5.789 45.94 1.63 11.97 3.24 23.95 6.71 35.59 1.03 3.47 2.95 4.92 6.35 5 7.65.19 15.24 1.7 22.92 1.06a60.33 60.33 0 0 1 7.49.04c7.67.97 12.61-2.79 16.4-8.88 5.31-8.51 8.45-17.9 11.13-27.46 1.97-7 4.75-14.01 4.75-21.23.01-9.43-1.53-18.86-2.34-28.3-1.15-13.42-2.23-26.83-3.35-40.25a4.61 4.61 0 0 1 1.22-4.09c8.71-8.58 13.17-19.78 18.71-30.35 7.58-14.44 2.92-28.25-1.72-42.1-.74-2.22-2.23-4.2-4.84-4.5-5.487-.63-10.996-1.673-16.481-1.803zm-251.607 4.44c9.669.003 19.17 1.792 27.927 6.112 20.15 9.94 33.5 26.59 38.57 49 1.09 4.82 2.842 10.262 1.632 14.692-3 10.82-.571 21.707-2.061 32.488-1.31 9.51-2.09 19.09-5.59 28.13-1 2.69-2.08 5.472-4.65 8.132-.48-5 .38-9.38.49-13.75.42-16 1.29-31.912-.55-47.852-3.64-31.57-20.76-51.219-51.14-60.789-14.99-4.73-29.16-3.58-43.92-.07a32.5 32.5 0 0 1 21.83-14.33c5.798-1.125 11.66-1.766 17.462-1.764zm376.234.392c3.528-.061 7.073.131 10.613.431 7.07.6 14.382 1.15 20.852 4.24 21.39 10.23 35.15 27 40.76 50.07 1.16 4.8 2.848 10.26 1.638 14.69-3 10.82-.568 21.71-2.058 32.49-1.31 9.51-2.09 19.09-5.59 28.14a22.69 22.69 0 0 1-5.182 8.67 370.9 370.9 0 0 0 1.22-55.26c-1.11-22-7.999-41.77-26.519-55.46-13.06-9.65-28.44-14.43-44.26-16.06-8-.83-16.53 2.4-25.86 4a37.15 37.15 0 0 1 17-12.85c5.674-2.194 11.506-3 17.386-3.101zm-529.143.718c4.71.068 9.426.613 14.096 1.493 4.16.79 4.73 3.5 1.89 6.89-5.11 6.09-11.25 9.81-19.39 8.69-3.5.53-6.8-.12-10-.78-8.24-1.68-15.5 1.88-23.1 3.79-1.06.27-2.759 2.17-3.789 0-.71-1.52.76-2.32 1.74-3.21 7.27-6.6 14.63-13.31 24.5-15.5 4.64-1.03 9.343-1.44 14.053-1.373zm373.028 5.252a248.53 248.53 0 0 1 8.02.131c8.18 0 15.33.11 22.48 0 3.89-.07 4.698.47 3.568 4.92-1.93 7.6-6.73 9.34-13.5 10.08-25.6 2.81-51.3 3.58-77 4.43-4.38.14-4.768-1.94-3.648-5.15 1.29-3.71 4.36-5.72 7.77-7.24 8.75-3.89 18.14-4.94 27.5-5.93a248.53 248.53 0 0 1 24.81-1.24zM107.59 17.37c2.29 12.58-.311 23.76-9.621 32.92-8.55-9.53-3.55-26.72 9.62-32.92zm391.244 5.697a3 3 0 0 1 .994.194c1.4.4 1.251 1.77 1.371 2.91.37 3.79.78 7.59 1.19 11.48.61 4.56-.91 8.69-3.1 12.66a3.6 3.6 0 0 1-3.74 1.89c-2-.14-1.84-1.87-1.83-3 0-6.56-3-13.09-.35-19.65a32.83 32.83 0 0 1 2.91-5.16 3 3 0 0 1 2.555-1.324zm-284.387 4.112a29.289 29.289 0 0 1 1.692.07c12.11.87 24 2.694 35 8.094 17.36 8.47 25.59 23.31 29 41.5 1.78 9.6 3.5 19.207 4.88 28.877 1 6.83-1.18 13.52-1.85 20.28-1.09 11.049-2.23 22.11-3.77 33.11-2.35 16.78-12.35 27.771-27.36 34.621-16.21 7.41-32.91 8.12-49.93 3.33a23 23 0 0 1-12.73-8.9c-13.81-18.79-21.13-39.86-23.22-63a152.07 152.07 0 0 1-.88-15.79c-.12-10.21.37-19.3 2.94-28.17 1-3.57 2.53-7 6.23-8.5 2.21-.9 2-2.29 1.46-4-1.49-4.27-.42-7.93 1.94-11.69 4.59-7.34 9.29-14.53 15.52-20.65 5.841-5.738 12.718-9.302 21.078-9.182zm381.38.064a28.47 28.47 0 0 1 1.622.059c12.29.78 24.328 2.54 35.55 8 17.529 8.54 25.89 23.449 29.18 41.879 1.68 9.45 3.46 18.89 4.83 28.38 1 6.83-1.18 13.52-1.83 20.28a1331.8 1331.8 0 0 1-3.44 31.67c-2.61 21.53-16.68 33.22-36.3 39.56-13.91 4.5-27.79 3.66-41.63 0a22.07 22.07 0 0 1-12.32-8.66c-13.92-18.93-21.32-40.13-23.35-63.43-.48-5.52-.86-10.98-.86-16.47-.12-9.15.38-18.24 2.91-27.12 1.08-3.77 2.64-7.25 6.54-8.83 2-.83 1.74-2.24 1.23-3.61-1.74-4.69-.19-8.58 2.31-12.58 4.51-7.19 9.17-14.22 15.33-20.17 5.776-5.578 12.217-9.012 20.227-8.958zM81.132 30.37c2.834-.05 7.317 5.002 7.457 8.602.17 5 .1 10 0 15-.05 3.38-1.764 5.43-5.264 5.16-6.45-.5-12.996 1.23-19.396-.92a5.57 5.57 0 0 0-6.604 2.26 88 88 0 0 0-5.44 7.709c-1.43 2.58-3.1 3.89-5.89 2.56-2.45-1.16-3.447.67-4.357 2.07-.91 1.4-.49 2.41 1.49 3.22 2.46 1-.001 2.5-.531 3.46-5.52 10.55-10.16 21.64-9.21 33.58 1.78 22.33 8.29 36.55 31.92 46.39 2.51 1 4.131.74 5.551-1.3 4.72-6.76 6.8-14.64 9.23-22.34.69-2.2-1.462-3.52-3.112-4.63-5.14-3.46-10.94-5.45-16.85-7-3.28-.86-4.26-2.55-3.64-5.69.94-4.7.71-9.6 2.76-14.1 2.52-5.55 6-7.54 11.94-6.09 11.07 2.71 22.08 5.72 33.18 8.33 3.19.75 3.33 1.93 3.14 5-.68 11.23-2.11 22.49-3.5 33.53-1.9 15.15-4.88 30.64-12.41 44.52-4.92 9.07-9.75 11.16-19.59 8.34-7-2-13.999-4-20.859-6.23-6-2-10.26-6.63-14.82-10.68-14-12.43-24.22-27.08-27.78-45.93-1-5.29 1.242-10.38-.208-15.6-2.06-7.41-.79-14.85-.31-22.41 1-15.9 7.65-29.33 16-42.17 10.48-16 24.9-25 44.25-23.63 4.38-.26 8.35.25 12.31-.93.173-.05.353-.078.543-.08zm372.902 9.559c6.908.04 13.82.32 20.725 1.07 3.67.4 6 1.891 7.33 4.941 2.76 6.52 3.426 13.46 3.146 20.48-.11 2.67-2.167 3.3-4.457 3.7-6.85 1.22-13.63 2.89-20.51 3.74-3.2.39-3.29 1.711-3 4.121 1.17 11.74 2.217 23.48 3.387 35.22 1.5 15.05 3.1 30.08 4.59 45.13 1.201 12.06 2.002 24.18 3.572 36.2.56 4.39-1.18 6.35-4.68 7.33a54 54 0 0 1-16.41 2.29c-9.85.06-10.15.15-12.84-9a248.68 248.68 0 0 1-9.699-52.14c-1.49-20-2-40.13-5.84-59.93-1-4.92-2.6-7.59-8.34-7.16-6.1.46-12.293-.39-18.443-.36-3.37 0-5.42-1.3-6.24-4.43-2.09-8-1.54-16.16-1-24.29.13-2 1.74-1.58 3-1.8a308.68 308.68 0 0 1 45-4.73c6.895-.22 13.802-.422 20.71-.382zM233.58 72.627c1.051 1.065 1.682 2.73 2.262 4.143a55.477 55.477 0 0 1 .002 0c-.58-1.413-1.213-3.078-2.264-4.143zm2.955 5.922c1.101 2.977 1.94 6.01 2.611 9.08-.67-3.07-1.51-6.103-2.61-9.08zm2.611 9.08zm377.557-14.344c.123.202.237.408.346.613a35.992 35.992 0 0 1 .002 0 11.483 11.483 0 0 0-.348-.613zM78.971 78.842a15.694 15.694 0 0 1 2.8.347c12.26 2.59 24.2 6.67 36.74 8a3.56 3.56 0 0 1 3.487 4.05c-.21 4.26-7.457 10.89-11.717 10.88-1.18 0-2.41.11-3.18-1-2.59-3.68-6-3.31-9.75-2.28-3.31.91-6.523 0-9.703-1.11-5.61-2-11.25-3.88-17-5.54-2.51-.74-3-2-2.4-4.3 1.374-5.688 4.867-8.847 9.846-9.043.287-.012.58-.013.877-.004zm540.437.549zm1.606 5.7c.878 3.851 1.435 7.783 2.035 11.688a119.898 119.898 0 0 1 .002 0c-.6-3.905-1.159-7.837-2.037-11.687zm2.463 14.45zm.966 8.184c.354 3.56.635 6.974.965 10.074a76.05 76.05 0 0 1-.855 15.16 76.05 76.05 0 0 0 .857-15.16c-.33-3.1-.613-6.514-.967-10.074zm.11 25.234a76.05 76.05 0 0 1-2.145 9.55 9.903 9.903 0 0 1 .002 0 76.05 76.05 0 0 0 2.143-9.55zm-2.371 10.27zm-.536 1.144zM472.72 81.422c2.918.01 4.434 2.56 5.29 5.387 3 9.9 3.801 20.19 4.891 30.39 1.21 11.09 1.68 22.21 2.61 35.57 1.89 7.51-4.16 15.24-6.67 23.84-.21.69-.63 1.64-1.73 1.42-1.1-.22-.782-1.27-.862-2-1.67-15.52-3.36-31-5-46.58-1.4-13.55-2.588-27.12-4.098-40.65-.41-3.75.77-6.44 4.23-7.22a5.902 5.902 0 0 1 1.339-.157zM124.434 99.25a1.91 1.91 0 0 1 .916.238c1.88 1 2.169 3.8 1.609 6.24-2.2 9.65-5.81 19.26-6.13 29-.48 14.58-6.64 26.7-12.82 39.08a15.94 15.94 0 0 1-1.75 2.33c-2.04.03-1.4-1.278-1.19-2.378-2.14-9.7 3.16-18.122 4.7-27.192 1.13-6.62 3-12.89 2.91-20-.15-8.4 3.54-16.67 8.07-24.08.812-1.332 2.1-3.14 3.564-3.234a1.91 1.91 0 0 1 .12-.004zm-82.909 3.313c2.06.105 2.338 3.66 2.883 5.826 1.44 5.75 1.431 12.43 4.531 17 3.1 4.57 9.2 6.718 13.88 10.11a55.59 55.59 0 0 1 5.11 4.74c3 2.8 2.61 5.56.4 8.78-2.21 3.22-4.37 3.22-8 2.12-6.16-1.87-9.78-5.87-12.38-11.29-4.67-9.73-7.76-19.9-8.27-30.7.84-2.32-1.28-6.12 1.41-6.56a2.052 2.052 0 0 1 .436-.026zm200.377 3.736c.482 4.094 1.002 8.199 1.237 12.326-.235-4.127-.755-8.232-1.237-12.326zm1.34 14.806a62.12 62.12 0 0 1-.06 4.975 75.67 75.67 0 0 1-.82 7.52 75.67 75.67 0 0 0 .822-7.52c.09-1.662.101-3.32.058-4.975zm-2.449 19.893a75.67 75.67 0 0 1-.332 1.211c-.257.937-.538 1.713-.85 2.33.312-.617.595-1.393.852-2.33a75.67 75.67 0 0 0 .33-1.21zm-1.182 3.541z" fill="#fff"/><path d="M605.645 60.81c-6.584.139-13.11 3.103-16.215 9.938a212.09 212.09 0 0 0-3.15 7.262c-5.06 12.22-4 25.08-4 37.83 0 6-.08 12 .09 17.95.11 10.91 4.249 20.349 11.109 28.519 7.86 9.35 26.88 11.64 33.7-4.55 2.42-5.78 4.9-11.74 5-18 .26-16.06.45-32.21-.55-48.21-.53-8.52-4.15-16.6-9.43-23.71-3.33-4.473-9.97-7.166-16.554-7.028zm-382.147.053c-6.517.17-12.974 3.101-16.049 9.846-1.09 2.4-2.17 4.81-3.17 7.25-5.1 12.33-4 25.41-4 38.33 0 5.79 0 11.62.07 17.49 0 10.93 4.28 20.27 11 28.56 7.31 9.02 24.96 10.56 31.51-.55 4.1-6.97 7.08-14.46 7.28-22.39.41-15.9.5-31.87-.5-47.72-.57-8.67-4.2-16.94-9.73-24.1-3.317-4.297-9.894-6.886-16.41-6.716zM612.87 70.81c2-.19 3.31 1.44 4.18 3.09 3.77 7.15 4.8 15.07 6 22.88 1.23 7.36 1.7 14.82 2.36 21.02a76.05 76.05 0 0 1-3 24.71c-1.14 4.11-3.53 3.82-5.62 1.56-5.51-6-7.51-13.1-7.93-21.39-.29-5.88.85-11.65 0-17.57a81.72 81.72 0 0 1 1.22-30.64c.41-1.68.91-3.48 2.79-3.66zm-381.715.734c.172.004.338.019.496.045.08.013.155.036.23.055.08.018.158.032.233.056.078.025.15.058.225.088.069.028.139.054.205.086.067.032.131.069.195.106.07.039.137.079.203.123.062.04.121.086.18.13.062.047.125.093.184.143.035.03.067.063.101.094.153.139.29.3.426.463.086.102.175.2.256.308.11.151.211.314.312.477.074.118.15.23.22.353.098.178.191.362.282.547.055.11.113.215.164.326.285.612.535 1.24.776 1.827 2.419 5.906 3.717 12.058 4.64 18.283.555 3.735.974 7.496 1.42 11.246.385 3.275.794 6.558 1.063 9.853.269 3.295.397 6.603.217 9.928a75.67 75.67 0 0 1-2.389 14.918 75.67 75.67 0 0 1-.332 1.211c-.086.312-.174.608-.266.885a10.577 10.577 0 0 1-.584 1.445c-.52 1.03-1.122 1.616-1.836 1.77-.428.092-.895.03-1.408-.188a5.517 5.517 0 0 1-1.086-.637h-.002a9.813 9.813 0 0 1-.59-.47h-.001a16.74 16.74 0 0 1-1.286-1.244c-1.125-1.208-2.01-2.54-2.746-3.954a25.57 25.57 0 0 1-.69-1.435 33.064 33.064 0 0 1-.61-1.48 47.404 47.404 0 0 1-.553-1.51v-.002c-.354-1.017-.682-2.048-1.012-3.08a31.512 31.512 0 0 1-.367-1.25c-.028-.105-.051-.209-.078-.313a32.937 32.937 0 0 1-.62-2.967c-.025-.158-.064-.316-.09-.474a36.575 36.575 0 0 1-.288-2.506c-.34-4.182.006-8.375.593-12.569a9.38 9.38 0 0 0 .092-1.148v-.002a11.32 11.32 0 0 0-.035-1.123v-.002a21.06 21.06 0 0 0-.309-2.2c-.267-1.45-.598-2.88-.628-4.345-.06-3.236-.155-6.478-.163-9.717a151.73 151.73 0 0 1 .026-3.236v-.002c.02-1.078.057-2.154.111-3.23v-.002c.163-3.23.495-6.45 1.117-9.653.225-1.154.35-2.572.786-3.742v-.002c.218-.585.514-1.106.939-1.504.213-.198.457-.366.74-.494.284-.128.607-.216.975-.258.195-.022.382-.03.562-.027zm-15.636 3.568c.49-.034 1.008.03 1.55.207 2.17.71 1.09 2.861 1.07 4.291-.21 15.47.701 30.88 1.821 46.3.81 11.24 6.19 20 13 28.36.78.94 3.28 1.76 1.65 3.45-1.63 1.69-2.6 4.64-6.2 4.09-8.88-1.37-14-6.75-17.1-14.75-3.54-9.24-2.97-18.89-2.85-28.51-.4-6.77 0-13.52-1-20.35-1.08-7.14 1.63-14 4.69-20.49.704-1.5 1.9-2.494 3.369-2.598zm382.367.035c.266.007.544.04.834.102 2.82.6 1.36 3.001 1.44 4.461.2 3.82.05 7.65.05 11.48a335.3 335.3 0 0 0 2.15 38.29c1 9.51 6.34 17.24 12.34 24.48.85 1 3.61 1.91 1.85 3.83-1.76 1.92-2.81 4.73-6.73 3.92-6.67-1.39-11.53-4.701-14.65-10.71a44.64 44.64 0 0 1-4.76-19.06c-.49-11.59.61-23.19-1-34.83-.91-6.53 1.76-13 4.56-19.06.77-1.671 2.053-2.945 3.916-2.903z" fill="#fff"/></svg>