<?xml version="1.0" encoding="UTF-8" standalone="no"?>
<svg
   xmlns:dc="http://purl.org/dc/elements/1.1/"
   xmlns:cc="http://creativecommons.org/ns#"
   xmlns:rdf="http://www.w3.org/1999/02/22-rdf-syntax-ns#"
   xmlns:svg="http://www.w3.org/2000/svg"
   xmlns="http://www.w3.org/2000/svg"
   xmlns:sodipodi="http://sodipodi.sourceforge.net/DTD/sodipodi-0.dtd"
   xmlns:inkscape="http://www.inkscape.org/namespaces/inkscape"
   id="Layer_1"
   data-name="Layer 1"
   viewBox="0 0 693.23877 212.3807"
   version="1.1"
   sodipodi:docname="goto.svg"
   inkscape:version="0.92.3 (2405546, 2018-03-11)"
   width="693.23877"
   height="212.38071">
  <metadata
     id="metadata69">
    <rdf:RDF>
      <cc:Work
         rdf:about="">
        <dc:format>image/svg+xml</dc:format>
        <dc:type
           rdf:resource="http://purl.org/dc/dcmitype/StillImage" />
        <dc:title></dc:title>
      </cc:Work>
    </rdf:RDF>
  </metadata>
  <sodipodi:namedview
     pagecolor="#ffffff"
     bordercolor="#666666"
     borderopacity="1"
     objecttolerance="10"
     gridtolerance="10"
     guidetolerance="10"
     inkscape:pageopacity="0"
     inkscape:pageshadow="2"
     inkscape:window-width="2560"
     inkscape:window-height="1385"
     id="namedview67"
     showgrid="false"
     inkscape:zoom="1.3861386"
     inkscape:cx="131.97668"
     inkscape:cy="78.17761"
     inkscape:window-x="0"
     inkscape:window-y="27"
     inkscape:window-maximized="1"
     inkscape:current-layer="Layer_1"
     fit-margin-top="0"
     fit-margin-left="0"
     fit-margin-right="0"
     fit-margin-bottom="0" />
  <defs
     id="defs4">
    <style
       id="style2">.cls-2{fill:#b6937f}.cls-4{fill:#dfdddb}.cls-9{fill:#fefefe}.cls-10{fill:#fcfcfc}</style>
  </defs>
  <path
     d="m 692.36874,88.218826 c -1.7,6.52 -0.69,13.220004 -1.32,19.770004 -0.54,5.7 -2.35,11.29 -3.78,16.88 -3.16,12.31 -6.43,24.6 -11.75,36.2 -2.54,5.51 -4.66,11.45 -11.29,13.73 -0.9,0.31 -1.38,1.78 -2.1,2.68 -3.64,4.54 -6.92,9.44 -11,13.52 -8.43,8.38 -16.94,15.69 -30.7,14.94 -9.77,-0.53 -19.91,1.06 -29.7,-0.18 -13.83,-1.75 -23.84,-10.17 -31.45,-21.51 -8.91,-13.27 -13.4,-28.28 -17,-43.62 -0.54,-2.29 -0.09,-5 -2.57,-6.58 a 1.88,1.88 0 0 1 -0.43,-1.76 c 3.57,-4 1.13,-8.62 0.55,-12.52 -2,-13.5 1.55,-26.440004 2.68,-39.610004 0.49,-5.72 3.79,-11.62 -1.09,-17.06 -0.83,-0.93 -0.27,-2.1 0.68,-3.07 8.54,-8.68 13.46,-19.66 18.61,-30.37 7.77,-16.17 20.86,-25.3500001 37.9,-28.2100001 22.25,-3.72 43.29,0.43 61.8,14.0000001 13.33,9.79 22.36,23.08 28.59,38.17 2.27,5.48 1.6,11.79 2.21,17.73 0.35,3.35 0.3,6.77 2,9.84 v 1 c -1.22,1.85 0.15,4.1 -0.84,6.03 z"
     id="path8"
     inkscape:connector-curvature="0" />
  <path
     d="m 692.36874,88.218826 c 0.66,-2 -1.53,-4.34 0.87,-6.06 v 6 a 6.36,6.36 0 0 1 -0.87,0.06 z"
     id="path12"
     inkscape:connector-curvature="0"
     style="fill:#a3a3a3" />
  <path
     d="m 455.27874,212.18883 c -7.68,0.64 -15.27,-0.87 -22.92,-1.06 -3.4,-0.08 -5.32,-1.53 -6.35,-5 -3.47,-11.64 -5.08,-23.62 -6.71,-35.59 -2.08,-15.29 -3.8,-30.63 -5.79,-45.94 -0.38,-2.88 0.1,-5.63 0.37,-8.43 0.75,-7.71 0.15,-15.37 -2.83,-22.480004 -3.19,-7.64 -7.19,-11.1 -15.8,-9 a 60.73,60.73 0 0 1 -10.88,1.23 c -3.69,0.21 -5.06,-2.57 -6.19,-5.44 -3.08,-7.86 -3.81,-16.2 -3.78,-24.45 0.07,-18.07 9.53,-32.25 20.4,-45.6 3.06,-3.7600001 7.76,-4.1100001 12.33,-4.2900001 25.59,-1 51.17,-2.16 76.77,-2.87 6.26,-0.18 12.56,1.08 18.83,1.8 2.61,0.3 4.1,2.28 4.84,4.5 4.64,13.8500001 9.3,27.6600001 1.72,42.1000001 -5.54,10.57 -10,21.77 -18.71,30.35 a 4.61,4.61 0 0 0 -1.22,4.09 c 1.12,13.42 2.2,26.830004 3.35,40.250004 0.81,9.44 2.35,18.87 2.34,28.3 0,7.22 -2.78,14.23 -4.75,21.23 -2.68,9.56 -5.82,18.95 -11.13,27.46 -3.79,6.09 -8.73,9.85 -16.4,8.88 a 60.33,60.33 0 0 0 -7.49,-0.04 z M 0.06874351,107.01883 c -0.54,-15.530004 4.35999999,-28.000004 9.15999999,-40.540004 6.5700005,-17.12 14.4700005,-33.37 28.3000005,-46.13 16.36,-15.1000001 34.92,-21.6900001 57.08,-16.3700001 2.18,0.53 4.6,-0.06 6.909996,0 10.51,0.43 16.56,8.4900001 13.94,18.6600001 a 17.93,17.93 0 0 0 0.13,9.35 c 1.07,3.73 -0.17,6.31 -2.15,9.13 -4.77,6.81 -9.53,13.61 -15.479996,19.48 -3.83,3.77 -8.2,5.86 -13.82,5.61 -4.27,-0.19 -8.61,-0.62 -12.9,0.54 -11.62,3.12 -17.88,10.72 -18.88,23.19 -0.17,2.14 -0.26,4.28 -0.4,6.43 3.29,-0.14 2.56,-3.41 3.84,-5.1 5.26,-7 11.94,-12.47 18.41,-18.2 a 5,5 0 0 1 4.66,-1 c 15.56,3.07 31.229996,5.69 46.249996,11 8.45,3 9.81,5.56 8.85,14.51 -1.18,10.890004 -4.78,21.470004 -5.73,32.150004 a 114,114 0 0 1 -5.75,26.08 c -6.2,18.67 -16.59,34.58 -31.809996,47.15 -3.49,2.88 -8.26,3.52 -12.31,2.92 -17.61,-2.63 -34.73,-7.81 -47.48,-20.66 -16.89,-17 -29.0000005,-37 -29.6700005,-62.11 -0.15,-5.92 -1.53999999,-11.82 -1.14999999,-16.09 z M 229.27874,0.14882592 c 38.43,0.66 62.56,19.34000008 77.72,52.89000008 2.09,4.64 1.23,9.84 2,14.76 2.06,12.47 0.63,24.93 -0.43,37.440004 -1.67,19.89 -8.19,38.35 -15.45,56.62 -2.1,5.28 -4.49,10.81 -10.82,12.87 -0.9,0.29 -1.46,1.72 -2.13,2.65 -3.79,5.27 -7.6,10.55 -12.36,15 -8.24,7.71 -16.45,14.11 -29.33,13.5 -10,-0.48 -20.26,1.28 -30.17,-0.23 -17.67,-2.69 -28.27,-14.86 -36.07,-29.9 -5.81,-11.22 -9.3,-23.26 -12.11,-35.54 -0.48,-2.1 -0.07,-4.65 -2.46,-6.1 a 1.9,1.9 0 0 1 -0.39,-1.82 c 3.54,-3.64 1.19,-8 0.66,-11.53 -2.44,-16.36 2.1,-32.000004 3.74,-48.000004 0.33,-3.12 0.67,-5.82 -1.46,-8.41 -1.06,-1.28 -1.81,-2.72 -0.17,-4.39 8.77,-8.92 13.62,-20.29 19.08,-31.23 8,-16 21.33,-24.4400001 38.4,-27.5700001 4.09,-0.67999998 8.23,-1.49999998 11.75,-1.00999998 z"
     id="path14"
     inkscape:connector-curvature="0" />
  <path
     class="cls-9"
     d="m 547.27874,108.50883 c -0.12,-9.150004 0.38,-18.240004 2.91,-27.120004 1.08,-3.77 2.64,-7.25 6.54,-8.83 2,-0.83 1.74,-2.24 1.23,-3.61 -1.74,-4.69 -0.19,-8.58 2.31,-12.58 4.51,-7.19 9.17,-14.22 15.33,-20.17 6.16,-5.95 13.08,-9.46 21.85,-8.9 12.29,0.78 24.33,2.54 35.55,8 17.53,8.54 25.89,23.45 29.18,41.88 1.68,9.45 3.46,18.89 4.83,28.380004 1,6.83 -1.18,13.52 -1.83,20.28 q -1.53,15.85 -3.44,31.67 c -2.61,21.53 -16.68,33.22 -36.3,39.56 -13.91,4.5 -27.79,3.66 -41.63,0 a 22.07,22.07 0 0 1 -12.32,-8.66 c -13.92,-18.93 -21.32,-40.13 -23.35,-63.43 -0.48,-5.52 -0.86,-10.98 -0.86,-16.47 z"
     id="path32"
     inkscape:connector-curvature="0"
     style="fill:#fefefe" />
  <path
     class="cls-9"
     d="m 671.90874,146.82883 a 370.9,370.9 0 0 0 1.22,-55.260004 c -1.11,-22 -8,-41.77 -26.52,-55.46 -13.06,-9.65 -28.44,-14.43 -44.26,-16.06 -8,-0.83 -16.53,2.4 -25.86,4 a 37.15,37.15 0 0 1 17,-12.85 c 9.08,-3.5100001 18.56,-3.4700001 28,-2.6700001 7.07,0.6 14.38,1.15 20.85,4.2400001 21.39,10.23 35.15,27 40.76,50.07 1.16,4.8 2.85,10.26 1.64,14.69 -3,10.82 -0.57,21.71 -2.06,32.490004 -1.31,9.51 -2.09,19.09 -5.59,28.14 a 22.69,22.69 0 0 1 -5.18,8.67 z m -224.18,57.32 c -9.85,0.06 -10.15,0.15 -12.84,-9 a 248.68,248.68 0 0 1 -9.7,-52.14 c -1.49,-20 -2,-40.13 -5.84,-59.930004 -1,-4.92 -2.6,-7.59 -8.34,-7.16 -6.1,0.46 -12.29,-0.39 -18.44,-0.36 -3.37,0 -5.42,-1.3 -6.24,-4.43 -2.09,-8 -1.54,-16.16 -1,-24.29 0.13,-2 1.74,-1.58 3,-1.8 a 308.68,308.68 0 0 1 45,-4.73 c 13.79,-0.44 27.62,-0.81 41.43,0.69 3.67,0.4 6,1.89 7.33,4.94 2.76,6.52 3.43,13.46 3.15,20.48 -0.11,2.67 -2.17,3.3 -4.46,3.7 -6.85,1.22 -13.63,2.89 -20.51,3.74 -3.2,0.39 -3.29,1.71 -3,4.12 1.17,11.74 2.22,23.480004 3.39,35.220004 1.5,15.05 3.1,30.08 4.59,45.13 1.2,12.06 2,24.18 3.57,36.2 0.56,4.39 -1.18,6.35 -4.68,7.33 a 54,54 0 0 1 -16.41,2.29 z m 15.05,-189.950004 c 8.18,0 15.33,0.11 22.48,0 3.89,-0.07 4.7,0.47 3.57,4.92 -1.93,7.6 -6.73,9.34 -13.5,10.08 -25.6,2.81 -51.3,3.58 -77,4.43 -4.38,0.14 -4.77,-1.94 -3.65,-5.15 1.29,-3.71 4.36,-5.72 7.77,-7.24 8.75,-3.89 18.14,-4.94 27.5,-5.93 a 248.53,248.53 0 0 1 32.83,-1.11 z"
     id="path34"
     inkscape:connector-curvature="0"
     style="fill:#fefefe" />
  <path
     class="cls-9"
     d="m 485.50874,152.76883 c 1.89,7.51 -4.16,15.24 -6.67,23.84 -0.21,0.69 -0.63,1.64 -1.73,1.42 -1.1,-0.22 -0.78,-1.27 -0.86,-2 -1.67,-15.52 -3.36,-31 -5,-46.58 -1.4,-13.55 -2.59,-27.12 -4.1,-40.650004 -0.41,-3.75 0.77,-6.44 4.23,-7.22 3.81,-0.87 5.65,2 6.63,5.23 3,9.9 3.8,20.190004 4.89,30.390004 1.21,11.09 1.68,22.21 2.61,35.57 z"
     id="path36"
     inkscape:connector-curvature="0"
     style="fill:#fefefe" />
  <path
     class="cls-10"
     d="m 502.38874,37.648826 c 0.61,4.56 -0.91,8.69 -3.1,12.66 a 3.6,3.6 0 0 1 -3.74,1.89 c -2,-0.14 -1.84,-1.87 -1.83,-3 0,-6.56 -3,-13.09 -0.35,-19.65 a 32.83,32.83 0 0 1 2.91,-5.16 3,3 0 0 1 3.55,-1.13 c 1.4,0.4 1.25,1.77 1.37,2.91 0.37,3.79 0.78,7.59 1.19,11.48 z"
     id="path38"
     inkscape:connector-curvature="0"
     style="fill:#fcfcfc" />
  <path
     class="cls-9"
     d="m 68.278744,31.378826 c 4.38,-0.26 8.35,0.25 12.31,-0.93 2.76,-0.81 7.85,4.68 8,8.52 0.17,5 0.1,10 0,15 -0.05,3.38 -1.76,5.43 -5.26,5.16 -6.45,-0.5 -13,1.23 -19.4,-0.92 a 5.57,5.57 0 0 0 -6.6,2.26 88,88 0 0 0 -5.44,7.71 c -1.43,2.58 -3.1,3.89 -5.89,2.56 -2.45,-1.16 -3.45,0.67 -4.36,2.07 -0.91,1.4 -0.49,2.41 1.49,3.22 2.46,1 0,2.5 -0.53,3.46 -5.52,10.55 -10.16,21.640004 -9.21,33.580004 1.78,22.33 8.29,36.55 31.92,46.39 2.51,1 4.13,0.74 5.55,-1.3 4.72,-6.76 6.8,-14.64 9.23,-22.34 0.69,-2.2 -1.46,-3.52 -3.11,-4.63 -5.14,-3.46 -10.94,-5.45 -16.85,-7 -3.28,-0.86 -4.26,-2.55 -3.64,-5.69 0.94,-4.7 0.71,-9.6 2.76,-14.1 2.52,-5.550004 6,-7.540004 11.94,-6.090004 11.07,2.710004 22.08,5.720004 33.179996,8.330004 3.19,0.75 3.33,1.93 3.14,5 -0.68,11.23 -2.11,22.49 -3.5,33.53 -1.9,15.15 -4.879996,30.64 -12.409996,44.52 -4.92,9.07 -9.75,11.16 -19.59,8.34 -7,-2 -14,-4 -20.86,-6.23 -6,-2 -10.26,-6.63 -14.82,-10.68 -14,-12.43 -24.22,-27.08 -27.7800005,-45.93 -1,-5.29 1.24,-10.38 -0.21,-15.6 -2.06,-7.41 -0.79,-14.85 -0.31,-22.410004 1,-15.9 7.6500005,-29.33 16.0000005,-42.17 10.48,-16 24.9,-25 44.25,-23.63 z"
     id="path40"
     inkscape:connector-curvature="0"
     style="fill:#fefefe" />
  <path
     class="cls-9"
     d="m 110.27874,102.11883 c -1.18,0 -2.41,0.11 -3.18,-1 -2.59,-3.680004 -6,-3.310004 -9.749996,-2.280004 -3.31,0.91 -6.52,0 -9.7,-1.11 -5.61,-2 -11.25,-3.88 -17,-5.54 -2.51,-0.74 -3,-2 -2.4,-4.3 1.69,-7 6.59,-10.17 13.52,-8.7 12.26,2.59 24.199996,6.67 36.739996,8 a 3.56,3.56 0 0 1 3.49,4.05 c -0.21,4.26 -7.46,10.890004 -11.72,10.880004 z M 78.328744,25.888826 c -3.5,0.53 -6.8,-0.12 -10,-0.78 -8.24,-1.68 -15.5,1.88 -23.1,3.79 -1.06,0.27 -2.76,2.17 -3.79,0 -0.71,-1.52 0.76,-2.32 1.74,-3.21 7.27,-6.6 14.63,-13.31 24.5,-15.5 9.28,-2.0600001 18.81,-1.6400001 28.15,0.12 4.16,0.79 4.729996,3.5 1.89,6.89 -5.11,6.09 -11.25,9.81 -19.39,8.69 z"
     id="path42"
     inkscape:connector-curvature="0"
     style="fill:#fefefe" />
  <path
     d="m 105.06874,173.75883 c -2.14,-9.7 3.16,-18.12 4.7,-27.19 1.13,-6.62 3,-12.89 2.91,-20 -0.15,-8.4 3.54,-16.67 8.07,-24.08 1,-1.64 2.72,-4.000004 4.6,-3.000004 1.88,1.000004 2.17,3.800004 1.61,6.240004 -2.2,9.65 -5.81,19.26 -6.13,29 -0.48,14.58 -6.64,26.7 -12.82,39.08 a 15.94,15.94 0 0 1 -1.75,2.33 c -2.04,0.03 -1.4,-1.28 -1.19,-2.38 z m -65.389996,-64.61 c 0.84,-2.32 -1.28,-6.12 1.41,-6.56 2.46,-0.4 2.74,3.49 3.32,5.8 1.44,5.75 1.43,12.43 4.53,17 3.1,4.57 9.2,6.72 13.88,10.11 a 55.59,55.59 0 0 1 5.11,4.74 c 3,2.8 2.61,5.56 0.4,8.78 -2.21,3.22 -4.37,3.22 -8,2.12 -6.16,-1.87 -9.78,-5.87 -12.38,-11.29 -4.67,-9.73 -7.76,-19.9 -8.27,-30.7 z"
     id="path44"
     inkscape:connector-curvature="0"
     style="fill:#fdfdfd" />
  <path
     class="cls-10"
     d="m 107.58874,17.368826 c 2.29,12.58 -0.31,23.76 -9.619996,32.92 -8.55,-9.53 -3.55,-26.72 9.619996,-32.92 z"
     id="path46"
     inkscape:connector-curvature="0"
     style="fill:#fcfcfc" />
  <path
     d="m 105.06874,173.75883 c 0.23,0.88 0.24,1.88 1.19,2.41 -0.27,1 -1.32,2.27 -1.77,1.63 a 3.29,3.29 0 0 1 0.58,-4.04 z"
     id="path48"
     inkscape:connector-curvature="0"
     style="fill:#ebebeb" />
  <path
     class="cls-9"
     d="m 165.27874,109.36883 c -0.12,-10.210004 0.37,-19.300004 2.94,-28.170004 1,-3.57 2.53,-7 6.23,-8.5 2.21,-0.9 2,-2.29 1.46,-4 -1.49,-4.27 -0.42,-7.93 1.94,-11.69 4.59,-7.34 9.29,-14.53 15.52,-20.65 6.23,-6.12 13.64,-9.77 22.77,-9.11 12.11,0.87 24,2.69 35,8.09 17.36,8.47 25.59,23.31 29,41.5 1.78,9.6 3.5,19.21 4.88,28.880004 1,6.83 -1.18,13.52 -1.85,20.28 -1.09,11.05 -2.23,22.11 -3.77,33.11 -2.35,16.78 -12.35,27.77 -27.36,34.62 -16.21,7.41 -32.91,8.12 -49.93,3.33 a 23,23 0 0 1 -12.73,-8.9 c -13.81,-18.79 -21.13,-39.86 -23.22,-63 a 152.07,152.07 0 0 1 -0.88,-15.79 z"
     id="path50"
     inkscape:connector-curvature="0"
     style="fill:#fefefe" />
  <path
     class="cls-9"
     d="m 195.34874,23.798826 a 32.5,32.5 0 0 1 21.83,-14.3300001 c 15.46,-3 31.38,-2.56 45.39,4.3500001 20.15,9.94 33.5,26.59 38.57,49 1.09,4.82 2.84,10.26 1.63,14.69 -3,10.82 -0.57,21.71 -2.06,32.490004 -1.31,9.51 -2.09,19.09 -5.59,28.13 -1,2.69 -2.08,5.47 -4.65,8.13 -0.48,-5 0.38,-9.38 0.49,-13.75 0.42,-16 1.29,-31.91 -0.55,-47.850004 -3.64,-31.57 -20.76,-51.22 -51.14,-60.79 -14.99,-4.73 -29.16,-3.58 -43.92,-0.07 z"
     id="path52"
     inkscape:connector-curvature="0"
     style="fill:#fefefe" />
  <path
     d="m 582.27874,115.83883 c 0,-12.75 -1.06,-25.610004 4,-37.830004 1,-2.44 2.06,-4.86 3.15,-7.26 6.21,-13.67 26.11,-11.86 32.77,-2.91 5.28,7.11 8.9,15.19 9.43,23.71 1,16.000004 0.81,32.150004 0.55,48.210004 -0.1,6.26 -2.58,12.22 -5,18 -6.82,16.19 -25.84,13.9 -33.7,4.55 -6.86,-8.17 -11,-17.61 -11.11,-28.52 -0.17,-5.95 -0.09,-11.95 -0.09,-17.95 z m -382,0.45 c 0,-12.92 -1.1,-26.000004 4,-38.330004 1,-2.44 2.08,-4.85 3.17,-7.25 6.15,-13.49 25.83,-11.72 32.46,-3.13 5.53,7.16 9.16,15.43 9.73,24.1 1,15.850004 0.91,31.820004 0.5,47.720004 -0.2,7.93 -3.18,15.42 -7.28,22.39 -6.55,11.11 -24.2,9.57 -31.51,0.55 -6.72,-8.29 -11,-17.63 -11,-28.56 -0.07,-5.87 -0.07,-11.7 -0.07,-17.49 z"
     id="path56"
     inkscape:connector-curvature="0" />
  <path
     class="cls-9"
     d="m 600.20874,91.188826 a 335.3,335.3 0 0 0 2.15,38.290004 c 1,9.51 6.34,17.24 12.34,24.48 0.85,1 3.61,1.91 1.85,3.83 -1.76,1.92 -2.81,4.73 -6.73,3.92 -6.67,-1.39 -11.53,-4.7 -14.65,-10.71 a 44.64,44.64 0 0 1 -4.76,-19.06 c -0.49,-11.59 0.61,-23.19 -1,-34.830004 -0.91,-6.53 1.76,-13 4.56,-19.06 0.88,-1.91 2.43,-3.3 4.75,-2.8 2.82,0.6 1.36,3 1.44,4.46 0.2,3.82 0.05,7.65 0.05,11.48 z"
     id="path60"
     inkscape:connector-curvature="0"
     style="fill:#fefefe" />
  <path
     class="cls-9"
     d="m 625.40874,117.79883 a 76.05,76.05 0 0 1 -3,24.71 c -1.14,4.11 -3.53,3.82 -5.62,1.56 -5.51,-6 -7.51,-13.1 -7.93,-21.39 -0.29,-5.88 0.85,-11.65 0,-17.57 a 81.72,81.72 0 0 1 1.22,-30.640004 c 0.41,-1.68 0.91,-3.48 2.79,-3.66 2,-0.19 3.31,1.44 4.18,3.09 3.77,7.15 4.8,15.07 6,22.88 1.23,7.360004 1.7,14.820004 2.36,21.020004 z m -416.95,0.75 c -0.4,-6.77 0,-13.52 -1,-20.350004 -1.08,-7.14 1.63,-14 4.69,-20.49 0.94,-2 2.75,-3.1 4.92,-2.39 2.17,0.71 1.09,2.86 1.07,4.29 -0.21,15.47 0.7,30.880004 1.82,46.300004 0.81,11.24 6.19,20 13,28.36 0.78,0.94 3.28,1.76 1.65,3.45 -1.63,1.69 -2.6,4.64 -6.2,4.09 -8.88,-1.37 -14,-6.75 -17.1,-14.75 -3.54,-9.24 -2.97,-18.89 -2.85,-28.51 z"
     id="path62"
     inkscape:connector-curvature="0"
     style="fill:#fefefe" />
  <path
     class="cls-9"
     d="m 243.43874,125.40883 a 75.67,75.67 0 0 1 -2.72,16.13 c -1.37,5 -3.44,5.41 -7.06,1.56 -3,-3.22 -4.29,-7.33 -5.61,-11.46 -2.11,-6.66 -1.79,-13.37 -0.85,-20.08 0.44,-3.1 -0.82,-5.89 -0.88,-8.82 -0.16,-8.630004 -0.57,-17.300004 1.09,-25.840004 0.45,-2.31 0.5,-5.67 3.44,-6 3.12,-0.36 4.26,2.79 5.25,5.2 3.87,9.45 4.87,19.53 6.06,29.530004 0.77,6.55 1.64,13.13 1.28,19.78 z"
     id="path64"
     inkscape:connector-curvature="0"
     style="fill:#fefefe" />
</svg>
