<svg xmlns="http://www.w3.org/2000/svg" width="696.693" height="68.347"><g fill="#fff"><path d="M0 68.347L12.668.067 51.725 0l.306 42.024L59.07.094h38.87v68.253H61.288L60.6 10.806l-9.01 57.54H14.997V8.053L3.037 68.347H0m125.447-50.662c.12-.681.36-1.04.68-1.04.32 0 .56.2 1.08 1.24l10.92 22.559 10.88-22.84c.28-.64.52-.96.88-.96s.6.4.72 1.24l3.64 24.719c.36 2.52.758 3.681 1.958 4.04 1.16.361 1.962.4 2.48.4.36 0 .642.04.642.28 0 .32-.482.44-1.042.44-1 0-6.518-.12-8.118-.24-.92-.08-1.16-.2-1.16-.44 0-.2.16-.32.438-.44.242-.079.36-.6.202-1.72l-2.4-17.599h-.16l-8.72 18.16c-.92 1.88-1.12 2.239-1.48 2.239-.36 0-.76-.8-1.4-2-.96-1.84-4.12-7.96-4.6-9.08-.36-.84-2.76-5.879-4.16-8.879h-.16l-2.08 15.92c-.08.72-.12 1.24-.12 1.88 0 .76.52 1.12 1.2 1.28.72.16 1.28.2 1.68.2.32 0 .6.08.6.28 0 .36-.36.44-.96.44-1.68 0-3.48-.12-4.2-.12-.76 0-2.68.12-3.96.12-.4 0-.72-.08-.72-.44 0-.2.24-.28.64-.28.32 0 .6 0 1.2-.12 1.12-.24 1.44-1.8 1.64-3.16l3.96-26.079"/><path d="M175.837 35.324c.2 0 .24-.12.2-.24l-3.6-9.88c-.04-.16-.08-.36-.2-.36-.12 0-.2.2-.238.36l-3.682 9.84c-.04.16 0 .28.16.28zm-8.16 2c-.2 0-.28.08-.36.32l-2.158 5.72c-.402 1-.602 1.96-.602 2.44 0 .72.36 1.24 1.602 1.24h.598c.48 0 .602.08.602.32 0 .32-.242.4-.682.4-1.28 0-3-.12-4.238-.12-.44 0-2.64.12-4.72.12-.52 0-.76-.08-.76-.4 0-.24.16-.32.48-.32.36 0 .92-.04 1.24-.08 1.84-.241 2.598-1.6 3.4-3.6l10.038-25.119c.48-1.16.72-1.6 1.12-1.6.36 0 .6.359 1 1.28.96 2.199 7.36 18.519 9.92 24.599 1.52 3.6 2.68 4.16 3.52 4.36.6.12 1.2.16 1.68.16.32 0 .52.04.52.32 0 .32-.36.4-1.84.4-1.44 0-4.36 0-7.56-.08-.72-.04-1.2-.04-1.2-.32 0-.24.16-.32.56-.36.28-.08.56-.44.36-.92l-3.2-8.48c-.08-.2-.2-.28-.4-.28h-8.92"/><path d="M196.317 42.323c.08 3.12.6 4.16 1.402 4.44.678.241 1.438.28 2.078.28.44 0 .68.08.68.32 0 .32-.36.4-.92.4-2.6 0-4.198-.12-4.96-.12-.36 0-2.238.12-4.32.12-.518 0-.878-.04-.878-.4 0-.24.24-.32.64-.32.518 0 1.238-.039 1.798-.199 1.042-.32 1.2-1.48 1.242-4.96l.36-23.68c0-.8.118-1.359.518-1.359.44 0 .8.52 1.482 1.24.478.52 6.558 7.039 12.398 12.84 2.72 2.719 8.12 8.479 8.8 9.118h.2l-.4-17.958c-.04-2.44-.4-3.2-1.36-3.6-.6-.24-1.56-.24-2.12-.24-.48 0-.64-.12-.64-.36 0-.32.44-.36 1.04-.36 2.08 0 4 .12 4.84.12.44 0 1.96-.12 3.919-.12.521 0 .921.04.921.36 0 .24-.24.36-.72.36-.4 0-.72 0-1.201.12-1.119.32-1.439 1.16-1.479 3.4l-.44 25.239c0 .88-.16 1.24-.52 1.24-.44 0-.92-.44-1.36-.88-2.52-2.4-7.64-7.64-11.8-11.76-4.36-4.32-8.798-9.32-9.518-10.079h-.122l.44 16.798m37.88 0c.08 3.12.6 4.16 1.4 4.44.68.241 1.44.28 2.08.28.44 0 .68.08.68.32 0 .32-.36.4-.92.4-2.6 0-4.2-.12-4.96-.12-.36 0-2.24.12-4.32.12-.52 0-.88-.04-.88-.4 0-.24.24-.32.64-.32.52 0 1.24-.039 1.8-.199 1.04-.32 1.2-1.48 1.24-4.96l.36-23.68c0-.8.12-1.359.52-1.359.44 0 .8.52 1.48 1.24.48.52 6.56 7.039 12.4 12.84 2.72 2.719 8.119 8.479 8.799 9.118h.201l-.401-17.958c-.039-2.44-.399-3.2-1.36-3.6-.599-.24-1.56-.24-2.12-.24-.479 0-.64-.12-.64-.36 0-.32.441-.36 1.041-.36 2.079 0 3.999.12 4.84.12.439 0 1.959-.12 3.919-.12.52 0 .92.04.92.36 0 .24-.24.36-.72.36-.4 0-.72 0-1.199.12-1.121.32-1.441 1.16-1.481 3.4l-.44 25.239c0 .88-.159 1.24-.52 1.24-.44 0-.919-.44-1.36-.88-2.52-2.4-7.64-7.64-11.799-11.76-4.36-4.32-8.8-9.32-9.52-10.079h-.12l.44 16.798m35.64-13.199c0-6.08 0-7.2-.08-8.48-.08-1.36-.48-2.04-1.36-2.24-.44-.12-.96-.159-1.44-.159-.4 0-.64-.08-.64-.4 0-.24.32-.32.96-.32 1.52 0 4.04.12 5.2.12 1 0 3.359-.12 4.88-.12.52 0 .839.08.839.32 0 .32-.239.4-.64.4-.399 0-.72.04-1.199.12-1.08.2-1.4.88-1.48 2.28-.08 1.28-.08 2.4-.08 8.479v7.04c0 3.88 0 7.04.16 8.76.12 1.08.4 1.799 1.599 1.96.56.08 1.441.16 2.041.16.439 0 .64.119.64.32 0 .28-.32.4-.761.4-2.64 0-5.159-.12-6.239-.12-.92 0-3.44.12-5.04.12-.52 0-.8-.12-.8-.4 0-.201.16-.32.64-.32.6 0 1.08-.08 1.44-.16.8-.161 1.04-.84 1.16-2 .2-1.68.2-4.84.2-8.72v-7.04m20.32 13.199c.08 3.12.6 4.16 1.4 4.44.68.241 1.44.28 2.08.28.44 0 .68.08.68.32 0 .32-.36.4-.92.4-2.6 0-4.2-.12-4.96-.12-.36 0-2.24.12-4.32.12-.52 0-.88-.04-.88-.4 0-.24.24-.32.64-.32.52 0 1.24-.039 1.8-.199 1.04-.32 1.2-1.48 1.24-4.96l.36-23.68c0-.8.12-1.359.52-1.359.44 0 .8.52 1.48 1.24.48.52 6.559 7.039 12.399 12.84 2.72 2.719 8.12 8.479 8.8 9.118h.2l-.4-17.958c-.04-2.44-.4-3.2-1.36-3.6-.6-.24-1.56-.24-2.12-.24-.48 0-.64-.12-.64-.36 0-.32.44-.36 1.04-.36 2.08 0 4 .12 4.84.12.44 0 1.96-.12 3.92-.12.52 0 .92.04.92.36 0 .24-.24.36-.72.36-.4 0-.72 0-1.2.12-1.12.32-1.44 1.16-1.48 3.4l-.44 25.239c0 .88-.16 1.24-.52 1.24-.44 0-.92-.44-1.36-.88-2.52-2.4-7.64-7.64-11.799-11.76-4.36-4.32-8.8-9.32-9.52-10.079h-.12l.44 16.798m59.724 2.761c0 1.079-.041 1.16-.521 1.44-2.599 1.36-6.52 1.8-9.639 1.8-9.8 0-18.48-4.64-18.48-15.68 0-6.4 3.32-10.88 6.96-13.08 3.84-2.319 7.4-2.6 10.76-2.6 2.76 0 6.279.48 7.079.64.841.16 2.24.4 3.161.44.479.04.56.201.56.481 0 .44-.281 1.56-.281 6.56 0 .64-.12.84-.44.84-.279 0-.36-.2-.399-.521-.121-.92-.32-2.2-1.361-3.32-1.199-1.28-4.399-3.12-8.92-3.12-2.199 0-5.12.161-7.919 2.48-2.24 1.88-3.68 4.88-3.68 9.8 0 8.6 5.479 15.04 13.919 15.04 1.041 0 2.44 0 3.401-.44.599-.28.759-.8.759-1.48v-3.761c0-1.998 0-3.52-.04-4.719-.039-1.36-.4-2-1.719-2.28-.32-.08-1-.12-1.56-.12-.36 0-.601-.08-.601-.32 0-.32.281-.4.841-.4 2.079 0 4.599.12 5.799.12 1.24 0 3.36-.12 4.68-.12.521 0 .8.08.8.4 0 .24-.24.32-.52.32-.319 0-.6.04-1.079.12-1.081.2-1.481.88-1.521 2.28-.039 1.2-.039 2.8-.039 4.8v4.4m23.159-15.96c0-6.08 0-7.2-.08-8.48-.079-1.36-.4-2-1.72-2.28-.32-.08-1-.119-1.56-.119-.44 0-.68-.08-.68-.36 0-.28.28-.36.881-.36 2.119 0 4.639.12 5.759.12 1.639 0 3.96-.12 5.801-.12 4.999 0 6.799 1.68 7.439 2.28.88.84 2 2.639 2 4.76 0 5.679-4.16 9.679-9.84 9.679-.201 0-.641 0-.84-.04-.2-.04-.48-.08-.48-.36 0-.32.28-.44 1.119-.44 2.241 0 5.361-2.52 5.361-6.6 0-1.32-.121-4-2.361-6a5.938 5.938 0 0 0-4-1.559c-.599 0-1.199.04-1.56.16-.199.08-.319.32-.319.76v16c0 3.679 0 6.839.2 8.56.119 1.119.36 1.998 1.56 2.158.559.08 1.44.16 2.04.16.44 0 .639.12.639.32 0 .28-.319.4-.759.4-2.64 0-5.16-.12-6.199-.12-.921 0-3.441.12-5.041.12-.519 0-.8-.12-.8-.4 0-.2.161-.32.64-.32.6 0 1.081-.08 1.44-.16.8-.16 1-1.039 1.16-2.2.2-1.679.2-4.839.2-8.519v-7.04m24.48 0c0-6.08 0-7.2-.079-8.48-.081-1.36-.401-2-1.721-2.28-.32-.08-1-.119-1.56-.119-.44 0-.68-.08-.68-.36 0-.28.281-.36.88-.36 2.12 0 4.64.12 5.84.12.96 0 3.48-.12 4.92-.12.6 0 .88.08.88.36 0 .28-.24.36-.64.36-.44 0-.68.04-1.16.12-1.08.2-1.4.88-1.48 2.28-.08 1.28-.08 2.4-.08 8.479v5.6c0 5.8 1.16 8.24 3.12 9.84 1.8 1.48 3.639 1.64 5 1.64 1.759 0 3.92-.56 5.519-2.16 2.201-2.2 2.321-5.8 2.321-9.92v-5c0-6.08 0-7.2-.081-8.48-.079-1.36-.4-2-1.719-2.28-.32-.08-1-.119-1.44-.119-.44 0-.68-.08-.68-.36 0-.28.279-.36.839-.36 2.04 0 4.56.12 4.6.12.481 0 3-.12 4.56-.12.56 0 .84.08.84.36 0 .28-.24.36-.72.36-.44 0-.68.04-1.16.12-1.08.2-1.4.88-1.479 2.28-.081 1.28-.081 2.4-.081 8.479v4.28c0 4.44-.44 9.16-3.8 12.04-2.839 2.44-5.72 2.88-8.32 2.88-2.12 0-5.959-.12-8.879-2.76-2.04-1.84-3.56-4.8-3.56-10.6v-5.84m45.879 3.88c-.84-.6-1.76-.88-3.32-.96-.719-.04-1.12-.04-1.719-.04-.161 0-.241.08-.241.28v9.48c0 2.64.121 3.32 1.4 3.839 1.081.44 2 .48 2.921.48 1.799 0 4.839-.96 4.839-5.12 0-2.48-.84-5.84-3.88-7.959zm-5.28-3.2c0 .32.121.4.28.44.36.08.961.12 1.88.12 1.321 0 2.201-.16 2.881-.76 1.039-.84 1.639-2.28 1.639-4.24 0-2.68-1.56-6.2-4.999-6.2-.561 0-.92 0-1.32.081-.281.08-.361.24-.361.68zm-4.799-.68c0-6.08 0-7.2-.08-8.48-.08-1.36-.401-2-1.721-2.28-.319-.08-1-.119-1.56-.119-.44 0-.68-.08-.68-.36 0-.28.281-.36.881-.36 2.119 0 4.64.12 5.44.12 1.959 0 3.519-.12 4.88-.12 7.24 0 8.519 3.88 8.519 6 0 3.28-1.88 5.24-4.079 6.999 3.279 1.12 7.279 3.96 7.279 8.64 0 4.28-3.32 8.72-10.68 8.72-.96 0-4.599-.24-5.799-.24-.92 0-3.441.12-5.04.12-.52 0-.8-.12-.8-.4 0-.201.16-.32.639-.32a6.46 6.46 0 0 0 1.44-.16c.801-.161 1-1.04 1.161-2.2.2-1.68.2-4.84.2-8.52v-7.04m33.28 7.04c0 5.12 0 7.88.84 8.6.679.6 1.72.88 4.839.88 2.12 0 3.68-.041 4.68-1.12.48-.52.96-1.64 1.04-2.4.041-.36.118-.6.44-.6.281 0 .32.2.32.68 0 .44-.28 3.44-.599 4.6-.241.88-.44 1.08-2.521 1.08-5.76 0-8.4-.24-11.639-.24-.921 0-3.441.12-5.041.12-.519 0-.799-.12-.799-.4 0-.201.16-.32.64-.32.599 0 1.08-.08 1.44-.16.8-.161 1-1.04 1.159-2.2.201-1.68.201-4.84.201-8.52v-7.04c0-6.08 0-7.2-.081-8.48-.079-1.36-.4-2-1.719-2.28-.32-.08-.8-.119-1.32-.119-.44 0-.68-.08-.68-.36 0-.28.279-.36.88-.36 1.879 0 4.399.12 5.48.12.959 0 3.88-.12 5.44-.12.56 0 .839.08.839.36 0 .28-.24.36-.719.36-.441 0-1.081.04-1.56.12-1.081.2-1.401.88-1.481 2.28-.079 1.28-.079 2.4-.079 8.479v7.04m19.199-7.04c0-6.08 0-7.2-.079-8.48-.081-1.36-.481-2.04-1.361-2.24-.44-.12-.96-.159-1.44-.159-.4 0-.64-.08-.64-.4 0-.24.321-.32.96-.32 1.52 0 4.04.12 5.2.12 1 0 3.358-.12 4.88-.12.52 0 .84.08.84.32 0 .32-.24.4-.64.4-.402 0-.722.04-1.2.12-1.082.2-1.4.88-1.48 2.28-.08 1.28-.08 2.4-.08 8.479v7.04c0 3.88 0 7.04.16 8.76.12 1.08.4 1.799 1.6 1.96.56.08 1.44.16 2.038.16.442 0 .642.119.642.32 0 .28-.32.4-.76.4-2.642 0-5.16-.12-6.24-.12-.92 0-3.44.12-5.039.12-.521 0-.801-.12-.801-.4 0-.201.16-.32.64-.32.601 0 1.08-.08 1.44-.16.8-.161 1.04-.84 1.161-2 .199-1.68.199-4.84.199-8.72v-7.04m18.291 14.84c-3.922-3.44-4.96-7.92-4.96-11.8 0-2.72.84-7.44 4.68-10.96 2.878-2.64 6.68-4.24 12.638-4.24 2.48 0 3.96.161 5.8.4 1.52.2 2.8.56 4 .68.44.04.6.24.6.481 0 .32-.121.8-.2 2.2-.08 1.32-.04 3.52-.12 4.32-.04.6-.12.919-.48.919-.321 0-.4-.32-.4-.88a5.706 5.706 0 0 0-1.56-3.68c-1.32-1.4-4.44-2.48-8.12-2.48-3.479 0-5.759.88-7.52 2.48-2.919 2.68-3.679 6.48-3.679 10.36 0 9.52 7.239 14.24 12.599 14.24 3.56 0 5.72-.401 7.32-2.24.68-.76 1.2-1.92 1.36-2.64.119-.64.2-.8.52-.8.28 0 .36.279.36.6 0 .48-.481 3.96-.88 5.32-.2.68-.36.88-1.04 1.16-1.6.64-4.64.92-7.2.92-5.479 0-10.08-1.2-13.719-4.36m42.35-8.64c.2 0 .24-.12.2-.24l-3.6-9.88c-.04-.16-.08-.36-.2-.36-.12 0-.2.2-.24.36l-3.68 9.84c-.04.16 0 .28.16.28zm-8.16 2c-.2 0-.279.08-.36.32l-2.16 5.72c-.4 1-.599 1.96-.599 2.44 0 .72.359 1.24 1.599 1.24h.6c.48 0 .6.08.6.32 0 .32-.239.4-.68.4-1.279 0-3-.12-4.24-.12-.439 0-2.64.12-4.719.12-.521 0-.761-.08-.761-.4 0-.24.161-.32.481-.32.359 0 .919-.04 1.239-.08 1.84-.241 2.601-1.6 3.4-3.6l10.04-25.119c.48-1.16.72-1.6 1.12-1.6.36 0 .6.359 1 1.28.96 2.199 7.36 18.519 9.92 24.599 1.518 3.6 2.68 4.16 3.518 4.36.602.12 1.202.16 1.68.16.32 0 .522.04.522.32 0 .32-.362.4-1.842.4-1.438 0-4.36 0-7.558-.08-.72-.04-1.2-.04-1.2-.32 0-.24.16-.32.56-.36.28-.08.56-.44.36-.92l-3.2-8.48c-.08-.2-.2-.28-.4-.28h-8.92m29.121-17.56l-5.959.16c-2.32.08-3.28.28-3.88 1.16-.4.601-.6 1.08-.68 1.4-.08.32-.2.48-.438.48-.28 0-.362-.2-.362-.64 0-.639.76-4.28.84-4.6.12-.52.24-.76.48-.76.322 0 .72.4 1.72.48 1.16.12 2.68.2 4 .2h15.839c2.56 0 3.52-.399 3.84-.399.28 0 .32.24.32.84 0 .84-.12 3.6-.12 4.64-.04.399-.119.64-.36.64-.319 0-.4-.2-.44-.8l-.039-.441c-.081-1.04-1.161-2.16-4.72-2.24l-5.041-.12v16.4c0 3.68 0 6.84.201 8.56.12 1.12.359 1.999 1.56 2.16.56.08 1.44.16 2.04.16.44 0 .639.119.639.32 0 .28-.32.4-.76.4-2.639 0-5.159-.12-6.279-.12-.92 0-3.44.12-5.04.12-.52 0-.8-.12-.8-.4 0-.201.16-.32.64-.32.6 0 1.08-.08 1.44-.16.799-.161 1.04-1.04 1.16-2.2.199-1.68.199-4.84.199-8.52v-16.4m23.081 9.36c0-6.08 0-7.2-.081-8.48-.079-1.36-.479-2.04-1.359-2.24-.44-.12-.96-.159-1.44-.159-.4 0-.64-.08-.64-.4 0-.24.319-.32.96-.32 1.52 0 4.039.12 5.199.12 1 0 3.361-.12 4.88-.12.52 0 .84.08.84.32 0 .32-.239.4-.639.4-.401 0-.72.04-1.201.12-1.079.2-1.399.88-1.48 2.28-.079 1.28-.079 2.4-.079 8.479v7.04c0 3.88 0 7.04.16 8.76.12 1.08.399 1.799 1.6 1.96.56.08 1.44.16 2.039.16.44 0 .641.119.641.32 0 .28-.321.4-.761.4-2.639 0-5.16-.12-6.239-.12-.921 0-3.44.12-5.041.12-.519 0-.799-.12-.799-.4 0-.201.16-.32.64-.32.599 0 1.08-.08 1.439-.16.801-.161 1.041-.84 1.16-2 .201-1.68.201-4.84.201-8.72v-7.04m40.409 4.28c0-8.96-5.162-14.52-11.72-14.52-4.6 0-9.84 2.56-9.84 12.52 0 8.32 4.6 14.92 12.28 14.92 2.8 0 9.28-1.36 9.28-12.92zm-27.08-.76c0-6.84 4.52-15.68 16.52-15.68 9.958 0 16.16 5.8 16.16 14.96s-6.4 16.4-16.56 16.4c-11.48 0-16.12-8.6-16.12-15.68m43.483 9.679c.082 3.12.6 4.16 1.4 4.44.68.241 1.44.28 2.082.28.44 0 .678.08.678.32 0 .32-.36.4-.92.4-2.598 0-4.2-.12-4.96-.12-.358 0-2.24.12-4.318.12-.522 0-.88-.04-.88-.4 0-.24.238-.32.638-.32.522 0 1.242-.039 1.802-.199 1.038-.32 1.198-1.48 1.24-4.96l.358-23.68c0-.8.122-1.359.522-1.359.44 0 .798.52 1.478 1.24.48.52 6.56 7.039 12.4 12.84 2.72 2.719 8.12 8.479 8.799 9.118h.201l-.4-17.958c-.04-2.44-.401-3.2-1.36-3.6-.601-.24-1.56-.24-2.12-.24-.48 0-.64-.12-.64-.36 0-.32.44-.36 1.04-.36 2.08 0 4 .12 4.839.12.44 0 1.961-.12 3.921-.12.519 0 .919.04.919.36 0 .24-.239.36-.72.36-.4 0-.72 0-1.199.12-1.12.32-1.44 1.16-1.481 3.4l-.44 25.239c0 .88-.16 1.24-.519 1.24-.44 0-.921-.44-1.361-.88-2.519-2.4-7.639-7.64-11.799-11.76-4.36-4.32-8.8-9.32-9.52-10.079h-.12l.44 16.798m33.44 4.961c-.638-.28-.758-.48-.758-1.36 0-2.2.16-4.6.198-5.24.042-.6.16-1.04.482-1.04.358 0 .4.36.4.68 0 .52.16 1.36.36 2.04.878 2.96 3.24 4.04 5.718 4.04 3.6 0 5.362-2.44 5.362-4.56 0-1.96-.602-3.84-3.922-6.4l-1.84-1.44c-4.4-3.44-5.918-6.24-5.918-9.479 0-4.401 3.68-7.56 9.24-7.56 2.6 0 4.278.4 5.318.68.36.08.56.2.56.48 0 .52-.158 1.68-.158 4.8 0 .88-.122 1.199-.442 1.199-.278 0-.4-.24-.4-.72 0-.36-.2-1.6-1.04-2.64-.6-.76-1.76-1.96-4.36-1.96-2.96 0-4.758 1.721-4.758 4.12 0 1.84.918 3.24 4.238 5.76l1.12.84c4.8 3.72 6.56 6.4 6.56 10.2 0 2.32-.88 5.08-3.758 6.96-2 1.28-4.242 1.64-6.362 1.64-2.318 0-4.12-.28-5.84-1.04"/></g></svg>