<svg xmlns="http://www.w3.org/2000/svg" viewBox="0 0 350 45"><g fill="#fff"><path d="M93.151 44.816h-3.725V29.974l-2.455 7.314h-1.658l-2.458-7.314v14.842h-3.682V17h1.842l5.125 14.486L91.307 17h1.844v27.815zm10.689-7.999l-1.518-11.635-1.517 11.635h3.036zm4.66 7.998h-3.576l-.688-4.934h-3.826l-.651 4.934h-3.397l4.226-27.813h3.688l4.224 27.813zm15.027.001h-1.844l-6.248-15.85v15.85h-3.685V17h1.843l6.211 15.962V17h3.723v27.815zm16.615 0H138.3l-6.248-15.85v15.85h-3.687V17h1.843l6.212 15.962V17h3.722v27.815zm8.67 0h-3.833V17h3.833v27.815zm16.579 0h-1.842l-6.25-15.85v15.85h-3.685V17h1.843l6.212 15.962V17h3.722v27.815zm16.47-.826c-1.086.672-2.455 1.01-4.118 1.01-5.398 0-8.093-4.711-8.093-14.126 0-9.37 2.553-14.056 7.657-14.056.844 0 1.654.109 2.422.327v2.953c-.675-.141-1.242-.212-1.698-.212-3.013 0-4.514 3.661-4.514 10.988 0 7.373 1.457 11.063 4.37 11.063.171 0 .3-.013.395-.038v-5.765c0-1.364-.156-2.305-.47-2.813-.238-.406-.649-.61-1.224-.61-.29 0-.497.013-.616.036V29.72a7.45 7.432 0 0 1 1.265-.107c3.084 0 4.624 2.28 4.624 6.847v7.53zm17.911-18.557c0-3.555-1.069-5.335-3.209-5.335v12.254c.6-.096 1.224-.634 1.875-1.625.89-1.342 1.334-3.107 1.334-5.294m3.866.036c0 3.193-.987 5.815-2.96 7.851-1.301 1.327-2.671 2.181-4.115 2.562v8.934h-3.831V17.002h2.923c2.29 0 4.132.608 5.531 1.835 1.634 1.467 2.452 3.677 2.452 6.632m14.812 12.505c0 2.304-.59 4.094-1.769 5.37-1.04 1.102-2.348 1.655-3.938 1.655-1.567 0-2.868-.553-3.9-1.656-1.157-1.275-1.737-3.065-1.737-5.369V17.002h3.83v21.724c0 1.037.182 1.828.541 2.382.362.549.783.829 1.266.829.482 0 .915-.28 1.299-.829.387-.554.58-1.345.58-2.382V17.002h3.827v20.972zm12.174-2.345c0-2.57-.688-4.538-2.06-5.908a4.933 4.922 0 0 1-1.555.253v11.782c.99 0 1.795-.421 2.422-1.26.792-1.057 1.193-2.68 1.193-4.867m-.76-12.178c0-2.187-.95-3.315-2.855-3.386v6.738c1.906-.049 2.855-1.166 2.855-3.352m4.66 12.178c0 3.34-.89 5.793-2.673 7.352-1.42 1.226-3.31 1.834-5.669 1.834h-3V17.002h3.07c1.999 0 3.67.492 5.02 1.477 1.59 1.151 2.384 2.81 2.384 4.972 0 2.16-.697 3.785-2.096 4.864.7.554 1.326 1.354 1.881 2.412.719 1.467 1.083 3.102 1.083 4.902m13.111 9.187h-8.993V17h3.828v24.755h5.165v3.06zm7.151 0h-3.83V17h3.83v27.815zm13.727-.068a6.689 6.673 0 0 1-1.88.252c-5.107 0-7.657-4.71-7.657-14.125 0-9.37 2.55-14.057 7.656-14.057.675 0 1.301.088 1.881.255v2.992c-.651-.12-1.086-.179-1.3-.179-2.913 0-4.368 3.66-4.368 10.989 0 7.372 1.478 11.062 4.441 11.062.285 0 .696-.051 1.227-.144v2.955zm9.534-7.931l-1.516-11.635-1.519 11.635h3.035zm4.66 7.998h-3.577l-.682-4.934h-3.832l-.65 4.934h-3.395l4.226-27.813h3.683l4.226 27.813zm13.003-24.75h-3.723v24.75h-3.827v-24.75h-3.72v-3.063h11.27v3.063zm7.152 24.751h-3.83V17h3.83v27.815zm13.041-13.906c0-7.35-.832-11.024-2.495-11.024-1.66 0-2.491 3.673-2.491 11.023s.831 11.028 2.491 11.028c1.663 0 2.495-3.678 2.495-11.028m3.827 0c0 5.455-.672 9.31-2.023 11.567-.988 1.68-2.42 2.523-4.299 2.523-1.878 0-3.323-.844-4.333-2.523-1.348-2.257-2.023-6.112-2.023-11.567 0-5.452.675-9.31 2.023-11.565 1.01-1.68 2.455-2.526 4.333-2.526 1.878 0 3.31.846 4.299 2.526 1.35 2.254 2.023 6.113 2.023 11.565m16.001 13.907h-1.842l-6.25-15.85v15.85h-3.68V17h1.838l6.212 15.962V17h3.722v27.815zm14.267-6.991c0 2.357-.706 4.184-2.13 5.48-1.254 1.13-2.78 1.694-4.59 1.694-1.492 0-2.744-.324-3.754-.973l1.338-2.703c.648.383 1.457.576 2.416.576.748 0 1.399-.288 1.954-.867.623-.668.939-1.62.939-2.845 0-1.99-1.035-4.455-3.108-7.385-1.228-1.751-2.094-3.212-2.6-4.378a9.34 9.318 0 0 1-.76-3.733c0-1.8.538-3.227 1.608-4.284 1.072-1.06 2.51-1.589 4.317-1.589 1.255 0 2.253.242 2.996.723l-1.299 2.666a4.375 4.375 0 0 0-1.734-.361c-.626 0-1.137.225-1.535.67-.397.44-.595 1.036-.595 1.78 0 .917.277 1.898.829 2.955.362.744 1.062 1.85 2.096 3.315 1.255 1.801 2.145 3.315 2.673 4.543.626 1.513.94 3.088.94 4.716" class="style0"/><path d="M8.5.001h26.25v27.542c1.503-9.076 2.794-18.36 4.191-27.542h26.25v44.998H40.42V6.394a2251.505 2246.11 0 0 0-5.794 38.605H9.983V4.794c-2.667 13.293-5.04 26.865-7.648 40.205h-2.34c2.807-14.862 5.6-29.74 8.38-44.628-.01-.179-.018-.349.126-.37" fill-rule="evenodd"/></g></svg>