<svg xmlns="http://www.w3.org/2000/svg" id="Layer_1" data-name="Layer 1" viewBox="0 0 1071.67 267.48"><defs id="defs4"><style id="style2"/></defs><path d="M-225.86 534.74V267.26H845.82v267.48zM310 277.65h-517c-8.28 0-8.28 0-8.28 8.25v229.49c0 8.84 0 8.84 8.85 8.84q518.72 0 1037.44.09c3.53 0 4.49-.9 4.49-4.48q-.18-117-.1-234c0-8.2 0-8.2-8-8.2z" transform="translate(225.86 -267.26)" id="path6" fill="#fff"/><path d="M-137.89 516h-28V341.2h26.59V356c.87-.11 1.32 0 1.43-.19 11.09-16.49 27.65-20 45.74-18.28 25.63 2.41 43.41 17.91 50 42.79 5.28 19.89 4.78 39.67-3.08 58.83-13.71 33.44-55.9 44.63-83.87 22.41-2.94-2.34-5.61-5-8.86-7.94V516zm-1.66-111.29c1.49 7.29 2.24 14.82 4.61 21.81 4.74 14 16.91 22.76 30.63 23.22 15.47.52 26.51-6.65 32.25-20.56 7.27-17.62 7-35.67-2.44-52.5-12.09-21.56-42.69-22.84-56.39-2.68-6.21 9.11-7.66 19.68-8.66 30.68zm317.38-63.95c10.07 0 19.22-.2 28.35.2 1.51.07 3.63 2.52 4.26 4.29 9.29 26 18.37 52.15 27.52 78.23 1.31 3.76 2.74 7.47 4.57 12.47 1-2.53 1.65-3.93 2.14-5.37 9.69-28.36 19.44-56.7 28.93-85.13 1.23-3.68 2.87-4.92 6.68-4.79 8 .29 15.94.09 24.32.09a20.66 20.66 0 0 1-.6 3.25q-27 72.49-54.16 145c-.87 2.34-1.93 4.61-3 6.87C239 512.54 226 520.54 207.36 520c-17.5-.51-17.51-.17-17.51-17.26v-8.08c5.22.48 9.81 1.12 14.41 1.27 7.4.24 13-3.07 15.85-9.92a124.36 124.36 0 0 0 5.53-16c.5-1.83-.39-4.22-1.13-6.18Q202.16 405 179.7 346.16c-.58-1.53-1.07-3.09-1.87-5.4zM43.8 472.44c-37.43 0-62.9-24.23-64.82-61.66-.66-13 .46-25.68 5.91-37.63 11.54-25.32 36.74-38.91 65.93-35.77 35.15 3.78 57.37 28.4 57.6 64.7a92.82 92.82 0 0 1-3.32 26.59c-8.35 28.33-30.65 43.76-61.3 43.77zM7.31 408.52c.73 3.47 1.4 10.55 3.75 17 5 13.85 14.56 23.06 30 24.1 15.75 1.05 27.21-6.07 33.65-20.16 8-17.53 7.78-35.49-1.47-52.45-11.13-20.44-39.24-23.17-54.78-5.9-8.68 9.66-10.69 21.5-11.15 37.41zm125.78 60.39V292.19h27.84c.09 1.9.24 3.67.24 5.44 0 55.11 0 110.23.12 165.34 0 4.88-1.41 6.29-6.16 6-7.13-.35-14.27-.06-22.04-.06zm402.8-25.84c-17.49 24.15-38.31 32.87-66 27.1-18.55-3.88-28-15.19-28-33.41 0-19.55 9.64-32.22 28.25-35.47 11.11-1.94 22.51-2.17 33.77-3.37 6.77-.73 13.63-1.32 20.21-2.93 7.91-1.93 11.17-6.73 11.65-14.85 1.34-23.09-10.49-36.17-33.57-36.23a80.75 80.75 0 0 0-22.63 2.79c-13.3 3.9-20.79 13.78-23.69 27.2-.29 1.3-.16 2.8-.77 3.89s-2 2-3 3c-.69-1.21-2.1-2.51-2-3.61 1.63-13 6.95-24.18 18.55-31 17.08-10.1 35.38-10.58 53.37-3.28 13.27 5.39 18.67 17.06 18.76 31 .16 25.49 0 51 0 76.48 0 1.83 0 3.67.13 5.49.43 5.5 2.61 7.71 8.12 8.14 2 .16 4-.19 6 .12a3 3 0 0 1 1.86 2.22 3.16 3.16 0 0 1-1.71 2.42c-10.27 3.41-19.33-3.11-19.36-13.82.05-3.95.06-7.95.06-11.88zm-.27-48.07c-9.69 7-20.36 7.55-31 8.33-5.14.39-10.35.14-15.45.81-8.22 1.06-16.69 1.68-24.48 4.23-12 3.92-17 13.7-17.62 25.9-.69 12.67 3.81 22.4 15.66 28.14 7.57 3.67 15.62 4.45 23.85 4.22 26.65-.73 46.76-18.91 48.89-44.76.75-8.57.15-17.26.15-26.87zm163.1-102.45v121.61c2.51-2 4-3.13 5.52-4.36 26.43-21.88 52.8-43.82 79.34-65.57 2.26-1.85 5.58-2.41 8.41-3.57l1 2-57.35 47.44L798 468.12c-4.59 1.75-7.06.21-9.5-2.89q-26.5-33.57-53.16-66.93c-1.13-1.41-2.32-2.77-3.77-4.5-10.63 8.82-21.05 17.33-31.25 26.1-1.21 1-1.59 3.56-1.61 5.4-.13 13 0 26-.17 39 0 1.54-1.29 4.24-2.25 4.37-3.55.47-2.58-2.64-2.58-4.55q-.08-83.7-.05-167.4c0-3.02-.17-6.07 5.06-4.17zm-372.39-.1c4.53-1.67 4.81.73 4.8 3.84q-.08 34.5 0 69v5.42c.79-.61 1.35-.81 1.45-1.15 6.06-20.76 27.27-35.36 55.54-30.19 20.77 3.8 34.36 19.38 34.66 40.5.39 28.32.14 56.66 0 85 0 1.34-1.51 2.67-2.32 4-.85-1.46-2.44-2.91-2.44-4.36-.16-25.17 0-50.34-.19-75.5a76.3 76.3 0 0 0-1.78-17.82c-3.56-14.19-12.85-23-27.19-26.27-25.43-5.78-48.07 7.46-54.74 32.65a100.83 100.83 0 0 0-2.88 23.71c-.39 20.49-.13 41-.13 61.49a14.12 14.12 0 0 1-.15 4c-.26.85-1.52 2.08-2.11 2a4.81 4.81 0 0 1-2.61-2.09c-.39-.57-.11-1.62-.11-2.45v-168c.01-1.23.12-2.36.2-3.78zm343.46 88.22c-1.3-1.11-3.43-2-3.77-3.36-4.64-18.27-15.58-30.23-34.54-33-20-2.89-38.24 2-49.7 19.57-16.46 25.28-18 52.39-3.4 79.11 9.42 17.21 25.39 24.48 44.82 23.53 18.46-.91 32.41-9.35 40.41-26.38 1.67-3.57 2.37-7.61 3.36-11.47.8-3.12.69-3.15 5.73-2.8-1.07 4.56-1.66 9.14-3.21 13.37-6.85 18.76-20.64 29.17-40.08 31.76-31 4.09-55.12-11.74-62.79-42-6.1-24-3.78-47.52 10.94-68.36C592.77 339 624 331.93 647.42 344c13.58 7 23.58 22.13 22.37 36.67z" transform="translate(225.86 -267.26)" id="path10" fill="#fff"/></svg>