<svg xmlns="http://www.w3.org/2000/svg" width="1045.333" height="232"><path d="M200.593 122.74V58.304L100.775.675 68.08 19.55l99.818 57.624-.012 26.697-11.297 6.534v-26.7l-50.16-28.958v57.916c18.585 10.726 37.157 21.461 55.741 32.184zM56.77 26.074L.956 58.303v115.262l32.7 18.874V77.185l23.115-13.348 11.312 6.528L44.967 83.72v57.9l50.158-28.955V48.303zM44.967 198.972l55.808 32.22 99.818-57.627v-37.757l-99.818 57.633-23.11-13.355V167.03l23.116 13.346 50.156-28.963-50.162-28.956c-18.575 10.73-37.15 21.465-55.733 32.184l-.075 44.332m772.65-114.137c-7.105-14.475-22.25-18.628-36.858-18.628-17.288.133-36.322 8.041-36.322 27.34 0 21.042 17.692 26.137 36.856 28.415 12.466 1.34 21.711 4.958 21.711 13.805 0 10.185-10.45 14.072-21.575 14.072-11.392 0-22.245-4.558-26.404-14.877l-14.744 7.64c6.971 17.155 21.715 23.052 40.882 23.052 20.904 0 39.401-8.98 39.401-29.887 0-22.385-18.227-27.476-37.795-29.89-11.258-1.34-20.906-3.619-20.906-11.794 0-6.968 6.3-12.464 19.43-12.464 10.188 0 19.032 5.093 22.251 10.453zm108.638 60.983h-52.671v-21.176h50.793v-16.485h-50.793V86.444h52.67V69.288H856.03v93.954h70.226zm106.362-6.567c-6.166 6.162-15.413 9.515-23.588 9.515-23.185 0-32.165-16.216-32.3-31.764-.133-15.681 9.65-32.567 32.3-32.567 8.175 0 16.488 2.812 22.655 8.843l11.793-11.392c-9.654-9.515-21.717-14.339-34.448-14.339-33.908 0-49.858 24.928-49.725 49.455.137 24.392 14.881 48.384 49.725 48.384 13.535 0 26-4.426 35.65-13.94zM310.815 86.176h26.54c22.516 0 22.649 33.24 0 33.24h-26.54zm26.54-16.888c-14.743-.13-29.488 0-44.23 0v93.954h17.69v-27.61h26.54c45.97 0 45.833-66.344 0-66.344zm133.166.27v53.745c0 16.082-8.313 25.867-22.918 25.867-14.611 0-24.262-8.981-24.262-25.867V69.557h-17.557v53.746c0 28.28 19.167 41.95 41.683 41.95 23.588 0 40.608-14.209 40.608-41.95V69.557zm140.135 92.476l-28.415-32.032c17.826-3.618 23.722-16.62 23.722-29.55 0-16.285-11.659-31.03-33.775-31.164-14.873.135-29.75 0-44.628 0v93.954h17.69v-31.363h17.023l27.339 31.363h21.044zm-38.468-76.258c11.124 0 16.083 7.53 16.083 15.076 0 7.552-4.823 15.078-16.083 15.078h-26.937V85.776zm137.724 60.043h-52.67v-21.176h50.798v-16.485h-50.799V86.444h52.671V69.288h-70.224v93.954h70.224v-17.423" fill="#fff" fill-rule="evenodd"/></svg>