<?xml version="1.0" encoding="UTF-8" standalone="no"?>
<!-- Created with Inkscape (http://www.inkscape.org/) -->

<svg
   xmlns:dc="http://purl.org/dc/elements/1.1/"
   xmlns:cc="http://creativecommons.org/ns#"
   xmlns:rdf="http://www.w3.org/1999/02/22-rdf-syntax-ns#"
   xmlns:svg="http://www.w3.org/2000/svg"
   xmlns="http://www.w3.org/2000/svg"
   xmlns:sodipodi="http://sodipodi.sourceforge.net/DTD/sodipodi-0.dtd"
   xmlns:inkscape="http://www.inkscape.org/namespaces/inkscape"
   version="1.1"
   id="svg875"
   xml:space="preserve"
   width="1045.3333"
   height="232"
   viewBox="0 0 1045.3333 232"
   sodipodi:docname="puresec.svg"
   inkscape:version="0.92.3 (2405546, 2018-03-11)"><metadata
     id="metadata881"><rdf:RDF><cc:Work
         rdf:about=""><dc:format>image/svg+xml</dc:format><dc:type
           rdf:resource="http://purl.org/dc/dcmitype/StillImage" /><dc:title></dc:title></cc:Work></rdf:RDF></metadata><defs
     id="defs879" /><sodipodi:namedview
     pagecolor="#ffffff"
     bordercolor="#666666"
     borderopacity="1"
     objecttolerance="10"
     gridtolerance="10"
     guidetolerance="10"
     inkscape:pageopacity="0"
     inkscape:pageshadow="2"
     inkscape:window-width="2560"
     inkscape:window-height="1440"
     id="namedview877"
     showgrid="false"
     inkscape:zoom="1.6702807"
     inkscape:cx="525.36078"
     inkscape:cy="116"
     inkscape:window-x="0"
     inkscape:window-y="0"
     inkscape:window-maximized="1"
     inkscape:current-layer="g885" /><g
     id="g883"
     inkscape:groupmode="layer"
     inkscape:label="ink_ext_XXXXXX"
     transform="matrix(1.3333333,0,0,-1.3333333,0,232)"><g
       id="g885"
       transform="scale(0.1)"><path
         d="m 1504.45,819.445 v 483.285 l -748.637,432.21 -245.219,-141.57 748.636,-432.18 -0.09,-200.233 -84.73,-49 V 1112.21 L 798.203,1329.39 V 895.023 C 937.594,814.578 1076.89,734.059 1216.27,653.641 Z M 425.766,1544.45 7.17188,1302.73 V 438.266 L 252.422,296.711 v 864.399 l 173.359,100.11 84.844,-48.96 L 337.25,1112.11 V 677.852 l 376.188,217.171 c 0,160.907 0,321.817 0,482.707 z M 337.25,247.711 755.813,6.05859 1504.45,438.266 V 721.438 L 755.813,289.195 582.484,389.352 v 97.929 L 755.859,387.188 1132.03,604.41 755.813,821.578 C 616.5,741.102 477.188,660.59 337.813,580.199 L 337.25,247.711"
         style="fill:#ffffff;fill-opacity:1;fill-rule:evenodd;stroke:none"
         id="path887"
         inkscape:connector-curvature="0" /><path
         d="m 6132.13,1103.73 c -53.29,108.56 -166.88,139.71 -276.44,139.71 -129.66,-1 -272.41,-60.31 -272.41,-205.05 0,-157.812 132.69,-196.031 276.42,-213.113 93.49,-10.05 162.83,-37.183 162.83,-103.535 0,-76.39 -78.37,-105.539 -161.81,-105.539 -85.44,0 -166.84,34.18 -198.03,111.578 l -110.58,-57.297 c 52.28,-128.668 162.86,-172.898 306.61,-172.898 156.78,0 295.51,67.355 295.51,224.156 0,167.887 -136.7,206.071 -283.46,224.172 -84.44,10.047 -156.8,27.141 -156.8,88.456 0,52.26 47.25,93.48 145.73,93.48 76.41,0 142.74,-38.2 166.88,-78.4 z m 814.78,-457.371 h -395.03 v 158.817 h 380.95 v 123.637 h -380.95 v 162.857 h 395.03 v 128.67 h -526.69 c 0,-234.902 0,-470.449 0,-704.652 h 526.69 z m 797.72,49.25 c -46.25,-46.214 -115.6,-71.359 -176.91,-71.359 -173.89,0 -241.24,121.617 -242.25,238.227 -1,117.609 72.37,244.253 242.25,244.253 61.31,0 123.66,-21.09 169.91,-66.32 l 88.45,85.44 c -72.41,71.36 -162.88,107.54 -258.36,107.54 -254.31,0 -373.94,-186.96 -372.94,-370.913 1.03,-182.942 111.61,-362.883 372.94,-362.883 101.51,0 195,33.195 267.37,104.551 z M 2331.11,1093.68 h 199.05 c 168.87,0 169.87,-249.305 0,-249.305 h -199.05 z m 199.05,126.66 c -110.57,0.98 -221.16,0 -331.72,0 V 515.688 h 132.67 v 207.07 h 199.05 c 344.78,0 343.75,497.582 0,497.582 z m 998.75,-2.02 V 815.227 c 0,-120.618 -62.35,-194 -171.89,-194 -109.58,0 -181.96,67.359 -181.96,194 V 1218.32 H 3043.38 V 815.227 c 0,-212.098 143.75,-314.618 312.62,-314.618 176.91,0 304.56,106.559 304.56,314.618 V 1218.32 Z M 4579.92,524.742 4366.81,764.984 c 133.69,27.133 177.91,124.645 177.91,221.633 0,122.133 -87.44,232.713 -253.31,233.723 -111.55,-1.01 -223.13,0 -334.71,0 V 515.688 h 132.68 v 235.218 h 127.67 l 205.04,-235.218 h 157.83 z m -288.51,571.938 c 83.43,0 120.62,-56.47 120.62,-113.067 0,-56.644 -36.17,-113.09 -120.62,-113.09 H 4089.38 V 1096.68 Z M 5324.34,646.359 h -395.03 v 158.817 h 380.99 v 123.637 h -380.99 v 162.857 h 395.03 v 128.67 h -526.68 c 0,-234.902 0,-470.449 0,-704.652 h 526.68 v 130.671"
         style="fill:#ffffff;fill-opacity:1;fill-rule:evenodd;stroke:none"
         id="path889"
         inkscape:connector-curvature="0" /></g></g></svg>