<?xml version="1.0" encoding="utf-8"?>
<!-- Generator: Adobe Illustrator 15.0.2, SVG Export Plug-In . SVG Version: 6.00 Build 0)  -->
<!DOCTYPE svg PUBLIC "-//W3C//DTD SVG 1.1//EN" "http://www.w3.org/Graphics/SVG/1.1/DTD/svg11.dtd">
<svg version="1.1" id="Layer_1" xmlns="http://www.w3.org/2000/svg" xmlns:xlink="http://www.w3.org/1999/xlink" x="0px" y="0px"
	 width="612px" height="792px" viewBox="0 0 612 792" enable-background="new 0 0 612 792" xml:space="preserve">
<g>
	<path fill="#FFFFFF" d="M18.288,100.222c-6.048-2.304-10.608-5.397-13.68-9.288C1.535,87.046,0,82.751,0,78.046
		c0-0.768,0.095-1.919,0.288-3.456c0.095-0.864,0.504-1.584,1.225-2.16c0.72-0.575,1.512-0.863,2.376-0.863h19.296
		c1.246,0,2.182,0.193,2.808,0.575c0.624,0.387,1.271,1.06,1.944,2.019c0.767,2.304,2.326,4.2,4.68,5.688
		c2.352,1.49,5.591,2.232,9.72,2.232c5.184,0,9.382-0.792,12.6-2.376c3.215-1.584,5.159-3.769,5.832-6.554
		c0.094-0.383,0.144-0.909,0.144-1.584c0-2.396-1.49-4.271-4.464-5.614c-2.977-1.346-8.352-2.88-16.128-4.608
		C21.217,57.409,11.665,48.96,11.665,36c0-2.304,0.288-4.655,0.864-7.056c1.919-9.022,6.743-16.104,14.472-21.24
		C34.728,2.569,44.688,0,56.881,0c7.294,0,13.824,1.296,19.584,3.888c5.76,2.593,10.247,5.882,13.464,9.864
		c3.215,3.984,4.824,7.992,4.824,12.024c0,0.481-0.097,1.296-0.288,2.447c-0.193,0.864-0.576,1.609-1.152,2.232
		c-0.576,0.625-1.296,0.936-2.16,0.936H70.705c-2.113,0-3.553-0.863-4.32-2.592c-0.193-2.016-1.321-3.719-3.384-5.111
		c-2.065-1.391-4.777-2.089-8.136-2.089c-4.128,0-7.465,0.721-10.008,2.16c-2.545,1.44-4.154,3.553-4.824,6.336
		c-0.097,0.385-0.144,0.914-0.144,1.584c0,2.305,1.319,4.154,3.96,5.544c2.64,1.394,7.367,2.809,14.184,4.248
		c10.847,2.017,18.768,5.04,23.76,9.072c4.99,4.032,7.488,9.36,7.488,15.982c0,2.688-0.241,5.04-0.72,7.058
		c-2.113,9.889-7.272,17.377-15.48,22.464c-8.208,5.09-19.177,7.632-32.904,7.632C31.631,103.678,24.337,102.525,18.288,100.222z"/>
	<path fill="#FFFFFF" d="M90.286,101.23c-0.576-0.671-0.77-1.533-0.576-2.593l19.872-93.456c0.191-1.055,0.72-1.943,1.584-2.664
		c0.864-0.72,1.822-1.079,2.88-1.079h67.968c1.055,0,1.847,0.359,2.376,1.079c0.526,0.721,0.695,1.609,0.504,2.664l-3.022,14.257
		c-0.194,1.057-0.722,1.921-1.584,2.592c-0.864,0.673-1.825,1.008-2.88,1.008h-45.504l-4.032,18.288h42.48
		c1.055,0,1.847,0.36,2.376,1.08c0.526,0.72,0.695,1.608,0.504,2.664l-2.736,13.104c-0.194,1.058-0.72,1.944-1.584,2.664
		c-0.864,0.72-1.825,1.08-2.88,1.08h-42.48l-3.888,18.72h46.656c1.055,0,1.847,0.36,2.376,1.08c0.527,0.721,0.695,1.609,0.504,2.664
		l-3.024,14.256c-0.193,1.06-0.72,1.922-1.584,2.593c-0.864,0.674-1.777,1.01-2.736,1.01h-69.12
		C91.677,102.238,90.862,101.902,90.286,101.23z"/>
	<path fill="#FFFFFF" d="M175.389,101.23c-0.576-0.671-0.77-1.533-0.576-2.593l19.872-93.456c0.191-1.055,0.722-1.943,1.584-2.664
		c0.864-0.72,1.822-1.079,2.88-1.079h67.97c1.055,0,1.847,0.359,2.376,1.079c0.524,0.721,0.693,1.609,0.504,2.664l-3.024,14.257
		c-0.192,1.057-0.72,1.921-1.584,2.592c-0.864,0.673-1.825,1.008-2.88,1.008h-45.504l-4.032,18.288h42.48
		c1.055,0,1.847,0.36,2.376,1.08c0.524,0.72,0.693,1.608,0.504,2.664l-2.736,13.104c-0.193,1.058-0.72,1.944-1.584,2.664
		s-1.825,1.08-2.88,1.08h-42.479l-3.889,18.72h46.656c1.055,0,1.847,0.36,2.376,1.08c0.527,0.721,0.695,1.609,0.504,2.664
		l-3.024,14.256c-0.191,1.06-0.72,1.922-1.584,2.593c-0.862,0.674-1.775,1.01-2.734,1.01h-69.12
		C176.78,102.238,175.965,101.902,175.389,101.23z"/>
	<path fill="#FFFFFF" d="M260.492,101.23c-0.576-0.671-0.771-1.533-0.576-2.593l19.872-93.456c0.189-1.055,0.72-1.943,1.584-2.664
		c0.864-0.72,1.82-1.079,2.88-1.079h35.424c7.583,0,14.4,1.248,20.448,3.743c6.048,2.498,10.847,6.146,14.398,10.944
		c3.553,4.802,5.328,10.562,5.328,17.28c0,2.016-0.239,4.464-0.72,7.344c-1.345,7.776-2.88,15.12-4.608,22.032
		c-3.456,13.729-9.097,23.735-16.92,30.021c-7.823,6.289-19.08,9.435-33.768,9.435h-40.896
		C261.883,102.238,261.067,101.902,260.492,101.23z M305.275,80.638c5.952,0,10.704-1.438,14.258-4.317
		c3.55-2.882,6.095-7.488,7.632-13.824c2.016-8.543,3.55-15.696,4.606-21.456c0.288-1.919,0.434-3.647,0.434-5.184
		c0-4.32-1.273-7.536-3.816-9.648c-2.545-2.11-6.408-3.168-11.592-3.168h-13.68l-12.386,57.6L305.275,80.638L305.275,80.638z"/>
</g>
</svg>
