<svg xmlns="http://www.w3.org/2000/svg" width="359.85" height="103.679"><path d="M18.288 100.222c-6.048-2.304-10.608-5.397-13.68-9.288C1.535 87.046 0 82.751 0 78.046c0-.768.095-1.919.288-3.456.095-.864.504-1.584 1.225-2.16.72-.575 1.512-.863 2.376-.863h19.296c1.246 0 2.182.193 2.808.575.624.387 1.271 1.06 1.944 2.019.767 2.304 2.326 4.2 4.68 5.688 2.352 1.49 5.591 2.232 9.72 2.232 5.184 0 9.382-.792 12.6-2.376 3.215-1.584 5.159-3.769 5.832-6.554.094-.383.144-.909.144-1.584 0-2.396-1.49-4.271-4.464-5.614-2.977-1.346-8.352-2.88-16.128-4.608C21.217 57.409 11.665 48.96 11.665 36c0-2.304.288-4.655.864-7.056 1.919-9.022 6.743-16.104 14.472-21.24C34.728 2.569 44.688 0 56.881 0c7.294 0 13.824 1.296 19.584 3.888 5.76 2.593 10.247 5.882 13.464 9.864 3.215 3.984 4.824 7.992 4.824 12.024 0 .481-.097 1.296-.288 2.447a4.748 4.748 0 0 1-1.152 2.232c-.576.625-1.296.936-2.16.936H70.705c-2.113 0-3.553-.863-4.32-2.592-.193-2.016-1.321-3.719-3.384-5.111-2.065-1.391-4.777-2.089-8.136-2.089-4.128 0-7.465.721-10.008 2.16-2.545 1.44-4.154 3.553-4.824 6.336-.097.385-.144.914-.144 1.584 0 2.305 1.319 4.154 3.96 5.544 2.64 1.394 7.367 2.809 14.184 4.248 10.847 2.017 18.768 5.04 23.76 9.072 4.99 4.032 7.488 9.36 7.488 15.982 0 2.688-.241 5.04-.72 7.058-2.113 9.889-7.272 17.377-15.48 22.464-8.208 5.09-19.177 7.632-32.904 7.632-8.546-.001-15.84-1.154-21.889-3.457zm71.998 1.008c-.576-.671-.77-1.533-.576-2.593l19.872-93.456c.191-1.055.72-1.943 1.584-2.664.864-.72 1.822-1.079 2.88-1.079h67.968c1.055 0 1.847.359 2.376 1.079.526.721.695 1.609.504 2.664l-3.022 14.257c-.194 1.057-.722 1.921-1.584 2.592-.864.673-1.825 1.008-2.88 1.008h-45.504l-4.032 18.288h42.48c1.055 0 1.847.36 2.376 1.08.526.72.695 1.608.504 2.664l-2.736 13.104c-.194 1.058-.72 1.944-1.584 2.664-.864.72-1.825 1.08-2.88 1.08h-42.48l-3.888 18.72h46.656c1.055 0 1.847.36 2.376 1.08.527.721.695 1.609.504 2.664l-3.024 14.256c-.193 1.06-.72 1.922-1.584 2.593-.864.674-1.777 1.01-2.736 1.01h-69.12c-1.059-.003-1.874-.339-2.45-1.011zm85.103 0c-.576-.671-.77-1.533-.576-2.593l19.872-93.456c.191-1.055.722-1.943 1.584-2.664.864-.72 1.822-1.079 2.88-1.079h67.97c1.055 0 1.847.359 2.376 1.079.524.721.693 1.609.504 2.664l-3.024 14.257c-.192 1.057-.72 1.921-1.584 2.592-.864.673-1.825 1.008-2.88 1.008h-45.504l-4.032 18.288h42.48c1.055 0 1.847.36 2.376 1.08.524.72.693 1.608.504 2.664l-2.736 13.104c-.193 1.058-.72 1.944-1.584 2.664-.864.72-1.825 1.08-2.88 1.08h-42.479l-3.889 18.72h46.656c1.055 0 1.847.36 2.376 1.08.527.721.695 1.609.504 2.664l-3.024 14.256c-.191 1.06-.72 1.922-1.584 2.593-.862.674-1.775 1.01-2.734 1.01h-69.12c-1.061-.003-1.876-.339-2.452-1.011zm85.103 0c-.576-.671-.771-1.533-.576-2.593l19.872-93.456c.189-1.055.72-1.943 1.584-2.664.864-.72 1.82-1.079 2.88-1.079h35.424c7.583 0 14.4 1.248 20.448 3.743 6.048 2.498 10.847 6.146 14.398 10.944 3.553 4.802 5.327 10.562 5.327 17.28 0 2.016-.238 4.464-.72 7.344-1.345 7.776-2.88 15.12-4.607 22.032-3.456 13.729-9.098 23.735-16.921 30.021-7.822 6.289-19.079 9.435-33.768 9.435h-40.896c-1.054.001-1.87-.335-2.445-1.007zm44.783-20.592c5.952 0 10.704-1.438 14.258-4.317 3.55-2.882 6.095-7.488 7.632-13.824 2.016-8.543 3.55-15.696 4.605-21.456.288-1.919.435-3.647.435-5.184 0-4.32-1.273-7.536-3.816-9.648-2.545-2.11-6.408-3.168-11.592-3.168h-13.68l-12.386 57.6 14.544-.003z" fill="#FFF"/></svg>