<svg xmlns="http://www.w3.org/2000/svg" width="1848.875" height="223.726"><g fill="#fff"><path d="M1585.635 146.16c0 8.111-1.947 15.44-5.907 22.356-3.893 6.645-9.333 11.95-16.226 15.796-7.04 4.018-14.307 5.972-22.24 5.972-7.934 0-15.347-2.056-22.094-6.144-6.68-3.928-11.986-9.44-15.813-16.489-4.013-7.019-5.96-14.29-5.96-22.225 0-7.416 2.053-14.678 6.093-21.539 4.2-6.996 9.614-12.436 16.16-16.195 6.934-4.075 14.2-6.143 21.614-6.143 7.986 0 15.213 2 22.12 6.147 7.013 4.117 12.493 9.6 16.346 16.358 3.92 6.644 5.907 14.08 5.907 22.107zm25.573-28.43c-3.8-9.346-8.92-17.18-15.666-23.938-6.774-7.045-14.694-12.573-23.387-16.376-9.373-4.385-19.347-6.612-29.653-6.612-3.587 0-6.76.127-9.6.388l35.773-64.05h-35.213l-58.854 103.511c-6.266 11.092-9.44 22.791-9.44 34.773 0 15.343 3.96 29.06 11.707 40.682 7.467 11.612 17.24 20.715 29 27.028 11.667 6.375 23.733 9.608 35.893 9.608 13.014 0 25.547-3.553 37.28-10.593 11.347-6.921 20.36-16.03 27.64-27.985 6.854-12.005 10.187-24.358 10.187-37.76 0-9.91-1.853-19.292-5.667-28.675m229.467-49.713c-.813-2.006-1.8-4.139-2.893-6.351-1.68 3.01-3.627 5.904-6.174 8.456-5.573 5.568-12.586 9.113-20.2 10.443 3.827 9.06 5.774 18.895 5.76 29.264 0 10.381-1.946 20.249-5.973 30.16-4.08 10.061-9.733 18.612-17.267 26.14-7.333 7.336-15.693 12.802-25.533 16.718-9.613 3.811-19.4 5.666-29.907 5.666-10.066 0-19.973-2.006-29.466-5.978-9.667-3.928-17.987-9.468-25.454-16.925-9.946-9.957-16.533-21.52-20.093-35.297-3.467-13.867-3.32-27.148.493-40.716 3.454-13.338 10.334-25.242 20.48-35.383 7.347-7.356 16-13.039 25.694-16.883a83.189 83.189 0 0 1 29.386-5.845c9.454.004 18.654 1.805 28.04 5.373 1.28-7.444 4.72-14.582 10.454-20.318 2.44-2.43 5.213-4.339 8.12-5.998-1.827-.873-3.68-1.824-5.494-2.549-13.013-5.205-26.96-7.847-41.466-7.847h-.027c-14.507 0-28.133 2.634-41.773 8.09-13.547 5.692-25.56 13.73-35.734 23.893-14.12 14.119-23.6 30.37-29.04 49.787-4.946 19.024-5.08 38.113-.4 56.673 4.534 18.833 14.08 35.647 28.4 49.973 14.107 14.093 30.76 23.639 49.52 28.378a112.019 112.019 0 0 0 27.507 3.44c9.76 0 19.587-1.28 29.413-3.837 18.84-5.14 35.44-14.788 49.32-28.67 10.507-10.5 18.68-22.797 24.307-36.583 5.427-13.59 8.2-27.54 8.2-41.462 0-14.63-2.693-28.322-8.2-41.812M1446.048 125.5l-.013-.056c-2.307-7.478-5.44-14.202-9.68-20.695-4.173-6.11-9.467-11.772-15.947-17l-.986-.587c-5.28-4.079-10.72-7.232-15.374-9.55l40.28-69.86h-117.413v31.504h62.88l-32.507 56.405 20 5.2c4.294 1.118 18.347 6.123 25.88 13.747.4.563.814 1.11 1.4 1.69 3.6 3.43 6.6 7.782 9.08 13.141 2.4 5.673 3.574 11.103 3.574 16.73.2 7.927-1.774 15.383-6.08 22.906-3.734 6.887-9.027 12.373-15.814 16.359-13.106 7.961-29.866 8.03-43.6.178-6.986-4.113-12.506-9.548-16.413-16.19-4.107-6.848-6.093-14.055-6.093-22.038v-10.478h-31.978v10.478c0 13.667 3.448 26.47 10.196 38.007 6.734 11.784 16.088 21.23 27.808 28.087 11.774 6.895 24.24 10.248 38.094 10.248 13.666 0 26.493-3.448 38.106-10.248 11.747-6.878 21.094-16.133 27.76-27.503 6.787-11.618 10.24-24.439 10.24-38.1 0-7.377-1.12-14.699-3.4-22.375"/><path d="M1804.822 23.518c-5.08 0-10.16 1.932-14.027 5.797-7.733 7.73-7.72 20.308 0 28.036 3.867 3.865 8.947 5.797 14.027 5.797a19.77 19.77 0 0 0 14.013-5.797c7.733-7.73 7.733-20.308 0-28.036a19.77 19.77 0 0 0-14.013-5.797"/><path d="M103.286 7.077v30.22q-11.763-5.26-22.952-7.937-11.19-2.678-21.136-2.678-13.197 0-19.51 3.634-6.311 3.635-6.311 11.285 0 5.739 4.208 8.99 4.303 3.156 15.493 5.451l15.684 3.156q23.813 4.782 33.855 14.537 10.042 9.755 10.042 27.734 0 23.622-14.059 35.194-13.963 11.476-42.749 11.476-13.58 0-27.256-2.582t-27.352-7.65v-31.082q13.676 7.268 26.396 10.998 12.815 3.634 24.674 3.634 12.05 0 18.457-4.017 6.408-4.016 6.408-11.476 0-6.694-4.4-10.329-4.303-3.634-17.31-6.503l-14.25-3.156q-21.42-4.59-31.368-14.632Q0 61.302 0 44.279q0-21.327 13.771-32.803Q27.543 0 53.365 0 65.128 0 77.56 1.817q12.433 1.722 25.726 5.26zm25.397-4.495h99.366v27.83h-62.546V57h58.816v27.83h-58.816v32.707h64.65v27.83h-101.47zM311.83 65.893q11.573 0 16.546-4.304 5.068-4.303 5.068-14.154 0-9.755-5.068-13.963-4.973-4.208-16.545-4.208h-15.493v36.629zm-15.492 25.439v54.034h-36.82V2.582h56.234q28.212 0 41.314 9.468 13.198 9.468 13.198 29.934 0 14.154-6.886 23.24-6.79 9.085-20.561 13.388 7.555 1.722 13.484 7.842 6.025 6.025 12.146 18.362l19.988 40.55h-39.21l-17.406-35.48q-5.26-10.712-10.712-14.633-5.355-3.921-14.345-3.921zm86.592-88.75h37.01l37.872 105.39 37.776-105.39H532.6l-52.886 142.784h-43.897zm157.256 0h99.365v27.83h-62.545V57h58.816v27.83h-58.816v32.707h64.65v27.83h-101.47zm183.148 63.311q11.572 0 16.545-4.304 5.069-4.303 5.069-14.154 0-9.755-5.07-13.963-4.972-4.208-16.544-4.208h-15.493v36.629zm-15.493 25.439v54.034h-36.82V2.582h56.234q28.213 0 41.315 9.468 13.197 9.468 13.197 29.934 0 14.154-6.885 23.24-6.79 9.085-20.562 13.388 7.555 1.722 13.484 7.842 6.026 6.025 12.146 18.362l19.988 40.55h-39.21l-17.406-35.48q-5.26-10.712-10.711-14.633-5.356-3.921-14.346-3.921zm104.984-88.75h36.82v114.954h64.65v27.83h-101.47zm108.113 0h99.365v27.83h-62.546V57h58.816v27.83h-58.816v32.707h64.65v27.83h-101.47zm230.2 4.495v30.22q-11.763-5.26-22.952-7.937-11.19-2.678-21.136-2.678-13.197 0-19.51 3.634-6.311 3.635-6.311 11.285 0 5.739 4.208 8.99 4.303 3.156 15.493 5.451l15.684 3.156q23.813 4.782 33.855 14.537 10.042 9.755 10.042 27.734 0 23.622-14.059 35.194-13.963 11.476-42.749 11.476-13.58 0-27.256-2.582t-27.352-7.65v-31.082q13.676 7.268 26.396 10.998 12.815 3.634 24.674 3.634 12.05 0 18.457-4.017 6.408-4.016 6.408-11.476 0-6.694-4.4-10.329-4.303-3.634-17.31-6.503l-14.25-3.156q-21.421-4.59-31.368-14.632-9.85-10.042-9.85-27.065 0-21.327 13.772-32.803Q1075.395 0 1101.217 0q11.763 0 24.195 1.817 12.433 1.722 25.726 5.26zm124.764 0v30.22q-11.763-5.26-22.953-7.937-11.189-2.678-21.135-2.678-13.198 0-19.51 3.634-6.312 3.635-6.312 11.285 0 5.739 4.208 8.99 4.304 3.156 15.493 5.451l15.685 3.156q23.813 4.782 33.854 14.537 10.042 9.755 10.042 27.734 0 23.622-14.058 35.194-13.963 11.476-42.75 11.476-13.58 0-27.255-2.582-13.676-2.582-27.352-7.65v-31.082q13.676 7.268 26.395 10.998 12.815 3.634 24.674 3.634 12.05 0 18.458-4.017 6.407-4.016 6.407-11.476 0-6.694-4.399-10.329-4.303-3.634-17.31-6.503l-14.25-3.156q-21.422-4.59-31.368-14.632-9.85-10.042-9.85-27.065 0-21.327 13.771-32.803Q1200.16 0 1225.98 0q11.763 0 24.196 1.817 12.433 1.722 25.726 5.26z" aria-label="SERVERLESS" font-weight="600" font-size="146.896" font-family="Montserrat"/></g></svg>