<svg xmlns="http://www.w3.org/2000/svg" width="475.314" height="276">
  <g fill="#ffffff">
    <path d="M44.844 0C37.004 0 32.49.768 28.69 2.793a19.085 19.085 0 0 0-7.972 7.975c-1.573 2.95-1.945 5.708-2.305 8.988-.361 3.289-.49 6.988-.49 10.916v7.34h13v-7.34c0-3.625.134-6.948.414-9.498.28-2.55.93-4.442.853-4.299l.01-.018.01-.02a6.08 6.08 0 0 1 2.549-2.548l.02-.01.017-.01C36.628 13.29 37.595 13 44.844 13h222.158c7.25 0 8.215.29 10.049 1.27l.017.01.018.007a6.086 6.086 0 0 1 2.549 2.55l.01.018.01.02c.979 1.832 1.269 2.797 1.269 10.047v100.101h13V26.922c0-7.841-.77-12.353-2.795-16.152a19.087 19.087 0 0 0-7.97-7.975C279.355.768 274.843 0 267.001 0H44.844zM.057 68.209v11.928h17.867V249.08c0 7.841.768 12.353 2.793 16.152a19.081 19.081 0 0 0 7.974 7.975c3.802 2.027 8.313 2.795 16.153 2.795h222.158c7.84 0 12.351-.77 16.15-2.793a19.08 19.08 0 0 0 7.979-7.979c2.02-3.788 2.804-8.313 2.793-16.16l-.098-67.267v-12.899h17.89v-11.927h-48.718v11.927h17.809l.117 80.186c.01 7.242-.284 8.193-1.27 10.035l-.01.02-.01.02a6.082 6.082 0 0 1-2.548 2.548l-.018.01-.017.01c-1.834.98-2.8 1.269-10.049 1.269H44.844c-7.25 0-8.216-.29-10.045-1.27l-.02-.01-.02-.01a6.08 6.08 0 0 1-2.548-2.548l-.01-.02-.01-.017c-.98-1.832-1.267-2.797-1.267-10.047V80.137h17.851V68.209H.057z"/>
    <path d="M56.669 68.209h44.352v11.508h-31.5v11.928h27.72v11.508H69.52v12.348h31.92v11.508H56.669zm81.825 59.808q-6.468 0-12.012-2.352-5.544-2.352-9.576-6.384-4.032-4.116-6.3-9.66-2.268-5.544-2.268-11.844v-.168q0-6.3 2.268-11.76 2.268-5.544 6.3-9.66 4.032-4.2 9.66-6.552 5.628-2.436 12.432-2.436 4.116 0 7.476.672 3.444.672 6.216 1.848 2.772 1.176 5.124 2.856t4.368 3.696l-8.232 9.492q-3.444-3.108-7.056-4.872-3.528-1.764-7.98-1.764-3.696 0-6.888 1.428-3.108 1.428-5.376 3.948-2.268 2.52-3.528 5.88-1.26 3.276-1.26 7.056v.168q0 3.78 1.26 7.14t3.444 5.88q2.268 2.52 5.376 4.032 3.192 1.428 6.972 1.428 5.04 0 8.484-1.848 3.528-1.848 6.972-5.04l8.232 8.316q-2.268 2.436-4.704 4.368-2.436 1.932-5.376 3.36-2.856 1.344-6.3 2.016-3.444.756-7.728.756zm32.464-59.808h12.936v23.268h23.856V68.209h12.936v58.8H207.75v-23.604h-23.856v23.604h-12.936zm-90.531 88.767h13.944l15.456 24.864 15.456-24.864h13.944v58.8h-12.852v-38.388l-16.548 25.116h-.336l-16.38-24.864v38.136H80.427zm104.612 34.188l-7.812-19.068-7.812 19.068zm-13.608-34.608h11.928l25.2 59.22h-13.524l-5.376-13.188h-24.864l-5.376 13.188H146.23zm65.037 60.06q-6.72 0-13.188-2.268-6.468-2.352-11.76-7.14l7.644-9.156q4.032 3.276 8.232 5.208 4.284 1.932 9.324 1.932 4.032 0 6.216-1.428 2.268-1.512 2.268-4.116v-.168q0-1.26-.504-2.184-.42-1.008-1.764-1.848-1.26-.84-3.612-1.68-2.268-.84-5.964-1.764-4.452-1.092-8.064-2.436-3.612-1.344-6.132-3.276-2.52-2.016-3.948-4.956-1.344-2.94-1.344-7.308v-.168q0-4.032 1.512-7.224 1.512-3.276 4.2-5.628 2.772-2.352 6.552-3.612 3.78-1.26 8.316-1.26 6.468 0 11.844 1.932 5.46 1.932 9.996 5.544l-6.72 9.744q-3.948-2.688-7.728-4.2-3.78-1.596-7.56-1.596t-5.712 1.512q-1.848 1.428-1.848 3.612v.168q0 1.428.504 2.52.588 1.008 2.016 1.848 1.428.84 3.864 1.596 2.52.756 6.3 1.764 4.452 1.176 7.896 2.688 3.528 1.428 5.88 3.528 2.436 2.016 3.612 4.788 1.26 2.772 1.26 6.636v.168q0 4.368-1.596 7.812-1.596 3.36-4.452 5.712-2.856 2.268-6.804 3.528-3.948 1.176-8.736 1.176zm83.365-59.64h44.352v11.508h-31.5v11.928h27.72v11.508h-27.72v12.348h31.92v11.508h-44.772zm80.314 28.56q4.788 0 7.308-2.268 2.604-2.268 2.604-6.048v-.168q0-4.2-2.688-6.3-2.688-2.1-7.476-2.1h-12.852v16.884zm-26.04-28.56h26.88q11.172 0 17.136 5.964 5.04 5.04 5.04 13.44v.168q0 7.14-3.528 11.676-3.444 4.452-9.072 6.552l14.364 21h-15.12l-12.6-18.816h-10.164v18.816h-12.936zm79.619 59.64q-6.72 0-13.188-2.268-6.468-2.352-11.76-7.14l7.644-9.156q4.032 3.276 8.232 5.208 4.284 1.932 9.324 1.932 4.032 0 6.216-1.428 2.268-1.512 2.268-4.116v-.168q0-1.26-.504-2.184-.42-1.008-1.764-1.848-1.26-.84-3.612-1.68-2.268-.84-5.964-1.764-4.452-1.092-8.064-2.436-3.612-1.344-6.132-3.276-2.52-2.016-3.948-4.956-1.344-2.94-1.344-7.308v-.168q0-4.032 1.512-7.224 1.512-3.276 4.2-5.628 2.772-2.352 6.552-3.612 3.78-1.26 8.316-1.26 6.468 0 11.844 1.932 5.46 1.932 9.996 5.544l-6.72 9.744q-3.948-2.688-7.728-4.2-3.78-1.596-7.56-1.596t-5.712 1.512q-1.848 1.428-1.848 3.612v.168q0 1.428.504 2.52.588 1.008 2.016 1.848 1.428.84 3.864 1.596 2.52.756 6.3 1.764 4.452 1.176 7.896 2.688 3.528 1.428 5.88 3.528 2.436 2.016 3.612 4.788 1.26 2.772 1.26 6.636v.168q0 4.368-1.596 7.812-1.596 3.36-4.452 5.712-2.856 2.268-6.804 3.528-3.948 1.176-8.736 1.176z"/>
  </g>
</svg>
