<svg xmlns="http://www.w3.org/2000/svg" viewBox="0 0 199 199.333"><circle cx="40.112" cy="64.434" r="16.563" fill="#9B9BA9"/><path d="M39.413 40.338c-12.225 0-22.135 9.61-22.135 21.465s9.91 21.464 22.135 21.464 22.136-9.61 22.136-21.464-9.91-21.465-22.136-21.465zm.67 42.393c-10.075 0-18.244-8.169-18.244-18.245 0-10.077 8.169-18.245 18.245-18.245s18.245 8.168 18.245 18.245c0 10.076-8.169 18.245-18.245 18.245z" fill="#FFF"/><path d="M28.715 31.154c.552-3.306 3.763-5.523 7.171-4.953a6.305 6.305 0 0 1 4.568 3.29c-.3-2.647-2.373-4.902-5.209-5.376-3.408-.57-6.619 1.648-7.171 4.953a5.91 5.91 0 0 0 .603 3.725 5.887 5.887 0 0 1 .038-1.64z" fill="#9B9BA9"/><path fill="#BCB9CD" d="M33.254 27.654l1.22 5.61-4.147 1.22-.244-3.903z"/><path fill="#9B9BA9" d="M33.254 27.654l4.879.976 1.22 4.39-5.164.57z"/><path d="M16.058 59.77c0-12.508 10.456-22.647 23.355-22.647 10.355 0 19.13 6.537 22.191 15.585-1.439-11.17-11.258-19.813-23.167-19.813-12.898 0-23.355 10.14-23.355 22.647 0 2.467.413 4.839 1.165 7.062a22.149 22.149 0 0 1-.189-2.834z" fill="#BCB9CD"/><path d="M33 62.083l25.667 206.084-30.291.56s6.457-186.435 3.577-200.989L33 62.083z" fill="#D3D3E3"/><path fill="#BCB9CD" d="M40.084 56.68l-2.277.65-4.878 4.88 24.067 205.866 12.85.286.006.04h18.04z"/><path d="M40.084 56.68l7.48 3.903s23.741 102.77 57.565 208.469H87.892L40.084 56.68z" fill="#9B9BA9"/><path d="M29.372 20.113l.366 4.512s.914-.792 2.768-1.219c2.114-.486 3.39.244 3.39.244l-.98-4.268s-.544-1.952-3.349-1.464c-2.424.421-2.195 2.195-2.195 2.195z" fill="#FFF"/><path d="M29.536 18.683c.26-.479.81-.99 1.97-1.192 1.376-.24 2.205.109 2.696.525l-.316-1.373s-.438-1.574-2.699-1.18c-1.953.339-1.77 1.768-1.77 1.768l.119 1.452zm.829-3.247c.11-.203.343-.42.836-.506.584-.102.936.046 1.144.223l-.265-1.665s-.186-.668-1.146-.501c-.829.144-.75.75-.75.75l.18 1.699zm-.231-2.733c.087-.159.269-.329.654-.395.456-.08.732.036.894.174l-.207-1.496s-.146-.522-.896-.392c-.648.113-.587.587-.587.587l.142 1.522zM164.652 114.25l14.5-9.25s-6.25-15-26.75-14.5-27.125 14-27 25.75c.115 10.776 4.875 16.875 14 22.125 7.852 4.518 20.75 9.375 23.75 12.375s3.625 5.125 3.375 8-3.25 8-8.875 8.875c0 0-13.625 3.25-22.75-11.125l-14 8.625s3.375 9.875 16 15.125 28.875 3.625 37-2.375c0 0 10.125-6.125 10.375-20.375s-8-20.875-17.875-25.75-19.552-8.353-21.75-11.125c-2.875-3.625-3.625-8.375.875-12.75s14.625-3.625 19.125 6.375zm-84 69.25s13.5.5 21.5-8c7.167-7.167 6.167-16.833 6.5-22.333v-61.5H90.485V157s.5 10.5-10 10.5c-9.69 0-12.5-10-12.5-10l-14.833 9.167s6.333 16.5 27.5 16.833z" fill="#FFF"/></svg>