<svg xmlns="http://www.w3.org/2000/svg" width="515.141" height="101.754" viewBox="0 0 136.298 26.922"><path d="M59.531 26.639c-3.102-.713-5.399-2.562-6.662-5.365-.7-1.552-.976-5.858-.514-8.01.7-3.27 2.77-5.872 5.52-6.941 2.225-.866 6.274-.879 8.138-.026 1.478.675 3.137 2.153 3.768 3.356.94 1.794 1.418 5.24.962 6.94-.158.588-.198.592-6.28.662l-6.122.071.087.926c.34 3.62 5.11 5.067 6.576 1.994l.426-.893 2.673.948c1.47.522 2.73.995 2.799 1.053.347.289-1.497 3.083-2.481 3.76-2.238 1.54-6.01 2.186-8.89 1.525zm5.156-12.878c.266-.432-.355-2.271-.95-2.809-.858-.777-2.9-.694-3.822.157-.673.621-1.442 2.027-1.442 2.637 0 .356 5.994.37 6.214.015zm56.09 12.837c-4.682-.85-7.656-3.732-8.89-8.613-.477-1.882-.543-2.726-.426-5.413.2-4.57 1.274-7.341 3.72-9.596C117.33.994 120.163.007 123.723 0c7.917-.016 12.536 4.829 12.575 13.192.028 6.175-2.048 10.298-6.207 12.325-2.891 1.41-5.71 1.736-9.314 1.081zm5.081-5.717c1.014-.383 2.136-1.487 2.804-2.76.687-1.31.948-5.57.472-7.697-.824-3.684-4.328-5.582-7.579-4.105-2.13.967-3.031 2.795-3.218 6.528-.209 4.167.92 6.939 3.234 7.947.973.424 3.272.47 4.287.087zM2.914 26.266c.002-.114.3-1.16.662-2.325.361-1.164.657-2.206.657-2.315 0-.11-.952-.199-2.116-.199H0V16.93h5.737l.325-1.085c.18-.598.39-1.252.467-1.456.117-.302-.39-.369-2.797-.369H.794V9.521h7.309l.612-2.117.612-2.116h2.348c1.291 0 2.348.1 2.348.223s-.238.915-.53 1.761c-.78 2.272-.794 2.25 1.274 2.25h1.803l.612-2.118.611-2.116h2.348c1.292 0 2.349.098 2.349.218s-.291 1.073-.646 2.117l-.646 1.898h4.731v4.481l-3.08.075-3.08.074-.356 1.19c-.195.656-.357 1.28-.359 1.39-.002.11 1.365.198 3.039.198h3.042v4.498H17.5l-.754 2.448-.754 2.447-2.307.076c-1.27.043-2.306-.017-2.304-.132.002-.115.3-1.161.661-2.325.362-1.164.658-2.206.658-2.315 0-.11-.825-.199-1.834-.199H9.033l-.754 2.448-.753 2.447-2.308.076c-1.27.043-2.306-.017-2.304-.132zM14.53 15.844c.179-.598.391-1.258.472-1.468.12-.315-.19-.368-1.777-.303l-1.923.078-.355 1.191c-.195.655-.356 1.28-.359 1.39-.002.108.81.198 1.807.198h1.81zm13.78-2.374V.486l6.813.095c6.266.088 6.952.144 8.533.698 4.644 1.624 7.014 5.103 7.33 10.758.36 6.448-1.802 10.978-6.215 13.023-2.24 1.038-4.91 1.375-10.97 1.385l-5.49.01zm12.915 6.589c2.284-1.134 3.076-3.104 2.908-7.23-.121-2.961-.623-4.303-2.06-5.513-1.092-.918-2.353-1.231-4.965-1.233h-2.183v14.893l2.53-.15c1.895-.114 2.84-.306 3.77-.767zm33.124-1.344A2219.015 2219.015 0 0 0 70.75 8.521l-.883-2.455 3.466.074 3.465.074 1.417 4.73c1.421 4.744 2.218 8.064 2.218 9.238 0 1.52.414.807.845-1.455.257-1.352 1.205-4.747 2.105-7.545l1.637-5.085 3.33-.074 3.328-.074.075-2.712.076-2.712h20.354v5.541l-3.506.074-3.505.074-.07 10.12-.069 10.12h-6.337l-.07-10.12-.069-10.12h-6.879l-3.224 8.599c-1.773 4.73-3.476 9.283-3.784 10.12l-.561 1.522h-7.045z" fill="#fff"/></svg>