<svg xmlns="http://www.w3.org/2000/svg" width="234.25" height="126.621"><path d="M51.533 125.02c2.105-2.105 2.058-12.07-.067-14.213-1.339-1.35-.356-1.598 5-1.266 5.749.356 6.726.826 7.093 3.413.234 1.65-.216 3-1 3s-1.426-1.242-1.426-2.76c0-3.993-5.845-3-6.426 1.093-.506 3.562 1.728 3.97 3.653.667 1.077-1.85 1.335-1.229 1.244 3-.062 2.933-.388 4.283-.723 3-.336-1.283-1.466-2.333-2.512-2.333-2.366 0-2.57 6.174-.236 7.117.917.37-.103.72-2.267.777-3.059.082-3.577-.25-2.333-1.494zm15.623-1.743c-.38-1.828-1.016-4.882-1.414-6.787-.516-2.462-.226-3.3 1-2.896.948.312 1.909 3.07 2.134 6.13.338 4.58.892 5.563 3.135 5.563 2.41 0 2.669-.69 2.246-6.003-.628-7.907 1.977-7.1 2.914.903l.705 6.02-5.015.196c-4.344.17-5.108-.248-5.705-3.126zm13.644 2.46c2.01-.81 2.224-8.692.289-10.628-1.827-1.826 6.738-1.962 9.044-.143.917.723 1.667 3.291 1.667 5.707 0 2.415.75 4.695 1.666 5.065.917.37-.133.71-2.333.757-2.648.056-3.403-.294-2.234-1.035 1.061-.673 1.593-2.923 1.333-5.646-.334-3.494-1.04-4.527-3.099-4.527-2.058 0-2.765 1.033-3.099 4.527-.26 2.723.272 4.973 1.333 5.646 1.17.741.414 1.091-2.234 1.035-2.2-.047-3.25-.388-2.333-.757zm16.65-.665c-4.042-4.043-.648-12.558 4.604-11.546 2.56.493 4.225 5.095 1.843 5.095-.787 0-1.28-.675-1.097-1.5.62-2.79-2.809-2.683-4.317.136-3.039 5.677 1.97 11.06 5.3 5.697 1.324-2.133 1.414-2.105 1.052.333-.46 3.1-4.977 4.192-7.384 1.785zm11.683-3.58c0-2.924-.558-5.516-1.24-5.76-.694-.249-.547-1.377.333-2.56 1.424-1.913 1.818-1.882 4.14.334 2.262 2.157 2.301 2.448.334 2.448-1.583 0-2.234 1.142-2.234 3.921 0 4.77 1.977 6.317 3.968 3.107 1.35-2.178 1.433-2.154 1.068.305-.236 1.587-1.606 2.84-3.383 3.093-2.664.38-2.986-.146-2.986-4.889zm9.194 3.91c1.315-.833 1.645-2.779 1.127-6.646-.404-3.008-.191-5.469.473-5.469.663 0 1.206 2.65 1.206 5.89 0 3.463.686 6.165 1.667 6.56.916.37-.134.711-2.334.758-2.809.06-3.446-.266-2.14-1.093zm8.206-.7c-4.002-4.823 1.265-13.738 6.267-10.607 4.867 3.048 3.101 12.526-2.334 12.526-1.287 0-3.057-.864-3.933-1.92zm7.414-2.861c.585-2.33.161-4.15-1.308-5.619-2.008-2.008-2.337-2.008-4.346 0-1.468 1.469-1.892 3.29-1.307 5.619 1.173 4.676 5.787 4.676 6.961 0zm4.186 3.897c2.01-.811 2.224-8.693.289-10.629-1.827-1.826 6.739-1.962 9.044-.143.917.723 1.667 3.291 1.667 5.707 0 2.415.75 4.695 1.667 5.065.916.37-.134.71-2.334.757-2.647.056-3.403-.294-2.234-1.035 1.062-.673 1.593-2.923 1.333-5.646-.333-3.494-1.04-4.527-3.099-4.527-2.058 0-2.765 1.033-3.099 4.527-.26 2.723.272 4.973 1.334 5.646 1.168.741.413 1.091-2.235 1.035-2.2-.047-3.25-.388-2.333-.757zm15.803-.092c-1.803-1.803-.604-4.5 2.53-5.692 1.834-.697 3.334-2.182 3.334-3.3 0-2.681-2.218-2.6-3.75.138-.724 1.295-1.552 1.625-2.051.818-.46-.745.107-2.137 1.26-3.094 3.245-2.693 6.467.156 6.97 6.163.31 3.705.766 4.59 1.646 3.199 1.023-1.617 1.22-1.577 1.238.252.015 1.632-1.28 2.194-5.177 2.248-2.858.04-5.558-.29-6-.732zm5.573-2.82c.383-1.147-.259-1.627-1.779-1.333-1.307.254-2.645 1.268-2.973 2.255-.382 1.147.259 1.628 1.779 1.333 1.307-.253 2.645-1.268 2.973-2.254zm8.024 2.195c2.145-2.145 2.092-13.98-.067-14.85-.995-.402-.727-.716.667-.778 1.971-.09 2.333 1.119 2.333 7.783 0 5.064.597 8.13 1.667 8.562.917.37-.103.72-2.267.777-3.059.082-3.577-.25-2.333-1.494zm10.681.45c1.153-.73 1.607-3.3 1.334-7.542-.437-6.77-3.129-9.628-4.13-4.385-.523 2.733-.609 2.667-.77-.59-.175-3.535.057-3.667 6.485-3.667 6.404 0 6.663.145 6.582 3.667-.083 3.617-.101 3.625-1.331.555-1.898-4.735-4.533-2.717-5.008 3.834-.318 4.383.163 6.277 1.921 7.563 2.078 1.519 1.822 1.712-2.242 1.694-2.958-.013-3.967-.414-2.84-1.129zm12.995-1.814c-1.142-1.63-2.076-4.196-2.076-5.703 0-4.155 3.772-8.667 7.246-8.667 4.18 0 6.354 2.966 6.354 8.667 0 2.606-.733 5.622-1.63 6.703-2.408 2.901-7.524 2.385-9.894-1zm8.518-.283c2.176-2.621 1.233-10.176-1.482-11.875-3.222-2.016-6.445 1.16-6.445 6.352 0 6.55 4.483 9.674 7.927 5.523zm-80.594-12.753c.453-.734 1.089-1.334 1.412-1.334.323 0 .588.6.588 1.334 0 .733-.635 1.333-1.412 1.333-.777 0-1.041-.6-.588-1.333zM18.522 91.354c-2.392-2.882-4.237-20.474-3.78-36.03l.391-13.297-5.333.367c-6.194.425-10.856-2.287-9.592-5.58.65-1.696 2.644-2.193 8.789-2.193h7.947l1.58-7.667c2.61-12.665 7.852-24.365 11.545-25.77 8.592-3.266 17.73.553 17.73 7.41 0 4.834-2.715 5.586-5.645 1.563-2.907-3.99-6.498-4.536-9.579-1.455-1.706 1.706-4.92 10.805-8.238 23.318-.436 1.647.402 1.955 4.133 1.52 6.713-.784 13.996.837 13.996 3.116 0 2.032-2.064 2.67-12.56 3.884-3.61.417-6.743.94-6.964 1.16-1.51 1.511-2.584 23.007-1.513 30.295 2.617 17.8 1.572 24.757-2.907 19.36zm49.422-14.219c-3.712-3.985-9.295-16.197-10.966-23.99-2.172-10.129-.87-23.38 3.164-32.19C63.599 13.403 73.294 2.62 76.627 2.62c2.693 0 2.247 2.727-1.013 6.197-3.017 3.212-4.926 6.213-8.779 13.803-1.835 3.614-2.358 7.822-2.321 18.666.05 14.628.385 15.752 8.56 28.667 1.392 2.2 2.575 4.98 2.628 6.178.15 3.354-4.952 4.014-7.758 1.003zm144.372.908c-.465-1.211 1.149-4.277 4.009-7.619 8.998-10.511 12.711-28.256 8.863-42.35-1.4-5.124-4.506-11.37-6.693-13.453-2.06-1.964-4.277-8.097-3.581-9.91 1.49-3.884 5.957-2.285 9.99 3.576 12.952 18.829 12.372 46.752-1.304 62.751-6.55 7.664-10.17 9.91-11.284 7.005zM103.785 67.269c-1.276-1.537-1.447-6.623-.719-21.333l.957-19.315H93.292c-9.255 0-10.922-.356-12.116-2.586-2.044-3.82.444-4.715 11.801-4.241 7.158.298 10.148-.079 10.96-1.382.864-1.389 1.67-1.448 3.582-.263 1.505.932 9.394 1.57 20.232 1.636 9.771.06 18.09.432 18.485.827 2.233 2.234-4.031 3.87-17.665 4.615-8.43.461-15.593 1.113-15.919 1.449-.326.336-.914 5.411-1.306 11.278-2.1 31.361-2.993 34.82-7.561 29.315zm50.616-1.173c-2.602-.812-6.196-2.533-7.987-3.825-8.62-6.223.857-34.968 13.785-41.811 4.547-2.407 20.999-2.257 28.315.259 5.748 1.975 12.142 8.434 14.911 15.061 1.686 4.035 1.663 5.24-.19 10.09-1.263 3.308-3.682 6.442-6.054 7.844-2.173 1.283-4.723 3.073-5.666 3.977-1.987 1.904-10.31 5.513-17.049 7.392-7.863 2.193-15.105 2.558-20.065 1.013zm22.189-8.576c3.734-1.291 9.884-4.57 13.666-7.288 6.215-4.465 6.877-5.43 6.877-10.026 0-5.25-3.652-10.035-10.246-13.423-6.36-3.268-22.528-.33-26.664 4.846-4.295 5.376-7.987 11.996-9.453 16.947-1.29 4.362-1.215 5.823.43 8.334 1.73 2.64 3.097 3.038 10.297 3 4.567-.024 11.358-1.1 15.093-2.39z" fill="#fff"/></svg>