<svg xmlns="http://www.w3.org/2000/svg" xmlns:xlink="http://www.w3.org/1999/xlink" width="51.75" height="49.944"><defs><path id="a" d="M3.57 0H4v13H0V4.45z"/></defs><g transform="translate(-16 -17)" fill="none"><path d="M19 34.344h6.799V27.42C25.799 20.93 30.49 17 38.58 17c1.36 0 3.127.25 4.419.686v5.054c-1.292-.437-2.924-.624-4.42-.624-4.418 0-6.39 1.81-6.39 5.303v6.925H43v5.053H32.19V52h-6.391V39.397H19m12.982 17.607c-.715 6.234-4.967 9.94-11.848 9.94-1.272 0-2.926-.285-4.134-.782v-5.763c1.208.497 2.735.71 4.134.71 3.399 0 5.25-1.394 5.8-4.105z" fill="#fff"/><use xlink:href="#a" transform="translate(48 21)" width="100%" height="100%" fill="#0fdbc6"/><g transform="translate(56 20)" stroke="#0fdbc6" stroke-width="3.5"><path d="M7.339 14.994C8.922 14.282 10 12.87 10 11.244 10 8.9 7.761 7 5 7s-5 1.9-5 4.243C0 12.873 1.084 14.29 2.674 15"/><ellipse cx="5" cy="3.5" rx="4" ry="3.5"/></g></g></svg>