<svg width="669" height="164" xmlns="http://www.w3.org/2000/svg" xmlns:xlink="http://www.w3.org/1999/xlink"><defs><path id="a" d="M0 30.827h47.947V.01H0z"/><path id="c" d="M8.925 0H10v31H0V10.61z"/></defs><g fill="none" fill-rule="evenodd"><path d="M10 54.51h19.83V32.745C29.83 12.353 43.512 0 67.11 0 71.077 0 76.233.784 80 2.157v15.882c-3.768-1.373-8.527-1.96-12.89-1.96-12.889 0-18.641 5.686-18.641 16.666V54.51H80v15.881H48.469V110h-18.64V70.391H10" fill="#FFF"/><g transform="translate(0 133)"><mask id="b" fill="#fff"><use xlink:href="#a"/></mask><path d="M47.947.011C45.8 19.34 33.045 30.828 12.402 30.828c-3.817 0-8.777-.884-12.402-2.426V10.536c3.625 1.542 8.205 2.204 12.402 2.204 10.196 0 15.75-4.325 17.402-12.729h18.143z" fill="#FFF" mask="url(#b)"/></g><path d="M262.964 67.788c-14.171 1.207-22.15 10.204-22.15 27.667 0 18.652 9.266 27.64 25.567 27.64 6.863 0 14.584-1.356 21.619-3.561v13.734c-6.35 2.036-15.1 3.732-21.62 3.732-26.767 0-42.38-15.6-42.38-41.545 0-24.98 14.289-40.183 38.96-41.455l.004 13.788zm-131.022 49.355c0 3.936 1.717 5.819 5.666 5.819 1.518 0 2.991-.233 4.392-.575l-.001 13.552c-2.652.606-5.657 1.061-8.51 1.061-5.15 0-9.958-1.713-13.047-4.794-6.35 2.911-13.389 4.794-21.113 4.794C78.044 137 65 125.873 65 107.042V55h16.134v52.042c0 10.441 6.18 15.92 18.195 15.92 6.18 0 11.33-1.199 16.48-3.252M147 59.687C156.791 57.175 169.85 55 179.64 55 200.945 55 214 65.712 214 84.289V135h-16.149V84.289c0-10.376-6.357-15.732-18.21-15.732-5.67 0-11.338.837-16.492 2.175" fill="#FFF"/><path fill="#FFF" d="M163 60v42h-16V60zm-31 26v42h-16V86zm235 49h16V55h-16zm105-38.07C472 70.918 457.211 55 433.586 55 409.958 55 395 70.917 395 96.93c0 20.169 9.111 34.395 24.341 39.67v-16.986c-4.894-4.604-7.682-12.209-7.682-22.683 0-18.312 8.499-28.068 21.927-28.068 13.256 0 21.757 9.756 21.757 28.068 0 11.265-3.227 19.212-8.789 23.672V137C462.492 132.081 472 117.645 472 96.93m79-11.91C551 65.979 537.945 55 516.643 55c-9.793 0-22.851 2.23-32.643 4.804V137h16.149V71.125c5.155-1.371 10.823-2.23 16.494-2.23 11.852 0 18.21 5.489 18.21 16.126v25.033H551V85.02zm11-5.46c0 15.754 11.475 24.224 30.829 24.224 10.62 0 14.728 3.896 14.728 9.994 0 5.25-4.109 10.331-18.153 10.331-8.392 0-17.641-1.524-27.062-4.403v13.89c9.077 2.71 17.642 4.404 27.062 4.404C613.21 138 624 125.804 624 112.76c0-15.921-11.304-24.221-31.171-24.221-10.277 0-14.386-4.066-14.386-9.994 0-4.742 3.938-9.825 17.64-9.825.328 0 .668.02 1 .024V55.022c-.335-.004-.664-.022-1-.022C572.617 55 562 67.027 562 79.56zM341.99 136c3.387 0 7.79-.86 11.01-1.892V120c-3.22 1.204-7.284 1.892-11.01 1.892-3.163 0-5.806-.439-7.99-1.27v14.72c2.495.42 5.148.658 7.99.658M353 68.91V55.015h-27.025V31l-15.977 2.402v21.613H293V68.91h16.998v39.624c0 .843.05 1.654.101 2.466h16.014a23.605 23.605 0 0 1-.138-2.466V68.91H353z"/><use fill="#0FDBC6" xlink:href="#c" transform="translate(622 40)"/><g transform="translate(641 35)" stroke="#0FDBC6" stroke-width="9"><path d="M16.88 38.986c3.64-1.78 6.12-5.312 6.12-9.378C23 23.749 17.851 19 11.5 19S0 23.75 0 29.608C0 33.684 2.493 37.224 6.15 39"/><ellipse cx="11.5" cy="9.5" rx="10.5" ry="9.5"/></g></g></svg>