<svg width="175.75" height="42" enable-background="new 0 0 183.122 48.105" version="1.1" viewBox="0 0 175.75 42" xml:space="preserve" xmlns="http://www.w3.org/2000/svg">
<path d="m28.727 1.186 16.846 40.331v-40.331zm-28.727 0v40.331l16.859-40.331zm15.427 32.219h7.855l3.21 8.112h7.034l-10.732-25.468z" fill="#fff"/>
<path d="m69.631 1.08-9.12 40.438h5.52l2.4-11.159h8.4l2.34 11.159h5.58l-8.58-40.438zm-0.54 24.778 1.92-9.659c0.54-2.58 1.14-6.3 1.56-9.239h0.24c0.42 2.88 0.96 6.479 1.5 9.239l1.86 9.659zm36.729-25.858h-5.64v15.179h-0.12c-1.02-2.22-2.88-3.3-5.22-3.3-4.619 0-9 4.858-9 15.179 0 9.06 3.3 14.939 8.7 14.939 2.938 0 5.159-1.98 6.119-4.021h0.181l0.359 3.54h4.859c-0.12-2.04-0.24-5.279-0.24-7.499zm-5.64 31.259c0 0.659-0.061 1.38-0.18 1.858-0.96 3.479-2.641 4.141-3.9 4.141-3 0-4.56-4.199-4.56-10.199 0-5.4 1.199-10.32 4.739-10.32 2.04 0 3.54 2.28 3.84 4.92 0.061 0.601 0.061 1.261 0.061 1.801zm19.373-19.38c-5.339 0-10.319 4.5-10.319 15.119 0 10.021 4.2 15 10.021 15h0.061c4.439 0 10.14-3.54 10.14-15.119-3e-3 -9.839-4.143-15-9.903-15zm-0.119 25.678h-0.061c-3.659 0-4.5-5.76-4.5-10.619 0-4.38 0.721-10.62 4.439-10.62 3.6 0 4.38 6.24 4.38 10.62 2e-3 4.441-0.779 10.619-4.258 10.619zm25.297-25.678c-2.579 0-4.619 1.14-6.119 3.779h-0.12v-15.658h-5.64v34.019c0 2.22-0.12 5.521-0.24 7.499h4.86l0.3-3.659h0.239c1.261 2.58 2.88 4.141 5.76 4.141 4.8 0 9.061-5.102 9.061-15.54-2e-3 -8.941-3.122-14.581-8.101-14.581zm-2.22 25.379c-1.141 0-2.88-0.721-3.78-4.26-0.18-0.479-0.239-1.141-0.239-1.801v-8.158c0-0.602 0.061-1.381 0.181-1.98 0.42-2.1 1.92-4.32 3.778-4.32 3.36 0 4.682 4.5 4.682 10.08-2e-3 5.999-1.263 10.439-4.622 10.439zm23.561-25.379c-6.061 0-10.439 5.88-10.439 15.418 0 9 3.841 14.52 11.16 14.52 2.579 0 5.22-0.479 6.96-1.379l-0.841-4.08c-1.261 0.601-3 1.079-5.039 1.079-3.421 0-6.66-1.859-6.721-9.358l13.68 0.061c0.061-0.78 0.119-1.681 0.119-3.12 0-7.321-2.819-13.141-8.879-13.141zm-4.86 12.179c0.181-3.66 1.5-7.92 4.439-7.92 2.22 0 4.021 2.76 3.96 7.92zm13.492-10.911v-0.011c0.155-0.046 0.282-0.162 0.282-0.353 0-0.139-0.046-0.236-0.133-0.3-0.086-0.063-0.229-0.109-0.449-0.109-0.173 0-0.288 0.018-0.409 0.034v1.448h0.23v-0.623h0.161c0.185 0 0.276 0.069 0.312 0.254 0.028 0.19 0.063 0.323 0.1 0.369h0.24c-0.021-0.046-0.058-0.133-0.092-0.357-0.029-0.214-0.115-0.329-0.242-0.352zm-0.311-0.093h-0.167v-0.49c0.04-5e-3 0.092-0.011 0.167-0.011 0.26 0 0.352 0.126 0.352 0.253-1e-3 0.18-0.162 0.248-0.352 0.248zm0.081-1.251h-6e-3c-0.709 0-1.286 0.577-1.286 1.298 0 0.732 0.577 1.303 1.286 1.303 0.715 0 1.28-0.57 1.28-1.303 0-0.721-0.565-1.298-1.274-1.298zm0 2.399c-0.577 0-1.044-0.483-1.044-1.101 0-0.605 0.467-1.096 1.038-1.096h6e-3c0.576 0 1.037 0.49 1.037 1.102 0 0.61-0.461 1.101-1.037 1.095zm-126.68-13.016h-6e-3c-0.71 0-1.286 0.577-1.286 1.297 0 0.732 0.576 1.303 1.286 1.303 0.715 0 1.279-0.57 1.279-1.303 1e-3 -0.72-0.564-1.297-1.273-1.297zm0 2.399c-0.577 0-1.043-0.484-1.043-1.102 0-0.604 0.467-1.096 1.038-1.096h6e-3c0.577 0 1.038 0.49 1.038 1.101-2e-3 0.613-0.463 1.103-1.039 1.097zm0.231-1.055v-0.012c0.155-0.046 0.282-0.162 0.282-0.352 0-0.139-0.046-0.237-0.132-0.301-0.086-0.063-0.231-0.108-0.45-0.108-0.172 0-0.288 0.017-0.409 0.035v1.446h0.231v-0.622h0.161c0.185 0 0.276 0.069 0.312 0.254 0.028 0.19 0.063 0.322 0.098 0.369h0.243c-0.023-0.046-0.058-0.133-0.093-0.357-0.03-0.214-0.116-0.329-0.243-0.352zm-0.312-0.093h-0.167v-0.49c0.04-5e-3 0.092-0.012 0.167-0.012 0.259 0 0.352 0.127 0.352 0.254 0 0.179-0.162 0.248-0.352 0.248z" fill="#fff"/>
</svg>
