<svg width="480.25" height="129.87" version="1.1" viewBox="0 0 480.25 129.87" xml:space="preserve" xmlns="http://www.w3.org/2000/svg"><g transform="matrix(1.3333 0 0 -1.3333 -143.88 256.94)"><g transform="scale(.1)" fill="#fff"><path d="m1772.8 1510.1h-302.67c-7.81 0-14.14-6.34-14.14-14.15v-147.98c0-7.81 6.33-14.17 14.14-14.17h118.07v-183.85s-26.51-9.04-99.81-9.04c-86.47 0-207.27 31.6-207.27 297.23 0 265.7 125.79 300.65 243.88 300.65 102.23 0 146.26-17.99 174.29-26.67 8.81-2.7 16.95 6.07 16.95 13.89l33.76 142.97c0 3.67-1.24 8.06-5.4 11.05-11.38 8.12-80.81 46.97-256.21 46.97-202.05 0-409.32-85.96-409.32-499.22s237.3-474.84 437.27-474.84c165.57 0 266.01 70.751 266.01 70.751 4.14 2.29 4.59 8.08 4.59 10.72v461.54c0 7.81-6.33 14.15-14.14 14.15"/><path d="m3332.6 1877.5c0 7.88-6.24 14.23-14.06 14.23h-170.42c-7.78 0-14.11-6.35-14.11-14.23 0-0.03 0.05-329.34 0.05-329.34h-265.65v329.34c0 7.88-6.26 14.23-14.06 14.23h-170.41c-7.75 0-14.08-6.35-14.08-14.23v-891.77c0-7.871 6.33-14.262 14.08-14.262h170.41c7.8 0 14.06 6.391 14.06 14.262v381.45h265.65s-0.47-381.42-0.47-381.45c0-7.871 6.32-14.262 14.12-14.262h170.82c7.81 0 14.05 6.391 14.07 14.262v891.77"/><path d="m2094.4 1760.5c0 61.36-49.19 110.95-109.89 110.95-60.64 0-109.88-49.59-109.88-110.95 0-61.31 49.24-111.04 109.88-111.04 60.7 0 109.89 49.73 109.89 111.04"/><path d="m2082.2 1173.9v411.64c0 7.82-6.31 14.21-14.1 14.21h-169.89c-7.79 0-14.76-8.04-14.76-15.85v-589.77c0-17.328 10.8-22.488 24.77-22.488h153.06c16.8 0 20.92 8.25 20.92 22.769v179.49"/><path d="m3980.3 1598.4h-169.11c-7.75 0-14.07-6.4-14.07-14.27v-437.25s-42.97-31.44-103.95-31.44c-60.97 0-77.15 27.67-77.15 87.37v381.32c0 7.87-6.3 14.27-14.07 14.27h-171.64c-7.74 0-14.09-6.4-14.09-14.27v-410.18c0-177.36 98.84-220.75 234.81-220.75 111.56 0 201.5 61.638 201.5 61.638s4.28-32.49 6.22-36.33c1.93-3.839 6.98-7.73 12.44-7.73l109.19 0.492c7.74 0 14.09 6.399 14.09 14.238l-0.06 598.62c0 7.87-6.31 14.27-14.11 14.27"/><path d="m4375.8 1116c-58.66 1.78-98.45 28.41-98.45 28.41v282.4s39.25 24.06 87.41 28.36c60.9 5.46 119.58-12.94 119.58-158.22 0-153.19-26.48-183.42-108.54-180.95zm66.7 502.45c-96.05 0-161.38-42.85-161.38-42.85v301.96c0 7.88-6.3 14.23-14.06 14.23h-170.91c-7.77 0-14.08-6.35-14.08-14.23v-891.77c0-7.871 6.31-14.262 14.1-14.262h118.58c5.34 0 9.38 2.75 12.37 7.559 2.95 4.801 7.2 41.131 7.2 41.131s69.88-66.229 202.17-66.229c155.32 0 244.39 78.779 244.39 353.66s-142.26 310.8-238.38 310.8"/><path d="m2572 1599.8h-127.84s-0.19 168.84-0.19 168.88c0 6.4-3.3 9.59-10.69 9.59h-174.2c-6.78 0-10.41-2.98-10.41-9.49v-174.52s-87.3-21.08-93.21-22.77c-5.87-1.71-10.2-7.13-10.2-13.6v-109.67c0-7.89 6.3-14.25 14.09-14.25h89.32v-263.84c0-195.97 137.46-215.22 230.21-215.22 42.39 0 93.09 13.622 101.46 16.704 5.06 1.867 8 7.109 8 12.8l0.15 120.64c0 7.86-6.65 14.24-14.13 14.24-7.46 0-26.51-3.04-46.13-3.04-62.8 0-84.07 29.2-84.07 66.99 0 37.77-0.01 250.73-0.01 250.73h127.85c7.79 0 14.1 6.36 14.1 14.25v137.37c0 7.87-6.31 14.21-14.1 14.21"/></g></g></svg>
