<svg width="480.25" height="129.87" xmlns="http://www.w3.org/2000/svg"><path d="M92.487 55.598H52.132a1.886 1.886 0 0 0-1.885 1.887v19.73a1.89 1.89 0 0 0 1.885 1.89h15.743v24.512s-3.535 1.205-13.308 1.205c-11.529 0-27.635-4.213-27.635-39.63 0-35.425 16.771-40.085 32.516-40.085 13.63 0 19.501 2.399 23.238 3.556 1.175.36 2.26-.81 2.26-1.852L89.448 7.75c0-.49-.166-1.075-.72-1.473C87.21 5.193 77.953.013 54.567.013 27.627.013-.008 11.474-.008 66.574s31.64 63.31 58.302 63.31c22.075 0 35.467-9.433 35.467-9.433.552-.305.612-1.077.612-1.429V57.485a1.886 1.886 0 0 0-1.886-1.887M300.456 6.613a1.88 1.88 0 0 0-1.875-1.897h-22.722a1.889 1.889 0 0 0-1.881 1.897l.006 43.91h-35.419V6.614c0-1.05-.835-1.897-1.875-1.897h-22.72a1.888 1.888 0 0 0-1.878 1.897v118.9c0 1.05.844 1.901 1.878 1.901h22.72c1.04 0 1.875-.852 1.875-1.901v-50.86h35.42l-.063 50.86c0 1.05.842 1.901 1.882 1.901h22.776c1.04 0 1.873-.852 1.876-1.901V6.613m-165.09 15.6c0-8.182-6.558-14.793-14.651-14.793-8.085 0-14.65 6.611-14.65 14.793 0 8.174 6.565 14.804 14.65 14.804 8.093 0 14.651-6.63 14.651-14.804m-1.626 78.211V45.54a1.89 1.89 0 0 0-1.88-1.895h-22.652c-1.038 0-1.968 1.072-1.968 2.114v78.634c0 2.31 1.44 2.998 3.303 2.998h20.407c2.24 0 2.79-1.1 2.79-3.036v-23.931m253.073-56.599h-22.547c-1.033 0-1.876.854-1.876 1.903v58.298s-5.73 4.192-13.86 4.192c-8.129 0-10.286-3.689-10.286-11.649V45.728c0-1.05-.84-1.903-1.876-1.903h-22.885c-1.032 0-1.878.854-1.878 1.903v54.69c0 23.647 13.178 29.432 31.307 29.432 14.874 0 26.866-8.218 26.866-8.218s.57 4.332.83 4.844c.256.511.93 1.03 1.658 1.03l14.558-.065c1.032 0 1.879-.854 1.879-1.899l-.008-79.814c0-1.05-.842-1.902-1.882-1.902m52.732 64.318c-7.82-.238-13.126-3.788-13.126-3.788V66.703s5.233-3.207 11.654-3.78c8.12-.729 15.944 1.724 15.944 21.095 0 20.424-3.53 24.455-14.472 24.126zm8.894-66.992c-12.807 0-21.517 5.713-21.517 5.713V6.605c0-1.05-.84-1.897-1.875-1.897H402.26a1.886 1.886 0 0 0-1.878 1.897v118.9a1.89 1.89 0 0 0 1.88 1.901h15.81c.713 0 1.251-.366 1.65-1.008.393-.64.96-5.484.96-5.484s9.317 8.83 26.955 8.83c20.709 0 32.585-10.503 32.585-47.153s-18.968-41.439-31.783-41.439m-249.394 2.487H182l-.025-22.517c0-.853-.44-1.279-1.426-1.279h-23.226c-.904 0-1.388.398-1.388 1.266v23.268s-11.64 2.81-12.428 3.036a1.89 1.89 0 0 0-1.36 1.814v14.622c0 1.052.84 1.9 1.88 1.9h11.908v35.178c0 26.128 18.328 28.695 30.694 28.695 5.652 0 12.412-1.816 13.528-2.227.674-.25 1.066-.948 1.066-1.707l.02-16.085c0-1.048-.886-1.898-1.884-1.898-.994 0-3.534.405-6.15.405-8.373 0-11.21-3.893-11.21-8.932v-33.43h17.046c1.038 0 1.88-.848 1.88-1.9V45.533c0-1.05-.842-1.895-1.88-1.895" fill="#fff"/></svg>