<svg width="507.82" height="151.2" version="1.1" viewBox="0 0 507.82 151.2" xml:space="preserve" xmlns="http://www.w3.org/2000/svg">
<style type="text/css">
	.st0{fill:#FFFFFF;}
	.st1{font-family:'Avenir-Medium';}
	.st2{font-size:76.4724px;}
</style><g fill="#fff">
<g transform="translate(166.6 61.773)" aria-label="Standard"><path d="m40.925-53.919v7.356q-4.2941-2.0537-8.1028-3.0619t-7.356-1.0082q-6.1611 0-9.5217 2.3898-3.3233 2.3898-3.3233 6.7959 0 3.6967 2.2031 5.601 2.2404 1.867 8.4388 3.0245l4.5555 0.9335q8.4388 1.6056 12.434 5.6757 4.0327 4.0327 4.0327 10.829 0 8.1028-5.4516 12.285-5.4143 4.1821-15.907 4.1821-3.958 0-8.4388-0.89616-4.4435-0.89616-9.223-2.6511v-7.7667q4.5928 2.5765 8.9989 3.8834 4.4061 1.3069 8.6629 1.3069 6.4598 0 9.9698-2.5391 3.51-2.5391 3.51-7.244 0-4.1074-2.5391-6.4225-2.5018-2.3151-8.2521-3.4726l-4.5928-0.89616q-8.4388-1.6803-12.21-5.2649-3.7713-3.5846-3.7713-9.9698 0-7.3933 5.1903-11.65 5.2276-4.2568 14.376-4.2568 3.9207 0 7.9908 0.70946 4.0701 0.70946 8.3268 2.1284z"/><path d="m62.545-53.695v11.874h14.152v5.3396h-14.152v22.703q0 5.1156 1.3816 6.5718 1.4189 1.4563 5.713 1.4563h7.0573v5.7504h-7.0573q-7.9534 0-10.978-2.9499-3.0245-2.9872-3.0245-10.829v-22.703h-5.0409v-5.3396h5.0409v-11.874z"/><path d="m104.78-21.022q-8.3268 0-11.538 1.9043t-3.2112 6.4972q0 3.6593 2.3898 5.825 2.4271 2.1284 6.5718 2.1284 5.713 0 9.1483-4.0327 3.4726-4.0701 3.4726-10.791v-1.5309zm13.704-2.8378v23.86h-6.8706v-6.3478q-2.3524 3.8087-5.8624 5.6383-3.51 1.7923-8.5882 1.7923-6.4225 0-10.231-3.5846-3.7713-3.622-3.7713-9.6711 0-7.0573 4.7048-10.642 4.7422-3.5846 14.115-3.5846h9.6337v-0.67212q0-4.7422-3.1366-7.3186-3.0992-2.6138-8.7376-2.6138-3.5846 0-6.9826 0.85882-3.3979 0.85882-6.5345 2.5765v-6.3478q3.7713-1.4563 7.3186-2.1657 3.5473-0.7468 6.9079-0.7468 9.0736 0 13.554 4.7048 4.4808 4.7048 4.4808 14.264z"/><path d="m167.43-25.242v25.242h-6.8706v-25.018q0-5.9371-2.3151-8.8869t-6.9452-2.9499q-5.5637 0-8.7749 3.5473-3.2112 3.5473-3.2112 9.6711v23.636h-6.9079v-41.821h6.9079v6.4972q2.4644-3.7713 5.7877-5.6383 3.3606-1.867 7.7294-1.867 7.2066 0 10.903 4.4808 3.6967 4.4435 3.6967 13.106z"/><path d="m208.73-35.473v-22.628h6.8706v58.101h-6.8706v-6.2731q-2.1657 3.734-5.489 5.5637-3.2859 1.7923-7.9161 1.7923-7.58 0-12.36-6.0491-4.7422-6.0491-4.7422-15.907t4.7422-15.907q4.7795-6.0491 12.36-6.0491 4.6302 0 7.9161 1.8297 3.3233 1.7923 5.489 5.5263zm-23.412 14.6q0 7.58 3.0992 11.911 3.1366 4.2941 8.5882 4.2941 5.4516 0 8.5882-4.2941 3.1366-4.3314 3.1366-11.911t-3.1366-11.874q-3.1366-4.3314-8.5882-4.3314-5.4516 0-8.5882 4.3314-3.0992 4.2941-3.0992 11.874z"/><path d="m248.76-21.022q-8.3268 0-11.538 1.9043-3.2112 1.9043-3.2112 6.4972 0 3.6593 2.3898 5.825 2.4271 2.1284 6.5718 2.1284 5.713 0 9.1483-4.0327 3.4726-4.0701 3.4726-10.791v-1.5309zm13.704-2.8378v23.86h-6.8706v-6.3478q-2.3524 3.8087-5.8624 5.6383-3.51 1.7923-8.5882 1.7923-6.4225 0-10.231-3.5846-3.7713-3.622-3.7713-9.6711 0-7.0573 4.7048-10.642 4.7422-3.5846 14.115-3.5846h9.6337v-0.67212q0-4.7422-3.1366-7.3186-3.0992-2.6138-8.7376-2.6138-3.5846 0-6.9826 0.85882-3.398 0.85882-6.5345 2.5765v-6.3478q3.7713-1.4563 7.3186-2.1657 3.5473-0.7468 6.9079-0.7468 9.0736 0 13.554 4.7048 4.4808 4.7048 4.4808 14.264z"/><path d="m300.89-35.398q-1.1575-0.67212-2.5391-0.97084-1.3442-0.33606-2.9872-0.33606-5.825 0-8.9616 3.8087-3.0992 3.7713-3.0992 10.866v22.031h-6.9079v-41.821h6.9079v6.4972q2.1657-3.8087 5.6384-5.6383 3.4726-1.867 8.4388-1.867 0.70946 0 1.5683 0.11202 0.85882 0.07468 1.9043 0.26138z"/><path d="m334.34-35.473v-22.628h6.8706v58.101h-6.8706v-6.2731q-2.1657 3.734-5.489 5.5637-3.2859 1.7923-7.9161 1.7923-7.58 0-12.36-6.0491-4.7422-6.0491-4.7422-15.907t4.7422-15.907q4.7795-6.0491 12.36-6.0491 4.6302 0 7.9161 1.8297 3.3233 1.7923 5.489 5.5263zm-23.412 14.6q0 7.58 3.0992 11.911 3.1366 4.2941 8.5882 4.2941 5.4516 0 8.5882-4.2941 3.1366-4.3314 3.1366-11.911t-3.1366-11.874q-3.1366-4.3314-8.5882-4.3314-5.4516 0-8.5882 4.3314-3.0992 4.2941-3.0992 11.874z"/></g>
<g transform="translate(-254.2,-303)">
	<path class="st0" d="m318.2 394.7-20.7-20.7 55.4-55.4-6.9-6.9c-1.4-1.4-3-2.7-4.6-3.8-0.8-0.5-1.7-1-2.5-1.5-4.3-2.2-8.9-3.4-13.6-3.4s-9.4 1.1-13.6 3.4c-0.9 0.4-1.7 0.9-2.5 1.5-1.6 1.1-3.2 2.3-4.6 3.8l-9 9-30.6 30.4-2.1 2.1c-0.7 0.7-1.4 1.4-2 2.2-0.5 0.6-0.9 1.2-1.4 1.8-0.1 0.2-0.3 0.4-0.4 0.6l-0.6 0.9c-0.1 0.1-0.1 0.2-0.2 0.3-0.3 0.4-0.5 0.8-0.7 1.2-0.3 0.5-0.6 1.1-0.8 1.6-0.1 0.3-0.3 0.6-0.4 1l-0.3 0.9c-0.1 0.2-0.1 0.4-0.2 0.6 0 0.1-0.1 0.2-0.1 0.3s-0.1 0.1-0.1 0.1c-0.1 0.3-0.2 0.5-0.3 0.8-0.1 0.5-0.3 0.9-0.4 1.4-0.1 0.7-0.3 1.4-0.4 2v0.1c-0.1 0.5-0.2 1-0.2 1.5 0 0.2-0.1 0.4-0.1 0.6-0.1 0.3-0.1 0.6-0.1 1v0.1 0.9 0.9 0.9 0.9 0.1c0 0.3 0 0.6 0.1 1 0 0.2 0 0.4 0.1 0.6 0 0.5 0.1 1 0.2 1.5v0.1c0.1 0.6 0.3 1.3 0.4 2 0.1 0.4 0.2 0.9 0.4 1.4 0.1 0.4 0.3 0.9 0.4 1.4 0.1 0.4 0.3 0.9 0.5 1.3 0.1 0.3 0.3 0.6 0.4 1 0.3 0.6 0.5 1.1 0.8 1.6 0.2 0.4 0.4 0.9 0.7 1.3 0.2 0.4 0.5 0.8 0.8 1.2l0.6 0.9 0.1 0.1c0.3 0.5 0.7 1 1.1 1.5 0.6 0.7 1.3 1.5 2 2.2l27.6 27.6z"/>
	<path class="st0" d="m269.8 346.3-6.9 6.9c-0.7 0.7-1.4 1.4-2 2.2-0.5 0.6-0.9 1.2-1.4 1.8-0.1 0.2-0.3 0.4-0.4 0.6l-0.6 0.9c-0.1 0.1-0.1 0.2-0.2 0.3-0.3 0.4-0.5 0.8-0.7 1.2-0.3 0.5-0.6 1.1-0.8 1.6-0.1 0.3-0.3 0.6-0.4 1l-0.3 0.9c-0.1 0.2-0.1 0.4-0.2 0.6 0 0.1-0.1 0.2-0.1 0.3s-0.1 0.1-0.1 0.1c-0.1 0.3-0.2 0.5-0.3 0.8-0.1 0.5-0.3 0.9-0.4 1.4-0.1 0.7-0.3 1.4-0.4 2v0.1c-0.1 0.5-0.2 1-0.2 1.5 0 0.2-0.1 0.4-0.1 0.6-0.1 0.3-0.1 0.6-0.1 1v0.1 0.9 0.9 0.9 0.9 0.1c0 0.3 0 0.6 0.1 1 0 0.2 0 0.4 0.1 0.6 0 0.5 0.1 1 0.2 1.5v0.1c0.1 0.6 0.3 1.3 0.4 2 0.1 0.4 0.2 0.9 0.4 1.4 0.1 0.4 0.3 0.9 0.4 1.4 0.1 0.4 0.3 0.9 0.5 1.3 0.1 0.3 0.3 0.6 0.4 1 0.3 0.6 0.5 1.1 0.8 1.6 0.2 0.4 0.4 0.9 0.7 1.3 0.2 0.4 0.5 0.8 0.8 1.2l0.6 0.9 0.1 0.1c0.3 0.5 0.7 1 1.1 1.5 0.6 0.7 1.3 1.5 2 2.2l27.6 27.6 27.7-27.7-20.7-20.7z"/>
	<polygon class="st0" points="297.5 373.9 269.9 346.3 311.9 359.5"/>
</g>
<g transform="translate(-254.2,-303)">
	<path class="st0" d="m396 372.3v-0.1c0-0.3 0-0.6-0.1-1 0-0.2 0-0.4-0.1-0.6 0-0.5-0.1-1-0.2-1.5v-0.1c-0.1-0.6-0.3-1.3-0.4-2-0.1-0.4-0.2-0.9-0.4-1.4-0.1-0.4-0.2-0.8-0.4-1.2-0.3-0.8-0.6-1.7-1-2.5-0.2-0.6-0.5-1.1-0.8-1.6-0.2-0.4-0.4-0.8-0.7-1.2-0.1-0.1-0.1-0.2-0.2-0.3l-0.6-0.9c-0.1-0.2-0.2-0.4-0.4-0.6-0.4-0.6-0.9-1.2-1.4-1.8-0.6-0.7-1.3-1.5-2-2.2l-27.7-27.7-27.7 27.7 20.8 20.8-55.4 55.4 6.9 6.9c1.4 1.4 3 2.7 4.6 3.8 0.8 0.6 1.7 1 2.5 1.5 0.5 0.3 1.1 0.5 1.6 0.8 1.1 0.5 2.2 0.9 3.3 1.2 0.6 0.2 1.1 0.4 1.7 0.5s1.2 0.2 1.7 0.4c0.5 0.1 1 0.1 1.4 0.2 0.1 0 0.2 0 0.4 0.1 0.6 0.1 1.1 0.1 1.7 0.1s1.2 0.1 1.8 0.1 1.2 0 1.8-0.1c0.6 0 1.1-0.1 1.7-0.1 0.1 0 0.2 0 0.4-0.1 0.5-0.1 1-0.1 1.4-0.2 0.6-0.1 1.2-0.2 1.7-0.4 0.6-0.1 1.1-0.3 1.7-0.5 1.2-0.3 2.2-0.8 3.3-1.2 0.6-0.3 1.1-0.5 1.6-0.8 0.9-0.4 1.7-0.9 2.5-1.5 1.6-1.1 3.2-2.3 4.6-3.8l41.5-41.5c0.7-0.7 1.4-1.4 2-2.2 0.4-0.5 0.8-1 1.1-1.5l0.1-0.1 0.6-0.9c0.3-0.4 0.5-0.8 0.8-1.2s0.5-0.8 0.7-1.3c0.3-0.5 0.5-1.1 0.8-1.6 0.4-0.7 0.6-1.5 0.9-2.3 0.2-0.4 0.3-0.9 0.4-1.4 0.1-0.4 0.3-0.9 0.4-1.4 0.1-0.7 0.3-1.4 0.4-2v-0.1c0.1-0.5 0.2-1 0.2-1.5 0-0.2 0.1-0.4 0.1-0.6 0.1-0.3 0.1-0.6 0.1-1v-0.1c0-0.6 0.1-1.1 0.1-1.7s0.2-1.1 0.2-1.7z"/>
	<path class="st0" d="m380.5 401.6 6.9-6.9c0.7-0.7 1.4-1.4 2-2.2 0.5-0.6 0.9-1.2 1.4-1.8 0.1-0.2 0.3-0.4 0.4-0.6l0.6-0.9c0.1-0.1 0.1-0.2 0.2-0.3 0.3-0.4 0.5-0.8 0.7-1.2 0.3-0.5 0.6-1.1 0.8-1.6 0.1-0.3 0.3-0.6 0.4-1l0.3-0.9c0.1-0.2 0.1-0.4 0.2-0.6 0-0.1 0.1-0.2 0.1-0.3s0.1-0.1 0.1-0.1c0.1-0.3 0.2-0.5 0.3-0.8 0.1-0.5 0.3-0.9 0.4-1.4 0.1-0.7 0.3-1.4 0.4-2v-0.1c0.1-0.5 0.2-1 0.2-1.5 0-0.2 0.1-0.4 0.1-0.6 0.1-0.3 0.1-0.6 0.1-1v-0.1-0.9-0.9-0.9-0.9-0.1c0-0.3 0-0.6-0.1-1 0-0.2 0-0.4-0.1-0.6 0-0.5-0.1-1-0.2-1.5v0.1c-0.1-0.6-0.3-1.3-0.4-2-0.1-0.4-0.2-0.9-0.4-1.4-0.1-0.4-0.3-0.9-0.4-1.4-0.1-0.4-0.3-0.9-0.5-1.3-0.1-0.3-0.3-0.6-0.4-1-0.3-0.6-0.5-1.1-0.8-1.6-0.2-0.4-0.4-0.9-0.7-1.3-0.2-0.4-0.5-0.8-0.8-1.2l-0.6-0.9-0.1-0.1c-0.3-0.5-0.7-1-1.1-1.5-0.6-0.7-1.3-1.5-2-2.2l-27.6-27.6-27.7 27.7 20.7 20.7z"/>
	<polygon class="st0" points="352.9 374 380.4 401.5 339.1 387.8"/>
</g>
<g transform="translate(166.6 135.3)" aria-label="Library"><path d="m7.5053-55.749h7.5427v49.401h27.146v6.3478h-34.689z"/><path d="m49.774-41.821h6.8706v41.821h-6.8706zm0-16.28h6.8706v8.7002h-6.8706z"/><path d="m101-20.873q0-7.58-3.1366-11.874-3.0992-4.3314-8.5509-4.3314-5.4516 0-8.5882 4.3314-3.0992 4.2941-3.0992 11.874t3.0992 11.911q3.1366 4.2941 8.5882 4.2941 5.4516 0 8.5509-4.2941 3.1366-4.3314 3.1366-11.911zm-23.375-14.6q2.1657-3.734 5.4516-5.5263 3.3233-1.8297 7.9161-1.8297 7.6174 0 12.36 6.0491 4.7795 6.0491 4.7795 15.907t-4.7795 15.907q-4.7422 6.0491-12.36 6.0491-4.5928 0-7.9161-1.7923-3.2859-1.8297-5.4516-5.5637v6.2731h-6.9079v-58.101h6.9079z"/><path d="m143.76-35.398q-1.1575-0.67212-2.5391-0.97084-1.3442-0.33606-2.9872-0.33606-5.825 0-8.9616 3.8087-3.0992 3.7713-3.0992 10.866v22.031h-6.9079v-41.821h6.9079v6.4972q2.1657-3.8087 5.6383-5.6383 3.4726-1.867 8.4388-1.867 0.70946 0 1.5683 0.11202 0.85882 0.07468 1.9043 0.26138z"/><path d="m170.05-21.022q-8.3268 0-11.538 1.9043-3.2112 1.9043-3.2112 6.4972 0 3.6593 2.3898 5.825 2.4271 2.1284 6.5718 2.1284 5.713 0 9.1483-4.0327 3.4726-4.0701 3.4726-10.791v-1.5309zm13.704-2.8378v23.86h-6.8706v-6.3478q-2.3524 3.8087-5.8624 5.6383-3.51 1.7923-8.5882 1.7923-6.4225 0-10.231-3.5846-3.7713-3.622-3.7713-9.6711 0-7.0573 4.7048-10.642 4.7422-3.5846 14.115-3.5846h9.6337v-0.67212q0-4.7422-3.1366-7.3186-3.0992-2.6138-8.7376-2.6138-3.5846 0-6.9826 0.85882-3.398 0.85882-6.5345 2.5765v-6.3478q3.7713-1.4563 7.3186-2.1657 3.5473-0.7468 6.9079-0.7468 9.0736 0 13.554 4.7048 4.4808 4.7048 4.4808 14.264z"/><path d="m222.17-35.398q-1.1575-0.67212-2.5391-0.97084-1.3442-0.33606-2.9872-0.33606-5.825 0-8.9616 3.8087-3.0992 3.7713-3.0992 10.866v22.031h-6.9079v-41.821h6.9079v6.4972q2.1657-3.8087 5.6384-5.6383 3.4726-1.867 8.4388-1.867 0.70946 0 1.5683 0.11202 0.85882 0.07468 1.9043 0.26138z"/><path d="m246.85 3.8834q-2.9125 7.468-5.6757 9.7458-2.7632 2.2777-7.3933 2.2777h-5.489v-5.7504h4.0327q2.8378 0 4.4061-1.3442 1.5683-1.3442 3.4726-6.3478l1.2322-3.1366-16.915-41.149h7.2813l13.069 32.71 13.069-32.71h7.2813z"/></g>
</g></svg>
