<svg width="507.82" height="151.2" xmlns="http://www.w3.org/2000/svg"><style>.st0{fill:#fff}</style><g fill="#fff"><path d="M207.525 7.854v7.356q-4.294-2.054-8.103-3.062t-7.356-1.008q-6.16 0-9.522 2.39-3.323 2.39-3.323 6.796 0 3.696 2.203 5.6 2.24 1.868 8.44 3.025l4.555.934q8.438 1.605 12.434 5.675 4.032 4.033 4.032 10.83 0 8.102-5.451 12.284-5.415 4.182-15.907 4.182-3.958 0-8.44-.896-4.443-.896-9.222-2.65v-7.768q4.593 2.577 8.999 3.884 4.406 1.307 8.663 1.307 6.46 0 9.97-2.54 3.51-2.538 3.51-7.243 0-4.108-2.54-6.423-2.501-2.315-8.252-3.472l-4.593-.897q-8.438-1.68-12.21-5.265-3.77-3.584-3.77-9.97 0-7.393 5.19-11.65 5.227-4.256 14.375-4.256 3.921 0 7.991.71 4.07.709 8.327 2.128zm21.62.224v11.874h14.152v5.34h-14.152v22.703q0 5.115 1.382 6.571 1.418 1.457 5.713 1.457h7.057v5.75h-7.057q-7.954 0-10.978-2.95-3.025-2.987-3.025-10.829V25.291h-5.04v-5.34h5.04V8.079zm42.235 32.673q-8.327 0-11.538 1.904t-3.211 6.498q0 3.659 2.39 5.825 2.427 2.128 6.571 2.128 5.713 0 9.149-4.033 3.472-4.07 3.472-10.79V40.75zm13.704-2.838v23.86h-6.87v-6.348q-2.353 3.81-5.863 5.639-3.51 1.792-8.588 1.792-6.423 0-10.231-3.585-3.772-3.622-3.772-9.67 0-7.058 4.705-10.643 4.742-3.584 14.115-3.584h9.634v-.672q0-4.743-3.137-7.319-3.099-2.614-8.737-2.614-3.585 0-6.983.859-3.398.859-6.534 2.577v-6.348q3.771-1.457 7.318-2.166 3.548-.747 6.908-.747 9.074 0 13.554 4.705 4.481 4.705 4.481 14.264zm48.946-1.382v25.242h-6.87V36.755q0-5.937-2.316-8.887t-6.945-2.95q-5.564 0-8.775 3.548-3.211 3.547-3.211 9.67v23.637h-6.908V19.952h6.908v6.497q2.464-3.771 5.788-5.638 3.36-1.867 7.73-1.867 7.206 0 10.902 4.48 3.697 4.444 3.697 13.106zm41.3-10.231V3.672h6.87v58.101h-6.87V55.5q-2.166 3.734-5.489 5.564-3.286 1.792-7.916 1.792-7.58 0-12.36-6.05-4.742-6.048-4.742-15.906t4.742-15.907q4.78-6.05 12.36-6.05 4.63 0 7.916 1.83 3.323 1.793 5.489 5.527zm-23.412 14.6q0 7.58 3.1 11.911 3.136 4.294 8.587 4.294 5.452 0 8.589-4.294 3.136-4.331 3.136-11.911t-3.136-11.874q-3.137-4.331-8.589-4.331-5.451 0-8.588 4.331-3.099 4.294-3.099 11.874zm63.442-.149q-8.327 0-11.538 1.904-3.211 1.905-3.211 6.498 0 3.659 2.39 5.825 2.427 2.128 6.571 2.128 5.713 0 9.149-4.033 3.472-4.07 3.472-10.79V40.75zm13.704-2.838v23.86h-6.87v-6.348q-2.353 3.81-5.863 5.639-3.51 1.792-8.588 1.792-6.423 0-10.231-3.585-3.772-3.622-3.772-9.67 0-7.058 4.705-10.643 4.742-3.584 14.115-3.584h9.634v-.672q0-4.743-3.137-7.319-3.099-2.614-8.737-2.614-3.585 0-6.983.859-3.398.859-6.534 2.577v-6.348q3.771-1.457 7.318-2.166 3.548-.747 6.908-.747 9.074 0 13.554 4.705 4.481 4.705 4.481 14.264zm38.426-11.538q-1.157-.672-2.54-.97-1.343-.337-2.986-.337-5.825 0-8.962 3.809-3.1 3.771-3.1 10.866v22.03h-6.907v-41.82h6.908v6.497q2.166-3.809 5.638-5.638 3.473-1.867 8.44-1.867.709 0 1.567.112.86.074 1.905.261zm33.45-.075V3.672h6.87v58.101h-6.87V55.5q-2.166 3.734-5.489 5.564-3.286 1.792-7.916 1.792-7.58 0-12.36-6.05-4.742-6.048-4.742-15.906t4.742-15.907q4.78-6.05 12.36-6.05 4.63 0 7.916 1.83 3.323 1.793 5.489 5.527zm-23.412 14.6q0 7.58 3.1 11.911 3.136 4.294 8.587 4.294 5.452 0 8.589-4.294 3.136-4.331 3.136-11.911t-3.136-11.874q-3.137-4.331-8.589-4.331-5.451 0-8.588 4.331-3.099 4.294-3.099 11.874z" aria-label="Standard"/><path class="st0" d="M64 91.7L43.3 71l55.4-55.4-6.9-6.9c-1.4-1.4-3-2.7-4.6-3.8-.8-.5-1.7-1-2.5-1.5C80.4 1.2 75.8 0 71.1 0s-9.4 1.1-13.6 3.4c-.9.4-1.7.9-2.5 1.5-1.6 1.1-3.2 2.3-4.6 3.8l-9 9-30.6 30.4-2.1 2.1c-.7.7-1.4 1.4-2 2.2-.5.6-.9 1.2-1.4 1.8-.1.2-.3.4-.4.6l-.6.9c-.1.1-.1.2-.2.3-.3.4-.5.8-.7 1.2-.3.5-.6 1.1-.8 1.6-.1.3-.3.6-.4 1l-.3.9c-.1.2-.1.4-.2.6 0 .1-.1.2-.1.3s-.1.1-.1.1c-.1.3-.2.5-.3.8-.1.5-.3.9-.4 1.4-.1.7-.3 1.4-.4 2v.1c-.1.5-.2 1-.2 1.5 0 .2-.1.4-.1.6-.1.3-.1.6-.1 1v3.8c0 .3 0 .6.1 1 0 .2 0 .4.1.6 0 .5.1 1 .2 1.5v.1c.1.6.3 1.3.4 2 .1.4.2.9.4 1.4.1.4.3.9.4 1.4.1.4.3.9.5 1.3.1.3.3.6.4 1 .3.6.5 1.1.8 1.6.2.4.4.9.7 1.3.2.4.5.8.8 1.2l.6.9.1.1c.3.5.7 1 1.1 1.5.6.7 1.3 1.5 2 2.2l27.6 27.6z"/><path class="st0" d="M15.6 43.3l-6.9 6.9c-.7.7-1.4 1.4-2 2.2-.5.6-.9 1.2-1.4 1.8-.1.2-.3.4-.4.6l-.6.9c-.1.1-.1.2-.2.3-.3.4-.5.8-.7 1.2-.3.5-.6 1.1-.8 1.6-.1.3-.3.6-.4 1l-.3.9c-.1.2-.1.4-.2.6 0 .1-.1.2-.1.3s-.1.1-.1.1c-.1.3-.2.5-.3.8-.1.5-.3.9-.4 1.4-.1.7-.3 1.4-.4 2v.1c-.1.5-.2 1-.2 1.5 0 .2-.1.4-.1.6-.1.3-.1.6-.1 1v3.8c0 .3 0 .6.1 1 0 .2 0 .4.1.6 0 .5.1 1 .2 1.5v.1c.1.6.3 1.3.4 2 .1.4.2.9.4 1.4.1.4.3.9.4 1.4.1.4.3.9.5 1.3.1.3.3.6.4 1 .3.6.5 1.1.8 1.6.2.4.4.9.7 1.3.2.4.5.8.8 1.2l.6.9.1.1c.3.5.7 1 1.1 1.5.6.7 1.3 1.5 2 2.2l27.6 27.6 27.7-27.7-20.7-20.7zm27.7 27.6L15.7 43.3l42 13.2z"/><path class="st0" d="M141.8 69.3v-.1c0-.3 0-.6-.1-1 0-.2 0-.4-.1-.6 0-.5-.1-1-.2-1.5V66c-.1-.6-.3-1.3-.4-2-.1-.4-.2-.9-.4-1.4-.1-.4-.2-.8-.4-1.2-.3-.8-.6-1.7-1-2.5-.2-.6-.5-1.1-.8-1.6-.2-.4-.4-.8-.7-1.2-.1-.1-.1-.2-.2-.3l-.6-.9c-.1-.2-.2-.4-.4-.6-.4-.6-.9-1.2-1.4-1.8-.6-.7-1.3-1.5-2-2.2l-27.7-27.7-27.7 27.7 20.8 20.8-55.4 55.4 6.9 6.9c1.4 1.4 3 2.7 4.6 3.8.8.6 1.7 1 2.5 1.5.5.3 1.1.5 1.6.8 1.1.5 2.2.9 3.3 1.2.6.2 1.1.4 1.7.5s1.2.2 1.7.4c.5.1 1 .1 1.4.2.1 0 .2 0 .4.1.6.1 1.1.1 1.7.1s1.2.1 1.8.1 1.2 0 1.8-.1c.6 0 1.1-.1 1.7-.1.1 0 .2 0 .4-.1.5-.1 1-.1 1.4-.2.6-.1 1.2-.2 1.7-.4.6-.1 1.1-.3 1.7-.5 1.2-.3 2.2-.8 3.3-1.2.6-.3 1.1-.5 1.6-.8.9-.4 1.7-.9 2.5-1.5 1.6-1.1 3.2-2.3 4.6-3.8l41.5-41.5c.7-.7 1.4-1.4 2-2.2.4-.5.8-1 1.1-1.5l.1-.1.6-.9c.3-.4.5-.8.8-1.2s.5-.8.7-1.3c.3-.5.5-1.1.8-1.6.4-.7.6-1.5.9-2.3.2-.4.3-.9.4-1.4.1-.4.3-.9.4-1.4.1-.7.3-1.4.4-2v-.1c.1-.5.2-1 .2-1.5 0-.2.1-.4.1-.6.1-.3.1-.6.1-1v-.1c0-.6.1-1.1.1-1.7s.2-1.1.2-1.7z"/><path class="st0" d="M126.3 98.6l6.9-6.9c.7-.7 1.4-1.4 2-2.2.5-.6.9-1.2 1.4-1.8.1-.2.3-.4.4-.6l.6-.9c.1-.1.1-.2.2-.3.3-.4.5-.8.7-1.2.3-.5.6-1.1.8-1.6.1-.3.3-.6.4-1l.3-.9c.1-.2.1-.4.2-.6 0-.1.1-.2.1-.3s.1-.1.1-.1c.1-.3.2-.5.3-.8.1-.5.3-.9.4-1.4.1-.7.3-1.4.4-2v-.1c.1-.5.2-1 .2-1.5 0-.2.1-.4.1-.6.1-.3.1-.6.1-1V69c0-.3 0-.6-.1-1 0-.2 0-.4-.1-.6 0-.5-.1-1-.2-1.5v.1c-.1-.6-.3-1.3-.4-2-.1-.4-.2-.9-.4-1.4-.1-.4-.3-.9-.4-1.4-.1-.4-.3-.9-.5-1.3-.1-.3-.3-.6-.4-1-.3-.6-.5-1.1-.8-1.6-.2-.4-.4-.9-.7-1.3-.2-.4-.5-.8-.8-1.2l-.6-.9-.1-.1c-.3-.5-.7-1-1.1-1.5-.6-.7-1.3-1.5-2-2.2l-27.6-27.6L78 50.2l20.7 20.7zM98.7 71l27.5 27.5-41.3-13.7z"/><path d="M174.105 79.551h7.543v49.401h27.146v6.348h-34.689zm42.269 13.928h6.87V135.3h-6.87zm0-16.28h6.87v8.7h-6.87zm51.226 37.228q0-7.58-3.137-11.874-3.099-4.331-8.55-4.331-5.452 0-8.589 4.331-3.099 4.294-3.099 11.874t3.1 11.911q3.136 4.294 8.588 4.294 5.451 0 8.55-4.294 3.137-4.331 3.137-11.911zm-23.375-14.6q2.166-3.734 5.452-5.526 3.323-1.83 7.916-1.83 7.617 0 12.36 6.05 4.78 6.048 4.78 15.906t-4.78 15.907q-4.742 6.05-12.36 6.05-4.593 0-7.916-1.793-3.286-1.83-5.452-5.564v6.273h-6.908V77.2h6.908zm66.135.075q-1.157-.672-2.54-.97-1.343-.337-2.986-.337-5.825 0-8.962 3.809-3.1 3.771-3.1 10.866v22.03h-6.907V93.48h6.908v6.497q2.166-3.809 5.638-5.638 3.473-1.867 8.439-1.867.71 0 1.568.112.86.074 1.905.261zm26.29 14.376q-8.327 0-11.538 1.904-3.211 1.905-3.211 6.498 0 3.659 2.39 5.825 2.427 2.128 6.571 2.128 5.713 0 9.149-4.033 3.472-4.07 3.472-10.79v-1.532zm13.704-2.838v23.86h-6.87v-6.348q-2.353 3.81-5.863 5.639-3.51 1.792-8.588 1.792-6.423 0-10.231-3.585-3.772-3.622-3.772-9.67 0-7.058 4.705-10.643 4.742-3.584 14.115-3.584h9.634v-.672q0-4.743-3.137-7.319-3.099-2.614-8.737-2.614-3.585 0-6.983.859-3.398.859-6.534 2.577v-6.348q3.771-1.457 7.318-2.166 3.548-.747 6.908-.747 9.074 0 13.554 4.705 4.481 4.705 4.481 14.264zm38.416-11.538q-1.157-.672-2.54-.97-1.343-.337-2.986-.337-5.825 0-8.962 3.809-3.1 3.771-3.1 10.866v22.03h-6.907V93.48h6.908v6.497q2.166-3.809 5.638-5.638 3.473-1.867 8.44-1.867.709 0 1.567.112.86.074 1.905.261zm24.68 39.281q-2.913 7.468-5.676 9.746-2.763 2.278-7.393 2.278h-5.489v-5.75h4.033q2.837 0 4.406-1.345 1.568-1.344 3.472-6.347l1.233-3.137-16.915-41.15h7.28l13.07 32.71 13.069-32.71h7.281z" aria-label="Library"/></g></svg>