<svg width="1399.7" height="350.9" version="1.1" viewBox="0 0 1399.7 350.9" xmlns="http://www.w3.org/2000/svg"><g transform="translate(-.12527 -44)" fill="#fff"><path d="m122.92 393.56c-2.5176-0.69461-7.6926-2.7669-11.5-4.6051-6.3296-3.0558-10.764-7.1593-51.765-47.898-24.663-24.506-46.876-47.383-49.362-50.839-11.868-16.502-13.503-40.228-4.0938-59.424 2.6866-5.4813 8.895-12.133 48.191-51.629 24.809-24.935 47.749-47.152 50.977-49.369s8.6286-5.2103 12-6.6509c5.6715-2.4234 7.2139-2.6193 20.63-2.6193 13.439 0 14.951 0.19286 20.672 2.6364 3.3945 1.45 8.3445 4.093 11 5.8734 6.2962 4.2213 21.328 18.985 21.328 20.948 0 0.83911-23.625 25.147-52.5 54.019s-52.5 52.946-52.5 53.5 23.625 24.629 52.5 53.5 52.5 53.202 52.5 54.069c0 1.9088-14.723 16.366-21.023 20.643-9.8392 6.6804-19.066 9.2902-32.477 9.1862-5.5-0.0426-12.06-0.64587-14.577-1.3405zm1129.3-1.0183c-12.319-2.8023-22.188-8.7-34.959-20.891-3.4375-3.2814-6.25-6.684-6.25-7.5613 0-0.87731 23.4-24.992 52-53.588s52-52.446 52-53-23.4-24.404-52-53-52-52.735-52-53.643c0-2.1577 14.888-16.157 22.277-20.947 8.2155-5.3259 16.643-7.9952 27.223-8.6222 10.779-0.63882 18.429 1.0086 29.5 6.3522 7.1149 3.4342 9.8662 5.9881 53.585 49.74 41.622 41.653 46.438 46.809 49.733 53.233 5.1311 10.005 7.0051 18.785 6.3795 29.887-0.5762 10.227-2.8745 17.896-7.7969 26.018-4.0378 6.6622-91.325 94.282-98.167 98.54-11.68 7.27-28.854 10.365-41.525 7.4824zm-994.72-29.531c-18.226-1.9071-35.309-8.2668-46.671-17.375-6.5291-5.2339-16.093-16.306-15.541-17.992 0.3717-1.1378 23.776-20.886 26.827-22.636 1.2322-0.70683 3.7918 0.82759 11 6.594 5.1668 4.1334 12.198 8.8585 15.626 10.5 12.216 5.8517 30.431 6.1791 44.794 0.80507 18.997-7.1078 22.246-27.082 6.0768-37.362-7.0191-4.4625-13.751-6.8002-30.102-10.453-18.208-4.0679-33.532-9.1943-41.416-13.855-16.666-9.8527-25.05-24.657-25.05-44.234 0-27.451 17.364-48.08 48.515-57.639 8.2631-2.5355 10.295-2.7509 26.451-2.8038 15.503-0.0508 18.47 0.21471 26 2.3266 11.28 3.1636 21.321 7.8619 27.76 12.989 5.3618 4.2698 14.239 14.714 14.24 16.754 6.2e-4 1.1054-25.698 20.936-28.549 22.03-0.87832 0.33704-3.8104-1.6274-7.4278-4.9764-3.2872-3.0433-8.7994-6.9133-12.249-8.6-17.743-8.6744-44.858-4.4856-51.274 7.921-2.3645 4.5725-1.9597 14.018 0.77461 18.076 5.6142 8.3309 17.893 14.368 36.282 17.838 42.332 7.9889 61.962 21.981 67.067 47.803 5.796 29.32-9.3661 56.138-38.344 67.819-13.099 5.2807-38.023 8.224-54.787 6.4699zm199.51-0.07126c-23.441-2.1612-38.58-13.302-44.599-32.819-2.5527-8.2768-3.355-27.72-3.3781-81.869l-0.02269-53.25h-20.378c-16.139 0-20.617-0.28803-21.527-1.3846-0.7838-0.94441-1.0612-6.2695-0.87245-16.75l0.27667-15.365 42-1 0.54113-27c0.29761-14.85 0.63511-27.112 0.75-27.25 0.11488-0.1375 8.7589-0.25 19.209-0.25h19v26.378c0 20.742 0.28446 26.614 1.3314 27.482 0.87498 0.72617 10.044 1.1966 26.75 1.3724l25.419 0.26753 0.27667 15.365c0.18871 10.481-0.0887 15.806-0.87245 16.75-0.92358 1.1128-6.126 1.3846-26.508 1.3846h-25.359l-0.63803 2.5421c-0.35091 1.3982-0.40608 25.586-0.1226 53.75 0.53581 53.232 0.75923 56.083 5.0459 64.368 2.5813 4.9892 8.3769 9.136 14.564 10.42 6.9383 1.4404 19.604 0.42827 27.414-2.1905 3.1904-1.0699 6.2279-1.6812 6.75-1.3585 0.53672 0.33171 0.94932 7.7223 0.94932 17.005 0 18.83 0.25453 18.306-10.199 20.987-5.0448 1.2936-23.279 3.6335-26.012 3.338-0.70917-0.0767-5.1144-0.49209-9.7894-0.92312zm168.5-0.0296c-43.815-5.2117-76.503-36.427-84.988-81.158-1.9973-10.529-1.9787-33.069 0.0361-43.689 6.3996-33.736 23.84-57.766 52.237-71.973 13.766-6.8872 24.044-9.2389 42.715-9.7739 14.786-0.4237 16.758-0.26309 25.991 2.1176 16.975 4.3765 29.428 11.227 39.759 21.872l5.75 5.9247v-69.18c0-45.775 0.35022-69.834 1.0352-71.114 0.96435-1.8019 2.2618-1.9342 18.965-1.9342s18 0.13232 18.965 1.9343c0.70072 1.3093 1.0352 51.689 1.0352 155.93 0 138.66-0.15646 154.15-1.5714 155.57-2.3286 2.3286-34.529 2.3286-36.857 0-1.2466-1.2466-1.5714-3.9516-1.5714-13.087v-11.516l-5.8331 5.9244c-9.6479 9.7989-19.984 15.908-34.839 20.592-13.434 4.2356-25.985 5.3319-40.828 3.5663zm38.543-38.913c14.875-4.9895 27.032-14.383 33.687-26.03 6.12-10.71 8.523-20.015 9.0299-34.965 0.55662-16.417-1.5578-26.962-7.8204-38.999-7.4138-14.25-22.304-25.752-38.186-29.497-8.2561-1.9466-26.615-1.9407-34.293 0.011-22.241 5.6536-38.451 22.573-44.056 45.985-2.4661 10.3-2.2425 29.673 0.4594 39.8 6.534 24.493 24.404 41.334 48.459 45.67 8.4588 1.5246 25.321 0.50657 32.72-1.9755zm431.96 39.018c-7.8375-1.0326-20.018-4.5478-27.476-7.9296-8.8348-4.0059-14.869-8.2302-22.774-15.944l-6.75-6.5863v11.652c0 9.2592-0.3227 11.974-1.5714 13.223-1.3043 1.3043-4.4068 1.5688-18.25 1.5561-9.1732-8e-3 -17.354-0.44198-18.179-0.96347-1.3209-0.83497-1.531-19.402-1.7594-155.53-0.1779-106.02 0.06878-155.2 0.78518-156.54 0.9758-1.8233 2.2143-1.9518 18.809-1.9518 12.484 0 18.122 0.35673 18.965 1.2 0.9104 0.91045 1.2 18.069 1.2 71.109v69.909l8.331-7.8589c9.6525-9.1055 19.697-14.855 33.169-18.988 8.3634-2.5653 10.273-2.7645 27-2.8159 15.822-0.0486 19.029 0.22531 26.5 2.2633 23.536 6.4201 42.178 19.228 55.017 37.8 20.513 29.673 24.435 72.983 9.7959 108.17-6.216 14.942-19.283 31.398-32.384 40.782-19.079 13.666-46.862 20.546-70.428 17.441zm24.955-38.452c10.297-2.8086 18.096-7.4366 26.079-15.475 12.029-12.112 17.504-25.221 18.622-44.586 1.7165-29.714-11.05-54.468-33.656-65.261-10.6-5.061-16.257-6.2424-29.799-6.2237-19.498 0.0269-32.422 5.0677-44.701 17.435-7.9996 8.057-12.405 15.675-15.662 27.085-3.2795 11.489-3.3155 32.567-0.075 43.764 6.9447 23.994 23.694 39.874 46.736 44.31 8.3953 1.6164 24.604 1.0926 32.455-1.0488zm-315.75 33.239c-0.92306-0.92306-1.2-37.132-1.2-156.89 0-141.05 0.14878-155.75 1.5818-156.3 2.0616-0.7911 33.775-0.7911 35.836 0 1.433 0.5499 1.5818 15.251 1.5818 156.3 0 119.76-0.27694 155.97-1.2 156.89-1.6863 1.6863-34.914 1.6863-36.6 0zm99.55 0.1199c-1.6475-0.95958-1.75-6.6632-1.75-97.388 0-53.003 0.27314-97.08 0.60699-97.95 0.52386-1.3652 3.1945-1.5818 19.5-1.5818h18.893v98.393c0 88.799-0.15423 98.452-1.5818 99-2.6821 1.0292-33.797 0.6165-35.668-0.47311zm11.201-239.23c-12.828-3.5959-21.19-14.35-21.197-27.26-0.00568-10.531 5.3465-19.399 15.247-25.262 3.8722-2.2931 5.6162-2.6634 12.5-2.6545 9.6645 0.01259 13.922 1.8018 20.662 8.6822 10.744 10.969 10.433 27.937-0.7138 39.041-7.1137 7.0859-17.443 9.9911-26.497 7.4528z"/><path d="m123.27 392.46c-13.578-3.6572-14.618-4.5281-63.642-53.315-26.671-26.542-47.423-48.01-49.584-51.295-2.0442-3.1069-5.023-9.1819-6.6195-13.5-2.4509-6.6289-2.9048-9.3455-2.9156-17.45-0.007015-5.2796 0.50215-10.68 1.1315-12s1.9293-4.6508 2.8889-7.4008c2.1041-6.0303 9.8204-18.038 12.171-18.94 1.262-0.48426 6.5415 4.1997 20.885 18.529l19.196 19.177 3.3576-2.653c1.8467-1.4592 29.233-28.5 60.858-60.091l57.5-57.438 6.25 6.1788c3.4375 3.3983 6.25 6.8684 6.25 7.7112 0 0.84286-23.625 25.154-52.5 54.025s-52.5 52.946-52.5 53.5 23.625 24.629 52.5 53.5 52.5 53.182 52.5 54.025c0 1.5518-11.875 13.975-13.359 13.975-0.44264 0-2.6805 1.5218-4.9731 3.3818-5.4104 4.3896-13.189 8.2584-20.362 10.126-7.1145 1.8531-22.067 1.8287-29.032-0.0474zm1128.9 0.0789c-12.319-2.8023-22.188-8.7-34.959-20.891-3.4375-3.2814-6.25-6.684-6.25-7.5613 0-0.87731 23.4-24.992 52-53.588s52-52.446 52-53-23.4-24.404-52-53-52-52.735-52-53.643c0-2.1577 14.888-16.157 22.277-20.947 8.2155-5.3259 16.643-7.9952 27.223-8.6222 10.779-0.63882 18.429 1.0086 29.5 6.3522 7.1149 3.4342 9.8662 5.9881 53.585 49.74 41.622 41.653 46.438 46.809 49.733 53.233 5.1311 10.005 7.0051 18.785 6.3795 29.887-0.5762 10.227-2.8745 17.896-7.7969 26.018-4.0378 6.6622-91.325 94.282-98.167 98.54-11.68 7.27-28.854 10.365-41.525 7.4824zm-994.72-29.531c-18.226-1.9071-35.309-8.2668-46.671-17.375-6.5291-5.2339-16.093-16.306-15.541-17.992 0.3717-1.1378 23.776-20.886 26.827-22.636 1.2322-0.70683 3.7918 0.82759 11 6.594 5.1668 4.1334 12.198 8.8585 15.626 10.5 12.216 5.8517 30.431 6.1791 44.794 0.80507 18.997-7.1078 22.246-27.082 6.0768-37.362-7.0191-4.4625-13.751-6.8002-30.102-10.453-18.208-4.0679-33.532-9.1943-41.416-13.855-16.666-9.8527-25.05-24.657-25.05-44.234 0-27.451 17.364-48.08 48.515-57.639 8.2631-2.5355 10.295-2.7509 26.451-2.8038 15.503-0.0508 18.47 0.21471 26 2.3266 11.28 3.1636 21.321 7.8619 27.76 12.989 5.3618 4.2698 14.239 14.714 14.24 16.754 6.2e-4 1.1054-25.698 20.936-28.549 22.03-0.87832 0.33704-3.8104-1.6274-7.4278-4.9764-3.2872-3.0433-8.7994-6.9133-12.249-8.6-17.743-8.6744-44.858-4.4856-51.274 7.921-2.3645 4.5725-1.9597 14.018 0.77461 18.076 5.6142 8.3309 17.893 14.368 36.282 17.838 42.332 7.9889 61.962 21.981 67.067 47.803 5.796 29.32-9.3661 56.138-38.344 67.819-13.099 5.2807-38.023 8.224-54.787 6.4699zm199.51-0.07126c-23.441-2.1612-38.58-13.302-44.599-32.819-2.5527-8.2768-3.355-27.72-3.3781-81.869l-0.02269-53.25h-20.378c-16.139 0-20.617-0.28803-21.527-1.3846-0.7838-0.94441-1.0612-6.2695-0.87245-16.75l0.27667-15.365 42-1 0.54113-27c0.29761-14.85 0.63511-27.112 0.75-27.25 0.11488-0.1375 8.7589-0.25 19.209-0.25h19v26.378c0 20.742 0.28446 26.614 1.3314 27.482 0.87498 0.72617 10.044 1.1966 26.75 1.3724l25.419 0.26753 0.27667 15.365c0.18871 10.481-0.0887 15.806-0.87245 16.75-0.92358 1.1128-6.126 1.3846-26.508 1.3846h-25.359l-0.63803 2.5421c-0.35091 1.3982-0.40608 25.586-0.1226 53.75 0.53581 53.232 0.75923 56.083 5.0459 64.368 2.5813 4.9892 8.3769 9.136 14.564 10.42 6.9383 1.4404 19.604 0.42827 27.414-2.1905 3.1904-1.0699 6.2279-1.6812 6.75-1.3585 0.53672 0.33171 0.94932 7.7223 0.94932 17.005 0 18.83 0.25453 18.306-10.199 20.987-5.0448 1.2936-23.279 3.6335-26.012 3.338-0.70917-0.0767-5.1144-0.49209-9.7894-0.92312zm168.5-0.0296c-43.815-5.2117-76.503-36.427-84.988-81.158-1.9973-10.529-1.9787-33.069 0.0361-43.689 6.3996-33.736 23.84-57.766 52.237-71.973 13.766-6.8872 24.044-9.2389 42.715-9.7739 14.786-0.4237 16.758-0.26309 25.991 2.1176 16.975 4.3765 29.428 11.227 39.759 21.872l5.75 5.9247v-69.18c0-45.775 0.35022-69.834 1.0352-71.114 0.96435-1.8019 2.2618-1.9342 18.965-1.9342s18 0.13232 18.965 1.9343c0.70072 1.3093 1.0352 51.689 1.0352 155.93 0 138.66-0.15646 154.15-1.5714 155.57-2.3286 2.3286-34.529 2.3286-36.857 0-1.2466-1.2466-1.5714-3.9516-1.5714-13.087v-11.516l-5.8331 5.9244c-9.6479 9.7989-19.984 15.908-34.839 20.592-13.434 4.2356-25.985 5.3319-40.828 3.5663zm38.543-38.913c14.875-4.9895 27.032-14.383 33.687-26.03 6.12-10.71 8.523-20.015 9.0299-34.965 0.55662-16.417-1.5578-26.962-7.8204-38.999-7.4138-14.25-22.304-25.752-38.186-29.497-8.2561-1.9466-26.615-1.9407-34.293 0.011-22.241 5.6536-38.451 22.573-44.056 45.985-2.4661 10.3-2.2425 29.673 0.4594 39.8 6.534 24.493 24.404 41.334 48.459 45.67 8.4588 1.5246 25.321 0.50657 32.72-1.9755zm431.96 39.018c-7.8375-1.0326-20.018-4.5478-27.476-7.9296-8.8348-4.0059-14.869-8.2302-22.774-15.944l-6.75-6.5863v11.652c0 9.2592-0.3227 11.974-1.5714 13.223-1.3043 1.3043-4.4068 1.5688-18.25 1.5561-9.1732-8e-3 -17.354-0.44198-18.179-0.96347-1.3209-0.83497-1.531-19.402-1.7594-155.53-0.1779-106.02 0.06878-155.2 0.78518-156.54 0.9758-1.8233 2.2143-1.9518 18.809-1.9518 12.484 0 18.122 0.35673 18.965 1.2 0.9104 0.91045 1.2 18.069 1.2 71.109v69.909l8.331-7.8589c9.6525-9.1055 19.697-14.855 33.169-18.988 8.3634-2.5653 10.273-2.7645 27-2.8159 15.822-0.0486 19.029 0.22531 26.5 2.2633 23.536 6.4201 42.178 19.228 55.017 37.8 20.513 29.673 24.435 72.983 9.7959 108.17-6.216 14.942-19.283 31.398-32.384 40.782-19.079 13.666-46.862 20.546-70.428 17.441zm24.955-38.452c10.297-2.8086 18.096-7.4366 26.079-15.475 12.029-12.112 17.504-25.221 18.622-44.586 1.7165-29.714-11.05-54.468-33.656-65.261-10.6-5.061-16.257-6.2424-29.799-6.2237-19.498 0.0269-32.422 5.0677-44.701 17.435-7.9996 8.057-12.405 15.675-15.662 27.085-3.2795 11.489-3.3155 32.567-0.075 43.764 6.9447 23.994 23.694 39.874 46.736 44.31 8.3953 1.6164 24.604 1.0926 32.455-1.0488zm-315.75 33.239c-0.92306-0.92306-1.2-37.132-1.2-156.89 0-141.05 0.14878-155.75 1.5818-156.3 2.0616-0.7911 33.775-0.7911 35.836 0 1.433 0.5499 1.5818 15.251 1.5818 156.3 0 119.76-0.27694 155.97-1.2 156.89-1.6863 1.6863-34.914 1.6863-36.6 0zm99.55 0.1199c-1.6475-0.95958-1.75-6.6632-1.75-97.388 0-53.003 0.27314-97.08 0.60699-97.95 0.52386-1.3652 3.1945-1.5818 19.5-1.5818h18.893v98.393c0 88.799-0.15423 98.452-1.5818 99-2.6821 1.0292-33.797 0.6165-35.668-0.47311zm11.201-239.23c-12.828-3.5959-21.19-14.35-21.197-27.26-0.00568-10.531 5.3465-19.399 15.247-25.262 3.8722-2.2931 5.6162-2.6634 12.5-2.6545 9.6645 0.01259 13.922 1.8018 20.662 8.6822 10.744 10.969 10.433 27.937-0.7138 39.041-7.1137 7.0859-17.443 9.9911-26.497 7.4528z"/><path d="m123.27 392.46c-13.578-3.6572-14.618-4.5281-63.642-53.315-26.671-26.542-47.423-48.01-49.584-51.295-2.0442-3.1069-5.023-9.1819-6.6195-13.5-2.4509-6.6289-2.9048-9.3455-2.9156-17.45-0.007015-5.2796 0.50215-10.68 1.1315-12s1.9293-4.6508 2.8889-7.4008c2.0988-6.015 9.8182-18.037 12.158-18.935 1.2413-0.47633 6.7768 4.36 21.341 18.646 10.816 10.609 19.733 19.738 19.816 20.286 0.08299 0.5483 27.038 27.914 59.901 60.812l59.75 59.816-4 3.5327c-5.0261 4.4389-13.78 8.9197-21.203 10.853-7.1046 1.8505-22.062 1.8248-29.022-0.05zm-5.0277-75.714-59.247-59.253 59.253-59.247c32.589-32.586 59.719-59.247 60.288-59.247 1.3007 0 10.459 9.2274 10.459 10.538 0 0.53307-23.625 24.591-52.5 53.462s-52.5 53.171-52.5 54 23.625 25.129 52.5 54 52.5 53.186 52.5 54.034c0 1.6627-8.9398 10.966-10.538 10.966-0.53284 0-27.63-26.664-60.216-59.253zm1099.5 53.474c-3.1453-3.1784-5.7187-6.206-5.7187-6.728 0-0.52192 23.73-24.694 52.732-53.716l52.732-52.767-52.838-52.873c-46.185-46.216-52.71-53.113-51.818-54.78 2.4727-4.6203 18.989-19.13 25.237-22.172 17.355-8.4476 33.775-8.302 51.954 0.46072 7.1186 3.4314 9.8433 5.9604 53.585 49.735 41.597 41.629 46.44 46.811 49.727 53.223 10.535 20.544 8.1968 45.907-5.7169 62.002l-3.1413 3.6339-30.519-6.1197c-16.785-3.3658-31.843-6.1197-33.463-6.1197-2.5487 0-9.1252 6.176-48.983 46-25.322 25.3-46.492 46-47.046 46s-3.5796-2.6006-6.7249-5.779zm-958.86-8.2696c-12.344-1.099-25.034-4.4635-34.854-9.2412-6.8582-3.3366-10.287-5.8967-17.75-13.254-5.4891-5.4113-9.2284-9.899-9.1968-11.037 0.056-2.0189 22.643-21.265 25.981-22.138 1.1452-0.29947 3.3854 0.97359 6.135 3.4864 6.6208 6.0505 17 12.776 23.489 15.221 7.9873 3.0093 22.346 3.7418 32.198 1.6425 14.713-3.1353 24.789-11.303 25.88-20.977 0.78113-6.9302-0.46954-11.354-4.4584-15.769-6.747-7.4681-15.287-11.186-36.777-16.009-35.76-8.0268-52.093-17.072-59.977-33.218-5.8243-11.926-6.8935-27.214-2.8634-40.942 5.4663-18.619 22.923-33.341 47.341-39.925 7.1932-1.9395 10.96-2.2919 24.5-2.2919 18.507 0 27.098 1.7694 41.273 8.501 11.9 5.6512 26.881 20.301 24.139 23.606-0.59768 0.72016-6.9026 5.6556-14.011 10.968l-12.924 9.6583-4.4591-4.1102c-11.781-10.859-20.688-14.431-36.017-14.444-11.752-0.01-17.871 1.5775-25.054 6.4994-8.5736 5.8747-10.492 18.331-4.1874 27.185 5.0665 7.1153 20.31 13.94 38.242 17.122 11.624 2.0624 27.095 6.8237 36.186 11.137 21.894 10.387 32.522 32.596 27.917 58.335-4.0949 22.886-21.656 39.86-48.207 46.595-8.2894 2.1028-27.958 4.7185-32.397 4.3084-0.825-0.0762-5.3906-0.48497-10.146-0.90832zm199.65-0.09802c-23.25-1.7822-38.942-12.628-44.573-30.806-3.0989-10.005-3.866-26.594-3.8979-84.297-0.016-29.012-0.14167-52.839-0.27917-52.949-0.1375-0.10927-9.7-0.44677-21.25-0.75l-21-0.55134v-30l42-1 0.54113-27c0.29761-14.85 0.63511-27.112 0.75-27.25 0.11488-0.1375 8.3089-0.25 18.209-0.25h18v26.378c0 20.742 0.28446 26.614 1.3314 27.482 0.87498 0.72617 10.044 1.1966 26.75 1.3724l25.419 0.26753v30l-25.702 0.5c-17.571 0.34182-26.069 0.86739-26.861 1.6613-0.86193 0.86338-1.0412 14.972-0.69899 55 0.44139 51.624 0.54837 54.11 2.6007 60.424 2.2718 6.9902 6.6392 12.481 12.458 15.663 4.893 2.6754 25.086 2.3542 33.007-0.52499 4.3498-1.5811 5.9219-1.8002 6.2772-0.87447 0.26066 0.67926 0.3492 8.1911 0.19676 16.693l-0.27717 15.458-5.245 1.7402c-9.8997 3.2845-24.196 4.6526-37.755 3.6132zm168.5 0.10875c-41.846-4.8452-72.594-31.576-83.792-72.843-2.387-8.7972-2.6129-11.285-2.644-29.119-0.0315-18.039 0.16682-20.255 2.6466-29.576 9.17-34.467 31.477-58.678 63.313-68.718 11.867-3.7425 22.919-5.0591 37.38-4.4529 10.756 0.45089 14.133 1.029 23.113 3.9572 13.975 4.5567 23.787 10.394 32.842 19.54 4.2628 4.3051 7.7311 7.0601 8.2432 6.548 0.49045-0.49045 0.99844-32.255 1.1409-71.341l0.25681-70.457h35l0.25313 155.75 0.25314 155.75h-36.006l-0.0153-11.75c-8e-3 -6.4625-0.43552-12.414-0.9491-13.227-0.74677-1.1809-2.0528-0.24016-6.5208 4.6972-16.535 18.272-46.639 28.469-74.515 25.242zm38.5-37.386c10.878-3.6546 17.527-7.8419 25.002-15.744 11.861-12.539 17.715-28.87 17.686-49.332-0.0309-21.367-5.9963-37.298-18.779-50.149-8.0147-8.0578-19.329-14.261-29.909-16.397-8.6569-1.7477-25.726-1.4839-33.413 0.5164-14.17 3.6874-27.727 13.254-35.61 25.13-12.64 19.043-14.824 50.73-5.0227 72.892 7.8393 17.726 23.732 30.696 43.008 35.099 9.769 2.2313 27.227 1.2817 37.038-2.0146zm431.42 37.391c-19.873-2.3239-42.377-13.352-53.032-25.988-2.3094-2.7389-4.5785-4.9798-5.0424-4.9798s-0.8435 5.1382-0.8435 11.418c0 6.28-0.2731 12.13-0.607 13-0.5222 1.3608-3.1067 1.5818-18.503 1.5818h-17.896l0.2532-155.75 0.2531-155.75 16.868-0.27471c11.591-0.18878 17.3 0.08413 18.25 0.87244 1.1523 0.95637 1.3822 12.852 1.3822 71.525 0 39.826 0.3818 70.378 0.8795 70.378 0.4838 0 2.532-2.0166 4.5516-4.4812 9.9529-12.146 29.727-22.463 49.019-25.575 11.489-1.8533 31.857-0.70721 42.883 2.413 37.667 10.66 62.543 39.081 69.709 79.643 1.6745 9.4782 1.4435 31.059-0.4399 41.11-7.3603 39.279-33.536 68.681-69.265 77.804-7.8158 1.9956-24.072 4.1772-29.336 3.937-1.375-0.0628-5.4619-0.46046-9.0819-0.88378zm20.582-35.467c31.671-6.6266 51.229-35.011 49.19-71.387-0.3272-5.8376-1.3087-13.314-2.1812-16.614-8.4998-32.151-35.747-50.013-70.798-46.411-15.891 1.6329-31.918 9.954-40.908 21.239-4.7819 6.003-10.968 18.758-12.936 26.672-2.0807 8.3676-1.7878 32.815 0.4908 40.964 6.5808 23.537 24.125 40.645 46.642 45.481 8.5933 1.8456 21.83 1.8698 30.5 0.0557zm-312.25-125.23 0.25314-155.77h36v311l-36.506 0.54514zm99.42 155.06c-0.83288-0.83287-0.89163-190.58-0.0597-192.75 0.5222-1.3608 3.1064-1.5818 18.5-1.5818h17.893v195h-17.833c-9.8083 0-18.133-0.3-18.5-0.66667zm6.8333-240.49c-9.9652-5.1474-15.489-14.019-15.468-24.845 0.0147-7.8557 2.2311-13.263 7.6629-18.695 5.8646-5.8646 10.502-7.7162 19.305-7.7076 8.7167 0.0085 13.34 1.9573 19.14 8.0675 4.8163 5.0743 6.9128 9.4447 7.5659 15.772 1.1535 11.176-4.7907 21.934-14.904 26.974-6.7809 3.3791-17.223 3.5734-23.301 0.43374z"/><path d="m123.27 392.46c-13.578-3.6572-14.618-4.5281-63.642-53.315-26.671-26.542-47.423-48.01-49.584-51.295-2.0442-3.1069-5.023-9.1819-6.6195-13.5-2.4509-6.6289-2.9048-9.3455-2.9156-17.45-0.007015-5.2796 0.50215-10.68 1.1315-12s1.9293-4.6508 2.8889-7.4008c2.0988-6.015 9.8182-18.037 12.158-18.935 1.2413-0.47633 6.7768 4.36 21.341 18.646 10.816 10.609 19.733 19.738 19.816 20.286 0.08299 0.5483 27.038 27.914 59.901 60.812l59.75 59.816-4 3.5327c-5.0261 4.4389-13.78 8.9197-21.203 10.853-7.1046 1.8505-22.062 1.8248-29.022-0.05zm-5.0277-75.714-59.247-59.253 59.253-59.247c32.589-32.586 59.719-59.247 60.288-59.247 1.3007 0 10.459 9.2274 10.459 10.538 0 0.53307-23.625 24.591-52.5 53.462s-52.5 53.171-52.5 54 23.625 25.129 52.5 54 52.5 53.186 52.5 54.034c0 1.6627-8.9398 10.966-10.538 10.966-0.53284 0-27.63-26.664-60.216-59.253zm1099.5 53.474c-3.1453-3.1784-5.7187-6.206-5.7187-6.728 0-0.52192 23.73-24.694 52.732-53.716l52.732-52.767-52.732-52.767c-29.003-29.022-52.732-53.126-52.732-53.565 0-1.5534 10.315-11.678 11.897-11.678 0.8841 0 36.913 35.307 80.064 78.461s77.575 78.251 76.498 77.994c-9.3811-2.238-57.609-11.455-59.939-11.455-2.6106 0-8.8446 5.8488-49.03 46-25.322 25.3-46.492 46-47.046 46s-3.5796-2.6006-6.7249-5.779zm-958.86-8.2696c-12.344-1.099-25.034-4.4635-34.854-9.2412-6.8582-3.3366-10.287-5.8967-17.75-13.254-5.4891-5.4113-9.2284-9.899-9.1968-11.037 0.056-2.0189 22.643-21.265 25.981-22.138 1.1452-0.29947 3.3854 0.97359 6.135 3.4864 6.6208 6.0505 17 12.776 23.489 15.221 7.9873 3.0093 22.346 3.7418 32.198 1.6425 14.713-3.1353 24.789-11.303 25.88-20.977 0.78113-6.9302-0.46954-11.354-4.4584-15.769-6.747-7.4681-15.287-11.186-36.777-16.009-35.76-8.0268-52.093-17.072-59.977-33.218-5.8243-11.926-6.8935-27.214-2.8634-40.942 5.4663-18.619 22.923-33.341 47.341-39.925 7.1932-1.9395 10.96-2.2919 24.5-2.2919 18.507 0 27.098 1.7694 41.273 8.501 11.9 5.6512 26.881 20.301 24.139 23.606-0.59768 0.72016-6.9026 5.6556-14.011 10.968l-12.924 9.6583-4.4591-4.1102c-11.781-10.859-20.688-14.431-36.017-14.444-11.752-0.01-17.871 1.5775-25.054 6.4994-8.5736 5.8747-10.492 18.331-4.1874 27.185 5.0665 7.1153 20.31 13.94 38.242 17.122 11.624 2.0624 27.095 6.8237 36.186 11.137 21.894 10.387 32.522 32.596 27.917 58.335-4.0949 22.886-21.656 39.86-48.207 46.595-8.2894 2.1028-27.958 4.7185-32.397 4.3084-0.825-0.0762-5.3906-0.48497-10.146-0.90832zm199.65-0.09802c-23.25-1.7822-38.942-12.628-44.573-30.806-3.0989-10.005-3.866-26.594-3.8979-84.297-0.016-29.012-0.14167-52.839-0.27917-52.949-0.1375-0.10927-9.7-0.44677-21.25-0.75l-21-0.55134v-30l42-1 0.54113-27c0.29761-14.85 0.63511-27.112 0.75-27.25 0.11488-0.1375 8.3089-0.25 18.209-0.25h18v26.378c0 20.742 0.28446 26.614 1.3314 27.482 0.87498 0.72617 10.044 1.1966 26.75 1.3724l25.419 0.26753v30l-25.702 0.5c-17.571 0.34182-26.069 0.86739-26.861 1.6613-0.86193 0.86338-1.0412 14.972-0.69899 55 0.44139 51.624 0.54837 54.11 2.6007 60.424 2.2718 6.9902 6.6392 12.481 12.458 15.663 4.893 2.6754 25.086 2.3542 33.007-0.52499 4.3498-1.5811 5.9219-1.8002 6.2772-0.87447 0.26066 0.67926 0.3492 8.1911 0.19676 16.693l-0.27717 15.458-5.245 1.7402c-9.8997 3.2845-24.196 4.6526-37.755 3.6132zm168.5 0.10875c-41.846-4.8452-72.594-31.576-83.792-72.843-2.387-8.7972-2.6129-11.285-2.644-29.119-0.0315-18.039 0.16682-20.255 2.6466-29.576 9.17-34.467 31.477-58.678 63.313-68.718 11.867-3.7425 22.919-5.0591 37.38-4.4529 10.756 0.45089 14.133 1.029 23.113 3.9572 13.975 4.5567 23.787 10.394 32.842 19.54 4.2628 4.3051 7.7311 7.0601 8.2432 6.548 0.49045-0.49045 0.99844-32.255 1.1409-71.341l0.25681-70.457h35l0.25313 155.75 0.25314 155.75h-36.006l-0.0153-11.75c-8e-3 -6.4625-0.43552-12.414-0.9491-13.227-0.74677-1.1809-2.0528-0.24016-6.5208 4.6972-16.535 18.272-46.639 28.469-74.515 25.242zm38.5-37.386c10.878-3.6546 17.527-7.8419 25.002-15.744 11.861-12.539 17.715-28.87 17.686-49.332-0.0309-21.367-5.9963-37.298-18.779-50.149-8.0147-8.0578-19.329-14.261-29.909-16.397-8.6569-1.7477-25.726-1.4839-33.413 0.5164-14.17 3.6874-27.727 13.254-35.61 25.13-12.64 19.043-14.824 50.73-5.0227 72.892 7.8393 17.726 23.732 30.696 43.008 35.099 9.769 2.2313 27.227 1.2817 37.038-2.0146zm431.42 37.391c-19.873-2.3239-42.377-13.352-53.032-25.988-2.3094-2.7389-4.5785-4.9798-5.0424-4.9798s-0.8435 5.1382-0.8435 11.418c0 6.28-0.2731 12.13-0.607 13-0.5222 1.3608-3.1067 1.5818-18.503 1.5818h-17.896l0.2532-155.75 0.2531-155.75 16.868-0.27471c11.591-0.18878 17.3 0.08413 18.25 0.87244 1.1523 0.95637 1.3822 12.852 1.3822 71.525 0 39.826 0.3818 70.378 0.8795 70.378 0.4838 0 2.532-2.0166 4.5516-4.4812 9.9529-12.146 29.727-22.463 49.019-25.575 11.489-1.8533 31.857-0.70721 42.883 2.413 37.667 10.66 62.543 39.081 69.709 79.643 1.6745 9.4782 1.4435 31.059-0.4399 41.11-7.3603 39.279-33.536 68.681-69.265 77.804-7.8158 1.9956-24.072 4.1772-29.336 3.937-1.375-0.0628-5.4619-0.46046-9.0819-0.88378zm20.582-35.467c31.671-6.6266 51.229-35.011 49.19-71.387-0.3272-5.8376-1.3087-13.314-2.1812-16.614-8.4998-32.151-35.747-50.013-70.798-46.411-15.891 1.6329-31.918 9.954-40.908 21.239-4.7819 6.003-10.968 18.758-12.936 26.672-2.0807 8.3676-1.7878 32.815 0.4908 40.964 6.5808 23.537 24.125 40.645 46.642 45.481 8.5933 1.8456 21.83 1.8698 30.5 0.0557zm-312.25-125.23 0.25314-155.77h36v311l-36.506 0.54514zm99.42 155.06c-0.83288-0.83287-0.89163-190.58-0.0597-192.75 0.5222-1.3608 3.1064-1.5818 18.5-1.5818h17.893v195h-17.833c-9.8083 0-18.133-0.3-18.5-0.66667zm6.8333-240.49c-9.9652-5.1474-15.489-14.019-15.468-24.845 0.0147-7.8557 2.2311-13.263 7.6629-18.695 5.8646-5.8646 10.502-7.7162 19.305-7.7076 8.7167 0.0085 13.34 1.9573 19.14 8.0675 4.8163 5.0743 6.9128 9.4447 7.5659 15.772 1.1535 11.176-4.7907 21.934-14.904 26.974-6.7809 3.3791-17.223 3.5734-23.301 0.43374z"/><path d="m118.25 316.75-59.247-59.253 59.253-59.247c32.589-32.586 59.719-59.247 60.288-59.247 1.3007 0 10.459 9.2274 10.459 10.538 0 0.53307-23.625 24.591-52.5 53.462s-52.5 53.171-52.5 54 23.625 25.129 52.5 54 52.5 53.186 52.5 54.034c0 1.6627-8.9398 10.966-10.538 10.966-0.53284 0-27.63-26.664-60.216-59.253zm1099.5 53.474c-3.1453-3.1784-5.7187-6.206-5.7187-6.728 0-0.52192 23.73-24.694 52.732-53.716l52.732-52.767-52.732-52.767c-29.003-29.022-52.732-53.126-52.732-53.565 0-1.5534 10.315-11.678 11.897-11.678 0.8841 0 36.913 35.307 80.064 78.461s77.575 78.251 76.498 77.994c-9.3811-2.238-57.609-11.455-59.939-11.455-2.6106 0-8.8446 5.8488-49.03 46-25.322 25.3-46.492 46-47.046 46s-3.5796-2.6006-6.7249-5.779zm-958.86-8.2696c-12.344-1.099-25.034-4.4635-34.854-9.2412-6.8582-3.3366-10.287-5.8967-17.75-13.254-5.4891-5.4113-9.2284-9.899-9.1968-11.037 0.056-2.0189 22.643-21.265 25.981-22.138 1.1452-0.29947 3.3854 0.97359 6.135 3.4864 6.6208 6.0505 17 12.776 23.489 15.221 7.9873 3.0093 22.346 3.7418 32.198 1.6425 14.713-3.1353 24.789-11.303 25.88-20.977 0.78113-6.9302-0.46954-11.354-4.4584-15.769-6.747-7.4681-15.287-11.186-36.777-16.009-35.76-8.0268-52.093-17.072-59.977-33.218-5.8243-11.926-6.8935-27.214-2.8634-40.942 5.4663-18.619 22.923-33.341 47.341-39.925 7.1932-1.9395 10.96-2.2919 24.5-2.2919 18.507 0 27.098 1.7694 41.273 8.501 11.9 5.6512 26.881 20.301 24.139 23.606-0.59768 0.72016-6.9026 5.6556-14.011 10.968l-12.924 9.6583-4.4591-4.1102c-11.781-10.859-20.688-14.431-36.017-14.444-11.752-0.01-17.871 1.5775-25.054 6.4994-8.5736 5.8747-10.492 18.331-4.1874 27.185 5.0665 7.1153 20.31 13.94 38.242 17.122 11.624 2.0624 27.095 6.8237 36.186 11.137 21.894 10.387 32.522 32.596 27.917 58.335-4.0949 22.886-21.656 39.86-48.207 46.595-8.2894 2.1028-27.958 4.7185-32.397 4.3084-0.825-0.0762-5.3906-0.48497-10.146-0.90832zm199.65-0.09802c-23.25-1.7822-38.942-12.628-44.573-30.806-3.0989-10.005-3.866-26.594-3.8979-84.297-0.016-29.012-0.14167-52.839-0.27917-52.949-0.1375-0.10927-9.7-0.44677-21.25-0.75l-21-0.55134v-30l42-1 0.54113-27c0.29761-14.85 0.63511-27.112 0.75-27.25 0.11488-0.1375 8.3089-0.25 18.209-0.25h18v26.378c0 20.742 0.28446 26.614 1.3314 27.482 0.87498 0.72617 10.044 1.1966 26.75 1.3724l25.419 0.26753v30l-25.702 0.5c-17.571 0.34182-26.069 0.86739-26.861 1.6613-0.86193 0.86338-1.0412 14.972-0.69899 55 0.44139 51.624 0.54837 54.11 2.6007 60.424 2.2718 6.9902 6.6392 12.481 12.458 15.663 4.893 2.6754 25.086 2.3542 33.007-0.52499 4.3498-1.5811 5.9219-1.8002 6.2772-0.87447 0.26066 0.67926 0.3492 8.1911 0.19676 16.693l-0.27717 15.458-5.245 1.7402c-9.8997 3.2845-24.196 4.6526-37.755 3.6132zm168.5 0.10875c-41.846-4.8452-72.594-31.576-83.792-72.843-2.387-8.7972-2.6129-11.285-2.644-29.119-0.0315-18.039 0.16682-20.255 2.6466-29.576 9.17-34.467 31.477-58.678 63.313-68.718 11.867-3.7425 22.919-5.0591 37.38-4.4529 10.756 0.45089 14.133 1.029 23.113 3.9572 13.975 4.5567 23.787 10.394 32.842 19.54 4.2628 4.3051 7.7311 7.0601 8.2432 6.548 0.49045-0.49045 0.99844-32.255 1.1409-71.341l0.25681-70.457h35l0.25313 155.75 0.25314 155.75h-36.006l-0.0153-11.75c-8e-3 -6.4625-0.43552-12.414-0.9491-13.227-0.74677-1.1809-2.0528-0.24016-6.5208 4.6972-16.535 18.272-46.639 28.469-74.515 25.242zm38.5-37.386c10.878-3.6546 17.527-7.8419 25.002-15.744 11.861-12.539 17.715-28.87 17.686-49.332-0.0309-21.367-5.9963-37.298-18.779-50.149-8.0147-8.0578-19.329-14.261-29.909-16.397-8.6569-1.7477-25.726-1.4839-33.413 0.5164-14.17 3.6874-27.727 13.254-35.61 25.13-12.64 19.043-14.824 50.73-5.0227 72.892 7.8393 17.726 23.732 30.696 43.008 35.099 9.769 2.2313 27.227 1.2817 37.038-2.0146zm431.42 37.391c-19.873-2.3239-42.377-13.352-53.032-25.988-2.3094-2.7389-4.5785-4.9798-5.0424-4.9798s-0.8435 5.1382-0.8435 11.418c0 6.28-0.2731 12.13-0.607 13-0.5222 1.3608-3.1067 1.5818-18.503 1.5818h-17.896l0.2532-155.75 0.2531-155.75 16.868-0.27471c11.591-0.18878 17.3 0.08413 18.25 0.87244 1.1523 0.95637 1.3822 12.852 1.3822 71.525 0 39.826 0.3818 70.378 0.8795 70.378 0.4838 0 2.532-2.0166 4.5516-4.4812 9.9529-12.146 29.727-22.463 49.019-25.575 11.489-1.8533 31.857-0.70721 42.883 2.413 37.667 10.66 62.543 39.081 69.709 79.643 1.6745 9.4782 1.4435 31.059-0.4399 41.11-7.3603 39.279-33.536 68.681-69.265 77.804-7.8158 1.9956-24.072 4.1772-29.336 3.937-1.375-0.0628-5.4619-0.46046-9.0819-0.88378zm20.582-35.467c31.671-6.6266 51.229-35.011 49.19-71.387-0.3272-5.8376-1.3087-13.314-2.1812-16.614-8.4998-32.151-35.747-50.013-70.798-46.411-15.891 1.6329-31.918 9.954-40.908 21.239-4.7819 6.003-10.968 18.758-12.936 26.672-2.0807 8.3676-1.7878 32.815 0.4908 40.964 6.5808 23.537 24.125 40.645 46.642 45.481 8.5933 1.8456 21.83 1.8698 30.5 0.0557zm-312.25-125.23 0.25314-155.77h36v311l-36.506 0.54514zm99.42 155.06c-0.83288-0.83287-0.89163-190.58-0.0597-192.75 0.5222-1.3608 3.1064-1.5818 18.5-1.5818h17.893v195h-17.833c-9.8083 0-18.133-0.3-18.5-0.66667zm6.8333-240.49c-9.9652-5.1474-15.489-14.019-15.468-24.845 0.0147-7.8557 2.2311-13.263 7.6629-18.695 5.8646-5.8646 10.502-7.7162 19.305-7.7076 8.7167 0.0085 13.34 1.9573 19.14 8.0675 4.8163 5.0743 6.9128 9.4447 7.5659 15.772 1.1535 11.176-4.7907 21.934-14.904 26.974-6.7809 3.3791-17.223 3.5734-23.301 0.43374z"/><path d="m258.85 361.95c-12.344-1.099-25.034-4.4635-34.854-9.2412-6.8582-3.3366-10.287-5.8967-17.75-13.254-5.4891-5.4113-9.2284-9.899-9.1968-11.037 0.056-2.0189 22.643-21.265 25.981-22.138 1.1452-0.29947 3.3854 0.97359 6.135 3.4864 6.6208 6.0505 17 12.776 23.489 15.221 7.9873 3.0093 22.346 3.7418 32.198 1.6425 14.713-3.1353 24.789-11.303 25.88-20.977 0.78113-6.9302-0.46954-11.354-4.4584-15.769-6.747-7.4681-15.287-11.186-36.777-16.009-35.76-8.0268-52.093-17.072-59.977-33.218-5.8243-11.926-6.8935-27.214-2.8634-40.942 5.4663-18.619 22.923-33.341 47.341-39.925 7.1932-1.9395 10.96-2.2919 24.5-2.2919 18.507 0 27.098 1.7694 41.273 8.501 11.9 5.6512 26.881 20.301 24.139 23.606-0.59768 0.72016-6.9026 5.6556-14.011 10.968l-12.924 9.6583-4.4591-4.1102c-11.781-10.859-20.688-14.431-36.017-14.444-11.752-0.01-17.871 1.5775-25.054 6.4994-8.5736 5.8747-10.492 18.331-4.1874 27.185 5.0665 7.1153 20.31 13.94 38.242 17.122 11.624 2.0624 27.095 6.8237 36.186 11.137 21.894 10.387 32.522 32.596 27.917 58.335-4.0949 22.886-21.656 39.86-48.207 46.595-8.2894 2.1028-27.958 4.7185-32.397 4.3084-0.825-0.0762-5.3906-0.48497-10.146-0.90832zm199.65-0.09802c-23.25-1.7822-38.942-12.628-44.573-30.806-3.0989-10.005-3.866-26.594-3.8979-84.297-0.016-29.012-0.14167-52.839-0.27917-52.949-0.1375-0.10927-9.7-0.44677-21.25-0.75l-21-0.55134v-30l42-1 0.54113-27c0.29761-14.85 0.63511-27.112 0.75-27.25 0.11488-0.1375 8.3089-0.25 18.209-0.25h18v26.378c0 20.742 0.28446 26.614 1.3314 27.482 0.87498 0.72617 10.044 1.1966 26.75 1.3724l25.419 0.26753v30l-25.702 0.5c-17.571 0.34182-26.069 0.86739-26.861 1.6613-0.86193 0.86338-1.0412 14.972-0.69899 55 0.44139 51.624 0.54837 54.11 2.6007 60.424 2.2718 6.9902 6.6392 12.481 12.458 15.663 4.893 2.6754 25.086 2.3542 33.007-0.52499 4.3498-1.5811 5.9219-1.8002 6.2772-0.87447 0.26066 0.67926 0.3492 8.1911 0.19676 16.693l-0.27717 15.458-5.245 1.7402c-9.8997 3.2845-24.196 4.6526-37.755 3.6132zm168.5 0.10875c-41.846-4.8452-72.594-31.576-83.792-72.843-2.387-8.7972-2.6129-11.285-2.644-29.119-0.0315-18.039 0.16682-20.255 2.6466-29.576 9.17-34.467 31.477-58.678 63.313-68.718 11.867-3.7425 22.919-5.0591 37.38-4.4529 10.756 0.45089 14.133 1.029 23.113 3.9572 13.975 4.5567 23.787 10.394 32.842 19.54 4.2628 4.3051 7.7311 7.0601 8.2432 6.548 0.49045-0.49045 0.99844-32.255 1.1409-71.341l0.25681-70.457h35l0.25313 155.75 0.25314 155.75h-36.006l-0.0153-11.75c-8e-3 -6.4625-0.43552-12.414-0.9491-13.227-0.74677-1.1809-2.0528-0.24016-6.5208 4.6972-16.535 18.272-46.639 28.469-74.515 25.242zm38.5-37.386c10.878-3.6546 17.527-7.8419 25.002-15.744 11.861-12.539 17.715-28.87 17.686-49.332-0.0309-21.367-5.9963-37.298-18.779-50.149-8.0147-8.0578-19.329-14.261-29.909-16.397-8.6569-1.7477-25.726-1.4839-33.413 0.5164-14.17 3.6874-27.727 13.254-35.61 25.13-12.64 19.043-14.824 50.73-5.0227 72.892 7.8393 17.726 23.732 30.696 43.008 35.099 9.769 2.2313 27.227 1.2817 37.038-2.0146zm431.42 37.391c-19.873-2.3239-42.377-13.352-53.032-25.988-2.3094-2.7389-4.5785-4.9798-5.0424-4.9798s-0.8435 5.1382-0.8435 11.418c0 6.28-0.2731 12.13-0.607 13-0.5222 1.3608-3.1067 1.5818-18.503 1.5818h-17.896l0.2532-155.75 0.2531-155.75 16.868-0.27471c11.591-0.18878 17.3 0.08413 18.25 0.87244 1.1523 0.95637 1.3822 12.852 1.3822 71.525 0 39.826 0.3818 70.378 0.8795 70.378 0.4838 0 2.532-2.0166 4.5516-4.4812 9.9529-12.146 29.727-22.463 49.019-25.575 11.489-1.8533 31.857-0.70721 42.883 2.413 37.667 10.66 62.543 39.081 69.709 79.643 1.6745 9.4782 1.4435 31.059-0.4399 41.11-7.3603 39.279-33.536 68.681-69.265 77.804-7.8158 1.9956-24.072 4.1772-29.336 3.937-1.375-0.0628-5.4619-0.46046-9.0819-0.88378zm20.582-35.467c31.671-6.6266 51.229-35.011 49.19-71.387-0.3272-5.8376-1.3087-13.314-2.1812-16.614-8.4998-32.151-35.747-50.013-70.798-46.411-15.891 1.6329-31.918 9.954-40.908 21.239-4.7819 6.003-10.968 18.758-12.936 26.672-2.0807 8.3676-1.7878 32.815 0.4908 40.964 6.5808 23.537 24.125 40.645 46.642 45.481 8.5933 1.8456 21.83 1.8698 30.5 0.0557zm-312.25-125.23 0.25314-155.77h36v311l-36.506 0.54514zm99.42 155.06c-0.83288-0.83287-0.89163-190.58-0.0597-192.75 0.5222-1.3608 3.1064-1.5818 18.5-1.5818h17.893v195h-17.833c-9.8083 0-18.133-0.3-18.5-0.66667zm6.8333-240.49c-9.9652-5.1474-15.489-14.019-15.468-24.845 0.0147-7.8557 2.2311-13.263 7.6629-18.695 5.8646-5.8646 10.502-7.7162 19.305-7.7076 8.7167 0.0085 13.34 1.9573 19.14 8.0675 4.8163 5.0743 6.9128 9.4447 7.5659 15.772 1.1535 11.176-4.7907 21.934-14.904 26.974-6.7809 3.3791-17.223 3.5734-23.301 0.43374z"/><path d="m246.81 359.09c-15.381-3.3486-24.1-7.1263-33.978-14.72-5.783-4.4461-14.83-14.264-14.83-16.093 0-0.94771 24.264-21.272 25.395-21.272 0.28629 0 4.477 3.178 9.3126 7.0622 15.083 12.116 25.524 15.67 43.103 14.672 15.303-0.86841 26.204-5.6427 32.886-14.403 2.2407-2.9377 2.826-4.8844 3.1402-10.443 0.33769-5.9762 0.056-7.3959-2.2475-11.326-5.298-9.0403-14.879-13.757-40.589-19.983-10.175-2.4638-21.817-5.6186-25.871-7.0108-22.349-7.6745-34.46-20.807-37.204-40.34-2.6396-18.792 3.2588-35.754 16.724-48.093 7.2761-6.6674 17.445-12.039 29.851-15.769 8.2556-2.4819 10.406-2.7057 26-2.7057 15.563 0 17.761 0.22758 26 2.6929 14.251 4.264 22.89 8.9673 30.561 16.639 5.7749 5.7749 8.9847 10.488 7.7799 11.423-10.382 8.0606-25.055 18.584-25.91 18.584-0.63282 0-3.5879-2.2276-6.5669-4.9502-10.324-9.4355-23.475-13.836-37.864-12.671-17.517 1.4183-28.336 8.6747-30.058 20.16-2.2836 15.228 11.827 26.627 40.119 32.408 35.872 7.3306 52.643 16.268 61.086 32.553 4.2699 8.2358 5.7755 15.321 5.631 26.5-0.18442 14.27-3.6296 23.899-12.278 34.317-8.6077 10.37-20.266 17.308-35.932 21.386-13.451 3.5013-41.272 4.21-54.26 1.3822zm201.57 0.42308c-14.058-3.0577-25.963-11.745-30.768-22.451-5.4064-12.047-5.5688-14.382-5.6043-80.558-0.0196-36.58-0.41155-61.6-0.9791-62.5-0.77424-1.2271-4.7283-1.591-21.735-2l-20.788-0.5v-28l20.5-0.26121c17.842-0.22733 20.662-0.47904 21.75-1.9411 0.92432-1.2422 1.25-8.4043 1.25-27.489v-25.809h34v26.378c0 20.742 0.28446 26.614 1.3314 27.482 0.87498 0.72617 10.044 1.1966 26.75 1.3724l25.419 0.26753 0.27746 14.25 0.27745 14.25h-25.093c-15.385 0-25.842 0.4005-27.027 1.0352-1.8719 1.0018-1.934 2.6061-1.9261 49.75 5e-3 26.793 0.46831 52.731 1.0307 57.64 1.5885 13.866 5.6636 21.169 14.461 25.916 3.5303 1.905 5.4679 2.1452 16.5 2.0462 8.8988-0.0799 13.761-0.58405 16.876-1.75 2.4066-0.90078 4.7692-1.6378 5.25-1.6378s0.87427 6.773 0.87427 15.051v15.051l-3.75 1.5716c-9.7726 4.0956-36.067 5.6208-48.875 2.8351zm173.63 0.79567c-33.845-5.73-60.735-26.916-72.936-57.464-6.2509-15.652-7.5726-23.391-7.487-43.84 0.0695-16.6 0.34301-19.489 2.663-28.134 9.726-36.24 32.396-59.644 67.33-69.509 9.1506-2.584 11.264-2.8009 26.93-2.7638 15.615 0.037 17.729 0.26326 25.951 2.7775 15.886 4.8583 31.947 14.889 38.549 24.075 2.5522 3.5511 4.8076 5.0803 5.8931 3.9954 0.33378-0.33358 0.83187-32.632 1.1069-71.774l0.5-71.167h33l0.25315 154.75 0.25316 154.75h-34.006l-0.0153-12.25c-8e-3 -6.7375-0.44302-12.925-0.96577-13.75-0.76873-1.2132-2.2645-0.14424-7.8228 5.5906-11.562 11.929-23.195 18.495-40.583 22.906-8.2803 2.1005-11.983 2.4817-22.991 2.3675-7.217-0.0749-14.247-0.32665-15.622-0.55944zm37.372-32.795c23.613-5.0029 41.124-22.28 47.736-47.102 3.0336-11.387 3.0312-29.795-5e-3 -41.294-5.4152-20.506-16.93-34.668-34.938-42.968-25.647-11.822-59.658-5.2656-77.503 14.94-5.4513 6.1723-11.699 18.367-14.301 27.915-2.4535 9.0012-2.4953 31.882-0.075 41 4.1689 15.706 13.838 29.934 25.915 38.136 6.0494 4.1081 16.326 8.4503 23.3 9.8452 6.6401 1.3281 22.564 1.0768 29.872-0.47143zm425.63 31.02c-5.225-1.3681-13.774-4.5967-18.997-7.1746-7.9172-3.9072-10.967-6.1568-18.331-13.521-4.8585-4.8585-9.199-8.8336-9.6456-8.8336-1.5822 0-2.0259 3.3029-2.0259 15.082v11.918h-34.006l0.2531-154.75 0.2532-154.75h33l0.5167 71.5c0.2841 39.325 0.6216 71.612 0.75 71.75 0.8901 0.95368 3.1201-0.79528 10.902-8.5505 7.3631-7.3376 10.41-9.5756 18.331-13.463 15.715-7.7128 22.644-9.2285 42-9.1869 12.653 0.0272 18.132 0.4607 23.5 1.8592 24.52 6.3883 43.506 19.33 56.439 38.469 5.8292 8.627 10.309 18.628 13.717 30.622 2.6943 9.483 2.8411 11.034 2.8381 30 0 18.723-0.1774 20.625-2.7337 29.783-9.761 34.973-33.081 59.112-66.039 68.357-7.703 2.161-11.856 2.6519-25.221 2.9812-14.574 0.35918-16.846 0.17267-25.5-2.0932zm33.315-31.008c11.712-2.4816 21.1-7.7243 30.291-16.915 8.8096-8.8095 13.702-17.286 17.106-29.638 2.492-9.0411 2.4484-33.756-0.076-42.877-5.1087-18.46-17.085-33.448-32.637-40.845-11.266-5.3579-17.32-6.6815-30.5-6.6675-13.509 0.0143-19.55 1.3199-30.5 6.5917-15.648 7.5339-27.601 22.345-32.547 40.329-2.4035 8.7402-3.0307 30.185-1.1406 39 3.3774 15.75 11.349 29.851 21.476 37.988 7.1703 5.7613 18.274 11.217 26.436 12.99 8.3384 1.8109 23.65 1.8315 32.09 0.0432zm-312.07-126.27 0.25315-154.75h34l0.25315 154.75 0.25316 154.75h-35.013zm99.753 58.25v-96.5h34v193h-34zm5.2198-145.08c-19.695-9.8145-18.657-38.498 1.7075-47.199 4.4332-1.8942 14.325-2.0732 19.342-0.34991 2.0733 0.71208 5.9814 3.449 8.6847 6.0821 8.124 7.913 10.165 20.009 5.0644 30.008-2.2719 4.4533-9.0162 10.72-13.597 12.634-5.6022 2.3407-15.216 1.808-21.202-1.1749z"/></g></svg>
