<?xml version="1.0" encoding="UTF-8" standalone="no"?>
<svg
   xmlns:dc="http://purl.org/dc/elements/1.1/"
   xmlns:cc="http://creativecommons.org/ns#"
   xmlns:rdf="http://www.w3.org/1999/02/22-rdf-syntax-ns#"
   xmlns:svg="http://www.w3.org/2000/svg"
   xmlns="http://www.w3.org/2000/svg"
   xmlns:sodipodi="http://sodipodi.sourceforge.net/DTD/sodipodi-0.dtd"
   xmlns:inkscape="http://www.inkscape.org/namespaces/inkscape"
   width="187.25"
   height="24.4"
   version="1.1"
   id="svg8"
   sodipodi:docname="telus-digital.svg"
   inkscape:version="0.92.3 (2405546, 2018-03-11)">
  <metadata
     id="metadata14">
    <rdf:RDF>
      <cc:Work
         rdf:about="">
        <dc:format>image/svg+xml</dc:format>
        <dc:type
           rdf:resource="http://purl.org/dc/dcmitype/StillImage" />
        <dc:title></dc:title>
      </cc:Work>
    </rdf:RDF>
  </metadata>
  <defs
     id="defs12" />
  <sodipodi:namedview
     pagecolor="#ffffff"
     bordercolor="#666666"
     borderopacity="1"
     objecttolerance="10"
     gridtolerance="10"
     guidetolerance="10"
     inkscape:pageopacity="0"
     inkscape:pageshadow="2"
     inkscape:window-width="2560"
     inkscape:window-height="1412"
     id="namedview10"
     showgrid="false"
     fit-margin-top="0"
     fit-margin-left="0"
     fit-margin-right="0"
     fit-margin-bottom="0"
     inkscape:zoom="1.7453704"
     inkscape:cx="-65.888594"
     inkscape:cy="12.4"
     inkscape:window-x="0"
     inkscape:window-y="0"
     inkscape:window-maximized="1"
     inkscape:current-layer="svg8" />
  <path
     d="m 138.368,4.434 h 4.693 c 2.065,0.05 3.62,0.63 4.665,1.738 1.045,1.109 1.567,2.79 1.567,5.045 0,2.255 -0.522,3.936 -1.567,5.045 -1.046,1.108 -2.6,1.687 -4.665,1.738 h -4.693 z m 1.292,12.464 h 2.755 c 0.975,0 1.814,-0.104 2.518,-0.314 0.703,-0.209 1.282,-0.541 1.738,-0.997 0.456,-0.456 0.792,-1.045 1.007,-1.767 0.215,-0.722 0.323,-1.59 0.323,-2.603 0,-1.013 -0.108,-1.881 -0.323,-2.603 C 147.463,7.892 147.127,7.303 146.671,6.847 146.215,6.391 145.636,6.059 144.933,5.85 144.229,5.64 143.39,5.536 142.415,5.536 H 139.66 Z M 151.474,4.434 h 1.197 v 1.919 h -1.197 z m 0,3.762 h 1.197 V 18 h -1.197 z m 12.08,9.006 c 0,0.722 -0.08,1.374 -0.238,1.957 -0.158,0.583 -0.408,1.077 -0.75,1.482 -0.342,0.405 -0.788,0.716 -1.34,0.931 -0.55,0.215 -1.225,0.323 -2.023,0.323 a 6.09,6.09 0 0 1 -1.444,-0.171 4.106,4.106 0 0 1 -1.263,-0.532 3.15,3.15 0 0 1 -0.931,-0.922 c -0.248,-0.373 -0.39,-0.82 -0.428,-1.339 h 1.197 c 0.063,0.367 0.187,0.674 0.37,0.921 0.184,0.248 0.406,0.447 0.665,0.599 0.26,0.152 0.548,0.263 0.865,0.332 0.317,0.07 0.64,0.105 0.969,0.105 1.115,0 1.919,-0.317 2.413,-0.95 0.494,-0.633 0.741,-1.545 0.741,-2.736 v -1.33 h -0.038 a 3.5,3.5 0 0 1 -1.225,1.463 c -0.539,0.367 -1.169,0.551 -1.891,0.551 -0.785,0 -1.457,-0.13 -2.014,-0.39 a 3.74,3.74 0 0 1 -1.377,-1.073 4.379,4.379 0 0 1 -0.789,-1.605 7.57,7.57 0 0 1 -0.247,-1.967 c 0,-0.671 0.098,-1.308 0.294,-1.91 a 4.738,4.738 0 0 1 0.856,-1.577 3.97,3.97 0 0 1 1.387,-1.064 c 0.55,-0.26 1.18,-0.389 1.89,-0.389 0.367,0 0.712,0.05 1.035,0.152 0.324,0.101 0.618,0.244 0.884,0.428 0.266,0.183 0.503,0.395 0.712,0.636 0.21,0.24 0.371,0.494 0.485,0.76 h 0.038 V 8.196 h 1.197 z m -4.351,-0.323 c 0.52,0 0.975,-0.11 1.368,-0.332 0.393,-0.222 0.722,-0.513 0.988,-0.875 0.266,-0.36 0.465,-0.775 0.599,-1.244 0.133,-0.469 0.199,-0.95 0.199,-1.444 0,-0.481 -0.057,-0.963 -0.171,-1.444 a 4.17,4.17 0 0 0 -0.551,-1.311 2.984,2.984 0 0 0 -0.978,-0.95 c -0.4,-0.24 -0.884,-0.361 -1.454,-0.361 -0.57,0 -1.058,0.117 -1.463,0.352 a 3.12,3.12 0 0 0 -1.007,0.921 c -0.266,0.38 -0.46,0.814 -0.58,1.301 -0.12,0.488 -0.18,0.985 -0.18,1.492 0,0.494 0.063,0.975 0.19,1.444 0.127,0.469 0.323,0.883 0.589,1.244 a 3.05,3.05 0 0 0 1.007,0.875 c 0.405,0.221 0.887,0.332 1.444,0.332 z m 6.95,-12.445 h 1.197 v 1.919 h -1.197 z m 0,3.762 h 1.197 V 18 h -1.197 z m 5.696,0 h 1.995 v 1.007 h -1.995 v 6.612 c 0,0.393 0.054,0.7 0.162,0.921 0.107,0.222 0.376,0.346 0.807,0.371 0.342,0 0.684,-0.019 1.026,-0.057 v 1.007 c -0.177,0 -0.355,0.006 -0.532,0.019 a 7.465,7.465 0 0 1 -0.532,0.019 c -0.798,0 -1.355,-0.155 -1.672,-0.465 -0.317,-0.31 -0.469,-0.884 -0.456,-1.72 V 9.203 h -1.71 V 8.196 h 1.71 V 5.251 h 1.197 z m 3.91,3.002 c 0.038,-0.57 0.158,-1.064 0.361,-1.482 a 2.81,2.81 0 0 1 0.826,-1.026 3.499,3.499 0 0 1 1.226,-0.589 c 0.469,-0.127 0.988,-0.19 1.558,-0.19 0.43,0 0.861,0.041 1.292,0.123 0.43,0.083 0.817,0.238 1.159,0.466 0.342,0.228 0.62,0.548 0.836,0.96 0.215,0.411 0.323,0.946 0.323,1.605 v 5.206 c 0,0.481 0.234,0.722 0.703,0.722 0.14,0 0.266,-0.025 0.38,-0.076 v 1.007 A 3.607,3.607 0 0 1 183.644,18 c -0.304,0 -0.548,-0.041 -0.732,-0.123 a 0.982,0.982 0 0 1 -0.427,-0.352 1.319,1.319 0 0 1 -0.2,-0.541 4.649,4.649 0 0 1 -0.047,-0.694 H 182.2 a 7.998,7.998 0 0 1 -0.655,0.846 3.259,3.259 0 0 1 -0.741,0.617 3.417,3.417 0 0 1 -0.931,0.38 5.096,5.096 0 0 1 -1.245,0.133 c -0.456,0 -0.883,-0.054 -1.282,-0.161 a 2.88,2.88 0 0 1 -1.046,-0.514 2.453,2.453 0 0 1 -0.703,-0.893 c -0.17,-0.36 -0.256,-0.788 -0.256,-1.282 0,-0.684 0.152,-1.22 0.456,-1.606 a 2.87,2.87 0 0 1 1.207,-0.883 6.882,6.882 0 0 1 1.69,-0.428 c 0.628,-0.082 1.264,-0.161 1.91,-0.237 a 6.97,6.97 0 0 0 0.665,-0.095 1.16,1.16 0 0 0 0.475,-0.2 0.924,0.924 0 0 0 0.294,-0.389 c 0.07,-0.165 0.105,-0.38 0.105,-0.646 0,-0.405 -0.066,-0.738 -0.2,-0.998 a 1.577,1.577 0 0 0 -0.55,-0.617 2.222,2.222 0 0 0 -0.817,-0.313 5.522,5.522 0 0 0 -0.998,-0.086 c -0.76,0 -1.38,0.18 -1.862,0.542 -0.481,0.36 -0.735,0.94 -0.76,1.738 z m 6.384,1.444 h -0.038 c -0.076,0.14 -0.222,0.24 -0.437,0.304 a 4.46,4.46 0 0 1 -0.57,0.133 c -0.507,0.089 -1.03,0.168 -1.568,0.237 a 8.653,8.653 0 0 0 -1.472,0.314 c -0.443,0.14 -0.807,0.339 -1.093,0.598 -0.285,0.26 -0.427,0.63 -0.427,1.112 0,0.304 0.06,0.573 0.18,0.808 0.12,0.234 0.282,0.436 0.485,0.608 0.203,0.17 0.437,0.3 0.703,0.389 0.266,0.089 0.538,0.133 0.817,0.133 0.456,0 0.893,-0.07 1.311,-0.209 0.418,-0.14 0.782,-0.342 1.093,-0.608 0.31,-0.266 0.557,-0.589 0.74,-0.969 0.184,-0.38 0.276,-0.81 0.276,-1.292 z m 3.91,-8.208 h 1.197 V 18 h -1.197 z M 75.2,6.8 V 4.1 H 66 v 13.5 h 9.2 v -2.7 h -5.5 v -3 h 4.6 V 9.3 H 69.7 V 6.8 h 5.5 M 91.6,15 H 85.8 V 4.1 H 82 v 13.5 h 9.6 V 15 m 30.5,-5.7 c -2.6,-0.6 -3.5,-0.7 -3.5,-1.7 0,-1 1.3,-1.3 2,-1.3 1.2,0 2.6,0.3 4,1 l 1,-2.5 c -1.5,-0.8 -3.3,-1.1 -5.1,-1.1 -3.5,0 -5.9,1.4 -6,4.3 -0.1,2.6 2,3.5 3.9,3.9 1.8,0.4 3.7,0.7 3.7,1.8 0,1 -0.9,1.5 -2.6,1.5 -1.6,0 -3.1,-0.5 -4.6,-1.1 l -0.9,2.7 c 1.7,0.7 3.5,1.2 5.3,1.2 2.5,0 4.3,-0.4 5.7,-1.7 0.9,-0.9 1.2,-1.9 1.2,-3 0.2,-2.1 -1.1,-3.3 -4.1,-4 M 60.6,6.8 V 4.1 H 48.9 v 2.7 h 4 v 10.8 h 3.7 V 6.8 h 4 m 43.9,-2.7 v 9.7 c -0.1,0.8 -0.9,1.3 -2.2,1.3 -0.9,0 -1.6,-0.3 -1.9,-0.8 -0.2,-0.3 -0.2,-0.7 -0.2,-1.4 V 4.1 h -3.9 v 9.3 c 0,1.3 0.2,1.9 0.7,2.6 1,1.2 2.8,1.8 5.4,1.8 h 0.2 c 3.4,0 5.2,-1.3 5.7,-2.6 0.3,-0.6 0.3,-0.9 0.3,-2.1 v -9 h -4.1 M 50.7,0.4 28.6,4.9 v 1.6 h 0.1 C 43.3,2.9 50.7,0.8 50.8,0.7 50.9,0.7 50.9,0.6 50.9,0.6 50.8,0.5 50.8,0.4 50.7,0.4"
     id="path2"
     inkscape:connector-curvature="0"
     style="fill:#ffffff" />
  <path
     d="M 32.2,1.7 C 32.5,1.5 32.6,1.6 32.5,1.9 32.3,2.3 31.6,4.7 26,9.3 24.6,10.5 23.5,11.2 21.4,12.4 24.9,7.6 29.9,3.2 32.2,1.7 Z M 32.7,0 C 31.6,0.1 29.6,1.7 28.5,2.6 24.2,6.4 20.9,9.9 18.6,13.6 13.8,16.2 7.5,19 1.3,21.1 L 1.2,21.2 0,24.4 0.7,24.1 c 3.9,-1.5 10.5,-4.4 16.5,-7.5 -0.3,0.9 -0.5,1.7 -0.5,2.5 0,0.6 0.1,1.1 0.3,1.6 0.4,1 1.1,1.7 2.1,2.1 1.5,0.6 3.6,0.6 6,-0.1 6.1,-1.9 13.3,-7.6 14.8,-8.7 H 40 c 0.1,0 0.1,-0.1 0,-0.2 0,-0.1 -0.1,-0.1 -0.2,0 h -0.1 c -1.7,1 -9.9,5.9 -15.2,7.4 -2.7,0.7 -4.8,0.3 -5.5,-0.8 -0.3,-0.4 -0.4,-0.9 -0.4,-1.4 0,-1.1 0.5,-2.5 1.5,-4 0.9,-0.5 1.7,-1 2.5,-1.5 C 27.8,10.5 33.8,4.8 34,1.3 V 1.2 C 34,0.9 33.9,0.6 33.6,0.4 33.4,0.1 33.1,0 32.7,0 Z"
     id="path4"
     inkscape:connector-curvature="0"
     style="fill:#ffffff" />
  <path
     d="m 28.5,4.9 -23.2,5 -0.9,2.5 24.2,-6 h 0.1 V 4.9 h -0.2"
     id="path6"
     inkscape:connector-curvature="0"
     style="fill:#ffffff" />
</svg>
