<svg xmlns="http://www.w3.org/2000/svg" width="51.75" height="49.944"><path d="M3 17.344h6.799V10.42C9.799 3.93 14.49 0 22.58 0c1.36 0 3.127.25 4.419.686V5.74c-1.292-.437-2.924-.624-4.42-.624-4.418 0-6.39 1.81-6.39 5.303v6.925H27v5.053H16.19V35H9.799V22.397H3m12.982 17.607c-.715 6.234-4.967 9.94-11.848 9.94-1.272 0-2.926-.285-4.134-.782v-5.763c1.208.497 2.735.71 4.134.71 3.399 0 5.25-1.394 5.8-4.105z" fill="#fff"/><path d="M32.84 18.556h2.655V6.859h-2.654z" stroke-miterlimit="10" fill="#0FDBC6" stroke="#0FDBC6" stroke-width=".749"/><path d="M38.032 1.613v2.316h9.065c-.747.946-1.45 2.054-2.088 3.273h2.749a23.963 23.963 0 0 1 3.038-4.29V1.613z" fill="#0FDBC6"/><path d="M38.032 1.613v2.316h9.065c-.747.946-1.45 2.054-2.088 3.273h2.749a23.963 23.963 0 0 1 3.038-4.29V1.613z" stroke-miterlimit="10" fill="none" stroke="#0FDBC6" stroke-width=".749"/><path d="M41.676 20.448h2.682c0-2.813.437-5.658 1.297-8.372h-2.638c-.839 2.702-1.341 5.598-1.341 8.372" fill="#0FDBC6"/><path d="M41.676 20.448h2.682c0-2.813.437-5.658 1.297-8.372h-2.638c-.839 2.702-1.341 5.598-1.341 8.372z" stroke-miterlimit="10" fill="none" stroke="#0FDBC6" stroke-width=".749"/></svg>