<svg xmlns="http://www.w3.org/2000/svg" xmlns:xlink="http://www.w3.org/1999/xlink" width="1158.869" height="126.85"><defs><path id="a" d="M.365.796h406.03v122.756H.365z"/><path id="c" d="M.619.779H623.88v8.183H.619z"/></defs><g fill="none" fill-rule="evenodd"><path d="M39.322 2.205L0 123.205h17.97L57 2.205zm42.383 89.538c4.183 0 7.39-.3 9.62-.903 2.23-.604 3.346-1.83 3.346-3.687 0-1.205-.35-2.227-1.047-3.063-.698-.83-1.673-1.55-2.927-2.154-1.254-.604-2.696-1.182-4.32-1.739a215.702 215.702 0 0 0-5.09-1.67 117.99 117.99 0 0 1-7.669-2.571c-2.604-.976-4.972-2.204-7.11-3.69-2.138-1.483-3.901-3.362-5.297-5.632-1.394-2.27-2.09-5.124-2.09-8.558 0-2.778.533-5.402 1.601-7.859 1.068-2.458 2.74-4.64 5.02-6.54 2.276-1.899 5.18-3.385 8.714-4.453 3.531-1.063 7.758-1.6 12.686-1.6 4.274 0 8.248.328 11.919.976 3.671.647 6.854 1.579 9.55 2.781l-2.65 14.471c-1.58-.464-4.04-1.23-7.386-2.299-3.348-1.063-7.113-1.597-11.293-1.597-4.37 0-7.32.534-8.853 1.597-1.533 1.069-2.3 2.206-2.3 3.409 0 1.024.348 1.927 1.044 2.714.698.79 1.626 1.51 2.79 2.157 1.16.652 2.507 1.274 4.043 1.878a74.28 74.28 0 0 0 4.949 1.739c2.507.836 5.108 1.762 7.805 2.781 2.697 1.022 5.137 2.296 7.32 3.829 2.184 1.53 3.976 3.475 5.367 5.84 1.396 2.367 2.091 5.267 2.091 8.695 0 2.694-.51 5.243-1.533 7.653-1.024 2.415-2.717 4.5-5.088 6.261-2.368 1.763-5.46 3.153-9.271 4.172-3.814 1.02-8.504 1.53-14.08 1.53-5.673 0-10.505-.647-14.5-1.945-3.996-1.298-7.202-2.459-9.62-3.48l2.65-14.33c3.253 1.303 6.712 2.505 10.386 3.62a38.498 38.498 0 0 0 11.223 1.667m82.646-26.013c0-1.762-.232-3.457-.698-5.08a12.666 12.666 0 0 0-2.231-4.384c-1.021-1.292-2.322-2.34-3.901-3.127-1.583-.79-3.535-1.184-5.856-1.184-2.231 0-4.163.372-5.789 1.115-1.624.743-2.973 1.762-4.041 3.057a14.908 14.908 0 0 0-2.508 4.456c-.607 1.666-1 3.385-1.187 5.147zm-43.915 6.816c0-5.748.881-10.805 2.65-15.165 1.763-4.358 4.087-7.998 6.967-10.921 2.883-2.92 6.182-5.122 9.9-6.608 3.715-1.483 7.529-2.226 11.432-2.226 9.665 0 17.007 2.853 22.028 8.555 5.018 5.707 7.529 14.03 7.529 24.974 0 1.112-.023 2.273-.07 3.478-.05 1.205-.119 2.18-.21 2.92H138.14c0 4.268 1.764 7.633 5.3 10.086 3.53 2.461 8.085 3.687 13.662 3.687 3.438 0 6.712-.372 9.83-1.115 3.112-.738 5.737-1.48 7.875-2.226l2.37 14.61c-2.975 1.025-6.135 1.879-9.48 2.575-3.346.694-7.11 1.043-11.293 1.043-5.577 0-10.575-.72-14.988-2.155-4.413-1.44-8.177-3.573-11.29-6.4-3.116-2.831-5.507-6.332-7.18-10.507-1.675-4.171-2.51-9.042-2.51-14.605zM242.91 56.687a59.788 59.788 0 0 0-3.972-.836 147.032 147.032 0 0 0-4.672-.766 59.116 59.116 0 0 0-4.602-.488 66.266 66.266 0 0 0-3.764-.136c-2.417 0-4.786.116-7.107.348a44.48 44.48 0 0 0-7.11 1.318v48.556h-17.289V43.609a103.217 103.217 0 0 1 14.01-4.038c4.789-1.019 10.389-1.53 16.8-1.53.929 0 2.252.05 3.972.14 1.722.095 3.557.255 5.51.487 1.951.233 3.924.511 5.922.836 1.999.328 3.788.764 5.37 1.324l-3.069 15.86zm35.202 47.995c-4.184-8.251-8.437-17.92-12.76-29.007-4.317-11.081-8.43-23.207-12.337-36.378h17.987a225.29 225.29 0 0 0 2.996 11.267c1.161 3.988 2.392 8 3.695 12.033 1.3 4.035 2.627 7.954 3.974 11.757a442.032 442.032 0 0 0 3.831 10.436 1806.84 1806.84 0 0 1 4.044-10.436 428.813 428.813 0 0 0 4.392-11.757 761.204 761.204 0 0 0 4.183-12.033c1.345-3.986 2.439-7.743 3.276-11.267h17.426c-3.904 13.17-8.224 25.297-12.966 36.378-4.739 11.086-9.199 20.756-13.382 29.007h-14.36zm87.161-38.952c0-1.762-.232-3.457-.698-5.08a12.666 12.666 0 0 0-2.231-4.384c-1.024-1.292-2.322-2.34-3.901-3.127-1.583-.79-3.535-1.184-5.856-1.184-2.232 0-4.163.372-5.79 1.115-1.623.743-2.972 1.762-4.04 3.057a14.908 14.908 0 0 0-2.508 4.456c-.608 1.666-1 3.385-1.187 5.147zm-43.916 6.816c0-5.748.882-10.805 2.65-15.165 1.764-4.358 4.088-7.998 6.968-10.921 2.883-2.92 6.182-5.122 9.9-6.608 3.715-1.483 7.528-2.226 11.432-2.226 9.665 0 17.007 2.853 22.028 8.555 5.018 5.707 7.529 14.03 7.529 24.974a91.4 91.4 0 0 1-.07 3.478c-.05 1.205-.119 2.18-.21 2.92h-42.522c0 4.268 1.764 7.633 5.3 10.086 3.53 2.461 8.085 3.687 13.662 3.687 3.436 0 6.711-.372 9.83-1.115 3.112-.738 5.736-1.48 7.875-2.226l2.37 14.61c-2.975 1.025-6.135 1.879-9.48 2.575-3.346.694-7.11 1.043-11.293 1.043-5.577 0-10.575-.72-14.988-2.155-4.413-1.44-8.178-3.573-11.29-6.4-3.116-2.831-5.507-6.332-7.183-10.507-1.672-4.171-2.508-9.042-2.508-14.605zm122.475-15.859a59.788 59.788 0 0 0-3.972-.836 147.032 147.032 0 0 0-4.671-.766 59.116 59.116 0 0 0-4.602-.488 66.266 66.266 0 0 0-3.765-.136 71.44 71.44 0 0 0-7.107.348c-2.327.232-4.698.67-7.11 1.318v48.556h-17.289V43.609a103.217 103.217 0 0 1 14.01-4.038c4.789-1.019 10.389-1.53 16.8-1.53.929 0 2.253.05 3.972.14 1.722.095 3.557.255 5.51.487 1.951.233 3.924.511 5.923.836 1.998.328 3.787.764 5.37 1.324l-3.07 15.86zm62.277 45.213c-.277.189-.905.511-1.883.976-.974.464-2.254.952-3.834 1.457-1.582.514-3.508.952-5.783 1.324-2.28.369-4.86.554-7.738.554-7.901 0-13.664-2.34-17.286-7.025-3.628-4.683-5.438-11.522-5.438-20.519v-55.51h-18.126V8.967h35.273v70.952c0 4.453.882 7.469 2.65 9.043 1.763 1.579 3.994 2.365 6.691 2.365 3.436 0 6.316-.464 8.643-1.39 2.322-.926 3.855-1.53 4.6-1.809l2.23 13.772zm49.324-36.17c0-1.762-.232-3.457-.698-5.08a12.666 12.666 0 0 0-2.23-4.384c-1.022-1.292-2.323-2.34-3.902-3.127-1.583-.79-3.535-1.184-5.856-1.184-2.231 0-4.163.372-5.786 1.115-1.627.743-2.976 1.762-4.044 3.057a14.965 14.965 0 0 0-2.508 4.456c-.607 1.666-1 3.385-1.187 5.147zm-43.915 6.816c0-5.748.881-10.805 2.65-15.165 1.763-4.358 4.087-7.998 6.97-10.921 2.88-2.92 6.179-5.122 9.897-6.608 3.715-1.483 7.529-2.226 11.433-2.226 9.664 0 17.006 2.853 22.027 8.555 5.021 5.707 7.529 14.03 7.529 24.974 0 1.112-.023 2.273-.07 3.478-.049 1.205-.119 2.18-.21 2.92h-42.522c0 4.268 1.766 7.633 5.3 10.086 3.53 2.461 8.088 3.687 13.662 3.687 3.438 0 6.712-.372 9.83-1.115 3.112-.738 5.737-1.48 7.875-2.226l2.37 14.61c-2.975 1.025-6.135 1.879-9.48 2.575-3.346.694-7.11 1.043-11.29 1.043-5.58 0-10.578-.72-14.99-2.155-4.414-1.44-8.178-3.573-11.291-6.4-3.116-2.831-5.507-6.332-7.18-10.507-1.675-4.171-2.51-9.042-2.51-14.605zm93.769 19.197c4.18 0 7.386-.3 9.62-.903 2.229-.604 3.348-1.83 3.348-3.687 0-1.205-.349-2.227-1.047-3.063-.7-.83-1.672-1.55-2.929-2.154-1.256-.604-2.697-1.182-4.323-1.739a207.853 207.853 0 0 0-5.088-1.67 118.05 118.05 0 0 1-7.67-2.571c-2.602-.976-4.97-2.204-7.105-3.69-2.141-1.483-3.907-3.362-5.3-5.632-1.394-2.27-2.09-5.124-2.09-8.558 0-2.778.533-5.402 1.6-7.859 1.071-2.458 2.741-4.64 5.02-6.54 2.277-1.899 5.18-3.385 8.712-4.453 3.534-1.063 7.761-1.6 12.692-1.6 4.27 0 8.242.328 11.916.976 3.671.647 6.854 1.579 9.548 2.781l-2.645 14.471c-1.582-.464-4.046-1.23-7.39-2.299-3.347-1.063-7.112-1.597-11.295-1.597-4.367 0-7.317.534-8.85 1.597-1.533 1.069-2.3 2.206-2.3 3.409 0 1.024.348 1.927 1.044 2.714.698.79 1.626 1.51 2.79 2.157 1.16.652 2.507 1.274 4.04 1.878a73.856 73.856 0 0 0 4.951 1.739c2.508.836 5.107 1.762 7.806 2.781 2.696 1.022 5.137 2.296 7.322 3.829 2.182 1.53 3.97 3.475 5.364 5.84 1.397 2.367 2.092 5.267 2.092 8.695 0 2.694-.51 5.243-1.536 7.653-1.018 2.415-2.712 4.5-5.083 6.261-2.37 1.763-5.463 3.153-9.274 4.172-3.813 1.02-8.5 1.53-14.08 1.53-5.67 0-10.504-.647-14.499-1.945-3.997-1.298-7.203-2.459-9.617-3.48l2.647-14.33c3.253 1.303 6.714 2.505 10.386 3.62a38.498 38.498 0 0 0 11.223 1.667m64.034 0c4.178 0 7.387-.3 9.618-.903 2.229-.604 3.348-1.83 3.348-3.687 0-1.205-.349-2.227-1.047-3.063-.7-.83-1.673-1.55-2.93-2.154-1.253-.604-2.693-1.182-4.32-1.739a208.133 208.133 0 0 0-5.09-1.67 117.989 117.989 0 0 1-7.668-2.571c-2.604-.976-4.97-2.204-7.108-3.69-2.138-1.483-3.906-3.362-5.3-5.632-1.39-2.27-2.086-5.124-2.086-8.558 0-2.778.532-5.402 1.6-7.859 1.068-2.458 2.738-4.64 5.016-6.54 2.28-1.899 5.181-3.385 8.713-4.453 3.534-1.063 7.761-1.6 12.691-1.6 4.274 0 8.245.328 11.917.976 3.673.647 6.854 1.579 9.55 2.781l-2.647 14.471c-1.58-.464-4.044-1.23-7.39-2.299-3.348-1.063-7.11-1.597-11.295-1.597-4.367 0-7.314.534-8.85 1.597-1.53 1.069-2.301 2.206-2.301 3.409 0 1.024.349 1.927 1.045 2.714.698.79 1.626 1.51 2.792 2.157 1.16.652 2.505 1.274 4.04 1.878a73.767 73.767 0 0 0 4.95 1.739c2.51.836 5.108 1.762 7.807 2.781 2.694 1.022 5.135 2.296 7.32 3.829 2.182 1.53 3.97 3.475 5.364 5.84 1.396 2.367 2.092 5.267 2.092 8.695 0 2.694-.507 5.243-1.533 7.653-1.022 2.415-2.715 4.5-5.086 6.261-2.368 1.763-5.463 3.153-9.274 4.172-3.813 1.02-8.5 1.53-14.08 1.53-5.67 0-10.502-.647-14.499-1.945s-7.203-2.459-9.618-3.48l2.648-14.33c3.252 1.303 6.714 2.505 10.385 3.62a38.515 38.515 0 0 0 11.226 1.667m53.077 30.052H704.55L743.595 1.596h17.555z" fill="#fefefe"/><g transform="translate(752.475 -.795)"><mask id="b" fill="#fff"><use xlink:href="#a" width="100%" height="100%"/></mask><path mask="url(#b)" d="M370.94 123.552H.364L35.82.795h370.574z" fill="#fefefe"/></g><path d="M849.699 86.269c15.155 0 23.992-10.885 23.992-23.831 0-13.52-8.265-23.945-23.992-23.945h-13.892v47.776H849.7zM819.5 24.171h30.2c23.992 0 40.642 15.238 40.642 38.267 0 23.026-16.65 38.153-40.642 38.153h-30.2zm97.806 49.15h25.376l-12.63-35.06zm29.854 14.09h-34.216l-4.824 13.178h-17.907l29.621-76.417h20.438l29.502 76.417H951.98zm41.903-18.101l-29.502-45.14h18.595l19.06 30.707 18.829-30.707h18.6l-29.275 45.14v31.28h-16.307zm53.09 8.135c5.393 5.615 13.775 10.31 24.339 10.31 8.956 0 13.317-4.236 13.317-8.591 0-5.728-6.66-7.678-15.497-9.737-12.518-2.866-28.59-6.303-28.59-23.372 0-12.72 11.022-23.03 29.048-23.03 12.167 0 22.273 3.664 29.851 10.653l-9.07 11.915c-6.197-5.725-14.468-8.362-21.932-8.362-7.347 0-11.249 3.207-11.249 7.792 0 5.155 6.428 6.762 15.27 8.823 12.63 2.859 28.703 6.644 28.703 23.6 0 13.975-9.985 24.517-30.653 24.517-14.695 0-25.26-4.925-32.496-12.144l8.959-12.373z" fill="#0bb8a7"/><g transform="translate(60.943 117.885)"><mask id="d" fill="#fff"><use xlink:href="#c" width="100%" height="100%"/></mask><path d="M33.423 8.962H4.719a4.094 4.094 0 0 1-4.1-4.092 4.094 4.094 0 0 1 4.1-4.09h28.704c2.264 0 4.1 1.829 4.1 4.091a4.094 4.094 0 0 1-4.1 4.092m53.306 0H58.025a4.094 4.094 0 0 1-4.1-4.092 4.094 4.094 0 0 1 4.1-4.091H86.73c2.264 0 4.1 1.829 4.1 4.091a4.094 4.094 0 0 1-4.1 4.092m53.305 0h-28.703a4.094 4.094 0 0 1-4.1-4.092 4.094 4.094 0 0 1 4.1-4.091h28.703c2.263 0 4.1 1.829 4.1 4.091a4.096 4.096 0 0 1-4.1 4.092m53.306 0h-28.705a4.092 4.092 0 1 1 0-8.183h28.705a4.094 4.094 0 0 1 4.098 4.091 4.094 4.094 0 0 1-4.098 4.092m53.304 0H217.94a4.094 4.094 0 0 1-4.1-4.092 4.094 4.094 0 0 1 4.1-4.091h28.703c2.265 0 4.1 1.829 4.1 4.091a4.094 4.094 0 0 1-4.1 4.092m53.306 0h-28.704a4.094 4.094 0 0 1-4.1-4.092 4.094 4.094 0 0 1 4.1-4.091h28.704c2.265 0 4.1 1.829 4.1 4.091a4.094 4.094 0 0 1-4.1 4.092m53.306 0h-28.704a4.094 4.094 0 0 1-4.1-4.092 4.094 4.094 0 0 1 4.1-4.091h28.704a4.092 4.092 0 1 1 0 8.183m53.303 0h-28.7a4.095 4.095 0 0 1-4.101-4.092 4.094 4.094 0 0 1 4.1-4.091h28.701c2.265 0 4.1 1.829 4.1 4.091a4.094 4.094 0 0 1-4.1 4.092m53.306 0h-28.703a4.094 4.094 0 0 1-4.1-4.092 4.094 4.094 0 0 1 4.1-4.091h28.703c2.265 0 4.1 1.829 4.1 4.091a4.094 4.094 0 0 1-4.1 4.092m53.306 0h-28.703a4.094 4.094 0 0 1-4.1-4.092 4.094 4.094 0 0 1 4.1-4.091h28.703c2.265 0 4.1 1.829 4.1 4.091a4.094 4.094 0 0 1-4.1 4.092m53.306 0h-28.703a4.093 4.093 0 1 1 0-8.183h28.703a4.093 4.093 0 1 1 0 8.183m53.303 0h-28.703a4.093 4.093 0 1 1 0-8.183h28.703a4.093 4.093 0 1 1 0 8.183" mask="url(#d)" fill="#0bb8a7"/></g></g></svg>