<?xml version="1.0" encoding="UTF-8"?>
<svg width="21px" height="19px" viewBox="0 0 21 19" version="1.1" xmlns="http://www.w3.org/2000/svg" xmlns:xlink="http://www.w3.org/1999/xlink">
    <!-- Generator: Sketch 49 (51002) - http://www.bohemiancoding.com/sketch -->
    <title>Path</title>
    <desc>Created with Sketch.</desc>
    <defs></defs>
    <g id="Welcome" stroke="none" stroke-width="1" fill="none" fill-rule="evenodd">
        <g id="Landing-Page-2018" transform="translate(-1097.000000, -44.000000)" stroke="#FFFFFF">
            <g id="Group-16" transform="translate(487.000000, 43.000000)">
                <path d="M627.954684,6.23215943 C627.962584,6.4169502 627.966893,6.60324334 627.966893,6.78953648 C627.966893,12.4617118 623.840353,19 616.290352,19 C613.972854,19 611.815505,18.2916354 610,17.0732182 C610.321017,17.1130308 610.647779,17.1333127 610.97885,17.1333127 C612.902079,17.1333127 614.670904,16.4467324 616.075622,15.2959215 C614.280226,15.2613672 612.764193,14.0204145 612.242091,12.3144801 C612.49201,12.3640582 612.749829,12.3918519 613.013394,12.3918519 C613.387554,12.3918519 613.750943,12.3407715 614.094941,12.2423667 C612.217674,11.8487473 610.80362,10.114268 610.80362,8.03349388 C610.80362,8.01546551 610.80362,7.99668596 610.804338,7.97940878 C611.35732,8.30016349 611.990018,8.49396845 612.662214,8.51575273 C611.561995,7.74729354 610.837373,6.43272502 610.837373,4.94388229 C610.837373,4.15664354 611.039176,3.41898281 611.39251,2.7849852 C613.415562,5.38257258 616.440447,7.09076046 619.850264,7.27104414 C619.779884,6.95629888 619.744695,6.62953471 619.744695,6.29225399 C619.744695,3.92227476 621.581744,2 623.847535,2 C625.028188,2 626.093217,2.52132031 626.842975,3.35513234 C627.778735,3.16282975 628.654889,2.80676948 629.44989,2.3132429 C629.141082,3.31607088 628.492585,4.15664354 627.643003,4.6884804 C628.473913,4.58481729 629.26676,4.35495559 630,4.01316778 C629.452763,4.87251999 628.756867,5.62896028 627.954684,6.23215943 Z" id="Path"></path>
            </g>
        </g>
    </g>
</svg>