<svg width="216" height="28" 
  xmlns="http://www.w3.org/2000/svg">
  <path d="M138.368 6.434h4.693c2.065.05 3.62.63 4.665 1.738 1.045 1.109 1.567 2.79 1.567 5.045s-.522 3.936-1.567 5.045c-1.046 1.108-2.6 1.687-4.665 1.738h-4.693V6.434zm1.292 12.464h2.755c.975 0 1.814-.104 2.518-.314.703-.209 1.282-.541 1.738-.997.456-.456.792-1.045 1.007-1.767.215-.722.323-1.59.323-2.603 0-1.013-.108-1.881-.323-2.603-.215-.722-.551-1.311-1.007-1.767-.456-.456-1.035-.788-1.738-.997-.704-.21-1.543-.314-2.518-.314h-2.755v11.362zm11.814-12.464h1.197v1.919h-1.197V6.434zm0 3.762h1.197V20h-1.197v-9.804zm12.08 9.006c0 .722-.08 1.374-.238 1.957-.158.583-.408 1.077-.75 1.482s-.788.716-1.34.931c-.55.215-1.225.323-2.023.323a6.09 6.09 0 0 1-1.444-.171 4.106 4.106 0 0 1-1.263-.532 3.15 3.15 0 0 1-.931-.922c-.248-.373-.39-.82-.428-1.339h1.197c.063.367.187.674.37.921.184.248.406.447.665.599.26.152.548.263.865.332.317.07.64.105.969.105 1.115 0 1.919-.317 2.413-.95.494-.633.741-1.545.741-2.736v-1.33h-.038a3.5 3.5 0 0 1-1.225 1.463c-.539.367-1.169.551-1.891.551-.785 0-1.457-.13-2.014-.39a3.74 3.74 0 0 1-1.377-1.073 4.379 4.379 0 0 1-.789-1.605 7.57 7.57 0 0 1-.247-1.967c0-.671.098-1.308.294-1.91a4.738 4.738 0 0 1 .856-1.577 3.97 3.97 0 0 1 1.387-1.064c.55-.26 1.18-.389 1.89-.389.367 0 .712.05 1.035.152.324.101.618.244.884.428.266.183.503.395.712.636.21.24.371.494.485.76h.038v-1.691h1.197v9.006zm-4.351-.323c.52 0 .975-.11 1.368-.332.393-.222.722-.513.988-.875.266-.36.465-.775.599-1.244.133-.469.199-.95.199-1.444 0-.481-.057-.963-.171-1.444a4.17 4.17 0 0 0-.551-1.311 2.984 2.984 0 0 0-.978-.95c-.4-.24-.884-.361-1.454-.361s-1.058.117-1.463.352a3.12 3.12 0 0 0-1.007.921c-.266.38-.46.814-.58 1.301-.12.488-.18.985-.18 1.492 0 .494.063.975.19 1.444s.323.883.589 1.244a3.05 3.05 0 0 0 1.007.875c.405.221.887.332 1.444.332zm6.95-12.445h1.197v1.919h-1.197V6.434zm0 3.762h1.197V20h-1.197v-9.804zm5.696 0h1.995v1.007h-1.995v6.612c0 .393.054.7.162.921.107.222.376.346.807.371.342 0 .684-.019 1.026-.057v1.007c-.177 0-.355.006-.532.019a7.465 7.465 0 0 1-.532.019c-.798 0-1.355-.155-1.672-.465-.317-.31-.469-.884-.456-1.72v-6.707h-1.71v-1.007h1.71V7.251h1.197v2.945zm3.91 3.002c.038-.57.158-1.064.361-1.482a2.81 2.81 0 0 1 .826-1.026 3.499 3.499 0 0 1 1.226-.589c.469-.127.988-.19 1.558-.19.43 0 .861.041 1.292.123.43.083.817.238 1.159.466.342.228.62.548.836.96.215.411.323.946.323 1.605v5.206c0 .481.234.722.703.722.14 0 .266-.025.38-.076v1.007a3.607 3.607 0 0 1-.779.076c-.304 0-.548-.041-.732-.123a.982.982 0 0 1-.427-.352 1.319 1.319 0 0 1-.2-.541 4.649 4.649 0 0 1-.047-.694h-.038a7.998 7.998 0 0 1-.655.846 3.259 3.259 0 0 1-.741.617 3.417 3.417 0 0 1-.931.38 5.096 5.096 0 0 1-1.245.133c-.456 0-.883-.054-1.282-.161a2.88 2.88 0 0 1-1.046-.514 2.453 2.453 0 0 1-.703-.893c-.17-.36-.256-.788-.256-1.282 0-.684.152-1.22.456-1.606a2.87 2.87 0 0 1 1.207-.883 6.882 6.882 0 0 1 1.69-.428c.628-.082 1.264-.161 1.91-.237a6.97 6.97 0 0 0 .665-.095 1.16 1.16 0 0 0 .475-.2.924.924 0 0 0 .294-.389c.07-.165.105-.38.105-.646 0-.405-.066-.738-.2-.998a1.577 1.577 0 0 0-.55-.617 2.222 2.222 0 0 0-.817-.313 5.522 5.522 0 0 0-.998-.086c-.76 0-1.38.18-1.862.542-.481.36-.735.94-.76 1.738h-1.197zm6.384 1.444h-.038c-.076.14-.222.24-.437.304a4.46 4.46 0 0 1-.57.133c-.507.089-1.03.168-1.568.237a8.653 8.653 0 0 0-1.472.314c-.443.14-.807.339-1.093.598-.285.26-.427.63-.427 1.112 0 .304.06.573.18.808.12.234.282.436.485.608.203.17.437.3.703.389.266.089.538.133.817.133.456 0 .893-.07 1.311-.209.418-.14.782-.342 1.093-.608.31-.266.557-.589.74-.969.184-.38.276-.81.276-1.292v-1.558zm3.91-8.208h1.197V20h-1.197V6.434zM75.2 8.8V6.1H66v13.5h9.2v-2.7h-5.5v-3h4.6v-2.6h-4.6V8.8h5.5M91.6 17h-5.8V6.1H82v13.5h9.6V17m30.5-5.7c-2.6-.6-3.5-.7-3.5-1.7s1.3-1.3 2-1.3c1.2 0 2.6.3 4 1l1-2.5c-1.5-.8-3.3-1.1-5.1-1.1-3.5 0-5.9 1.4-6 4.3-.1 2.6 2 3.5 3.9 3.9 1.8.4 3.7.7 3.7 1.8 0 1-.9 1.5-2.6 1.5-1.6 0-3.1-.5-4.6-1.1l-.9 2.7c1.7.7 3.5 1.2 5.3 1.2 2.5 0 4.3-.4 5.7-1.7.9-.9 1.2-1.9 1.2-3 .2-2.1-1.1-3.3-4.1-4M60.6 8.8V6.1H48.9v2.7h4v10.8h3.7V8.8h4m43.9-2.7v9.7c-.1.8-.9 1.3-2.2 1.3-.9 0-1.6-.3-1.9-.8-.2-.3-.2-.7-.2-1.4V6.1h-3.9v9.3c0 1.3.2 1.9.7 2.6 1 1.2 2.8 1.8 5.4 1.8h.2c3.4 0 5.2-1.3 5.7-2.6.3-.6.3-.9.3-2.1v-9h-4.1M50.7 2.4L28.6 6.9v1.6h.1c14.6-3.6 22-5.7 22.1-5.8.1 0 .1-.1.1-.1-.1-.1-.1-.2-.2-.2" fill="#fff"/>
  <path d="M32.2 3.7c.3-.2.4-.1.3.2-.2.4-.9 2.8-6.5 7.4-1.4 1.2-2.5 1.9-4.6 3.1 3.5-4.8 8.5-9.2 10.8-10.7zm.5-1.7c-1.1.1-3.1 1.7-4.2 2.6-4.3 3.8-7.6 7.3-9.9 11-4.8 2.6-11.1 5.4-17.3 7.5l-.1.1L0 26.4l.7-.3c3.9-1.5 10.5-4.4 16.5-7.5-.3.9-.5 1.7-.5 2.5 0 .6.1 1.1.3 1.6.4 1 1.1 1.7 2.1 2.1 1.5.6 3.6.6 6-.1 6.1-1.9 13.3-7.6 14.8-8.7h.1c.1 0 .1-.1 0-.2 0-.1-.1-.1-.2 0h-.1c-1.7 1-9.9 5.9-15.2 7.4-2.7.7-4.8.3-5.5-.8-.3-.4-.4-.9-.4-1.4 0-1.1.5-2.5 1.5-4 .9-.5 1.7-1 2.5-1.5 5.2-3 11.2-8.7 11.4-12.2v-.1c0-.3-.1-.6-.4-.8-.2-.3-.5-.4-.9-.4z" fill="#fff"/>
  <path fill="#fff" d="M28.5 6.9l-23.2 5-.9 2.5 24.2-6h.1V6.9h-.2"/>
</svg>