<svg xmlns="http://www.w3.org/2000/svg" width="1236.578" height="253.678"><defs><clipPath id="a"><path d="M0 1080h2160V0H0z"/></clipPath></defs><g clip-path="url(#a)" transform="matrix(1.33333 0 0 -1.33333 -253.038 1226.468)"><path d="M658.363 744.574c4.631 0 10.651 1.157 15.051 2.546v18.987c-4.4-1.62-9.957-2.547-15.05-2.547-4.323 0-7.935.592-10.92 1.71v-19.811a66.576 66.576 0 0 1 10.92-.885m15.05 92.153v18.755h-36.816v32.416l-21.765-3.24v-29.176H591.68v-18.755h23.154v-53.485c0-1.138.07-2.233.141-3.328h21.814a31.03 31.03 0 0 0-.19 3.328v53.485zm-389 80.578V898.55c-4.4 1.62-9.957 2.315-15.05 2.315-15.05 0-21.766-6.715-21.766-19.682v-25.701h36.816v-18.755h-36.816v-46.773h-21.765v46.773H202.68v18.755h23.154v25.7c0 24.083 15.977 38.669 43.53 38.669 4.631 0 10.651-.926 15.051-2.546m-36.859-155.363c-2.585-20.291-17.958-32.35-42.834-32.35-4.598 0-10.576.927-14.944 2.547v18.755c4.368-1.62 9.886-2.315 14.944-2.315 12.288 0 18.98 4.54 20.971 13.363zm303.833 77.141c-19.125-1.648-29.89-13.934-29.89-37.781 0-25.47 12.504-37.742 34.5-37.742 9.263 0 19.682 1.852 29.175 4.863v-18.755c-8.567-2.779-20.376-5.094-29.175-5.094-36.12 0-57.191 21.301-57.191 56.728 0 34.11 19.282 54.871 52.575 56.609z" fill="#fff"/><path d="M385.396 746.008c-3.578-.82-7.631-1.434-11.48-1.434-6.946 0-13.43 2.315-17.598 6.482-8.567-3.936-18.06-6.482-28.48-6.482-28.712 0-46.308 15.05-46.308 40.52v70.388h21.765v-70.388c0-14.124 8.336-21.534 24.544-21.534 8.335 0 15.282 1.62 22.228 4.399v59.47h21.765v-55.997c0-5.325 2.315-7.872 7.64-7.872 2.049 0 4.036.314 5.926.778zm8.491 37.712v67.826c13.197 3.473 30.795 6.484 43.992 6.484 28.712 0 46.308-14.82 46.308-40.52v-70.158h-21.764v70.158c0 14.356-8.568 21.765-24.544 21.765-7.64 0-15.281-1.158-22.228-3.011V783.72zm319.85-36.368h-21.764v108.13h21.764zm122.991 53.95c0 35.194-20.145 56.728-52.328 56.728-32.186 0-52.562-21.534-52.562-56.728 0-27.286 12.411-46.532 33.159-53.67v22.982c-6.666 6.228-10.468 16.517-10.468 30.688 0 24.775 11.579 37.973 29.871 37.973 18.059 0 29.637-13.198 29.637-37.973 0-15.241-4.394-25.993-11.971-32.027v-22.183c21.71 6.654 34.662 26.186 34.662 54.21" fill="#fff"/><path d="M836.728 801.302c0 35.194-20.145 56.728-52.328 56.728-32.186 0-52.562-21.534-52.562-56.728 0-27.286 12.411-46.532 33.159-53.67v22.982c-6.666 6.228-10.468 16.517-10.468 30.688 0 24.775 11.579 37.973 29.871 37.973 18.059 0 29.637-13.198 29.637-37.973 0-15.241-4.394-25.993-11.971-32.027v-22.183c21.71 6.654 34.662 26.186 34.662 54.21m106.387 16.208c0 25.7-17.596 40.52-46.306 40.52-13.199 0-30.796-3.011-43.994-6.484V747.352h21.765v88.913c6.946 1.852 14.588 3.01 22.23 3.01 15.974 0 24.541-7.41 24.541-21.765v-33.788h21.764z" fill="#fff"/><path d="M943.115 817.51c0 25.7-17.596 40.52-46.306 40.52-13.199 0-30.796-3.011-43.994-6.484V747.352h21.765v88.913c6.946 1.852 14.588 3.01 22.23 3.01 15.974 0 24.541-7.41 24.541-21.765v-33.788h21.764zm61.192 40.52c-31.722 0-46.077-16.44-46.077-33.574 0-21.533 15.514-33.11 41.678-33.11 14.357 0 19.912-5.326 19.912-13.662 0-7.177-5.555-14.124-24.542-14.124-11.345 0-23.85 2.084-36.584 6.02v-18.986c12.27-3.704 23.849-6.02 36.584-6.02 32.183 0 46.77 16.67 46.77 34.5 0 21.765-15.281 33.11-42.14 33.11-13.893 0-19.45 5.558-19.45 13.66 0 6.484 5.326 13.43 23.849 13.43.444 0 .904-.025 1.353-.033V858c-.453.006-.898.03-1.353.03" fill="#fff"/><path d="M1004.307 858.03c-31.722 0-46.077-16.44-46.077-33.574 0-21.533 15.514-33.11 41.678-33.11 14.357 0 19.912-5.326 19.912-13.662 0-7.177-5.555-14.124-24.542-14.124-11.345 0-23.85 2.084-36.584 6.02v-18.986c12.27-3.704 23.849-6.02 36.584-6.02 32.183 0 46.77 16.67 46.77 34.5 0 21.765-15.281 33.11-42.14 33.11-13.893 0-19.45 5.558-19.45 13.66 0 6.484 5.326 13.43 23.849 13.43.444 0 .904-.025 1.353-.033V858c-.453.006-.898.03-1.353.03" fill="#fff"/><path d="M1043.768 842.481h10.636v46.868h-10.636z" fill="#0FDBC6" stroke="#0FDBC6" stroke-width="3" stroke-miterlimit="10"/><path d="M1064.57 910.368v-9.278h36.32c-2.994-3.792-5.811-8.233-8.366-13.117h11.014c3.427 6.136 7.472 11.927 12.174 17.19v5.205z" fill="#0FDBC6"/><path d="M1064.57 910.368v-9.278h36.32c-2.994-3.792-5.811-8.233-8.366-13.117h11.014c3.427 6.136 7.472 11.927 12.174 17.19v5.205z" fill="none" stroke="#0FDBC6" stroke-width="3" stroke-miterlimit="10"/><path d="M1079.167 834.9h10.749c0 11.27 1.75 22.67 5.196 33.543h-10.57c-3.361-10.824-5.375-22.43-5.375-33.543" fill="#0FDBC6"/><path d="M1079.167 834.9h10.749c0 11.27 1.75 22.67 5.196 33.543h-10.57c-3.361-10.824-5.375-22.43-5.375-33.543z" fill="none" stroke="#0FDBC6" stroke-width="3" stroke-miterlimit="10"/><path d="M658.363 744.574c4.631 0 10.651 1.157 15.051 2.546v18.987c-4.4-1.62-9.957-2.547-15.05-2.547-4.323 0-7.935.592-10.92 1.71v-19.811a66.576 66.576 0 0 1 10.92-.885m15.05 92.153v18.755h-36.816v32.416l-21.765-3.24v-29.176H591.68v-18.755h23.154v-53.485c0-1.138.07-2.233.141-3.328h21.814a31.03 31.03 0 0 0-.19 3.328v53.485z" fill="#fff"/></g></svg>